<svg width="230" height="51" viewBox="0 0 230 51" fill="none" xmlns="http://www.w3.org/2000/svg">
<path d="M25.1377 1.05566C38.4379 1.05566 49.2197 11.8376 49.2197 25.1377C49.2197 38.4379 38.4379 49.2197 25.1377 49.2197V44.9971C36.1058 44.9971 44.9971 36.1058 44.9971 25.1377C44.9971 14.1696 36.1058 5.27827 25.1377 5.27827C14.1696 5.27827 5.27827 14.1696 5.27827 25.1377H1.05566C1.05566 11.8376 11.8376 1.05566 25.1377 1.05566ZM25.1377 9.76479C33.6279 9.76479 40.5106 16.6475 40.5106 25.1377C40.5106 33.6279 33.6279 40.5106 25.1377 40.5106V36.288C31.2959 36.288 36.288 31.2959 36.288 25.1377C36.288 18.9796 31.2959 13.9874 25.1377 13.9874C18.9796 13.9874 13.9874 18.9796 13.9874 25.1377H9.76479C9.76479 16.6475 16.6475 9.76479 25.1377 9.76479Z" fill="#FAFAFA"/>
<path d="M25.1377 0C39.0209 7.57003e-07 50.2754 11.2545 50.2754 25.1377C50.2754 39.0209 39.0209 50.2754 25.1377 50.2754H24.082V43.9414H25.1377C35.5227 43.9414 43.9414 35.5227 43.9414 25.1377C43.9414 14.7527 35.5227 6.33399 25.1377 6.33398C14.7527 6.33398 6.33398 14.7527 6.33398 25.1377V26.1934H0V25.1377C0 11.2545 11.2545 0 25.1377 0ZM25.1377 1.05566C11.8376 1.05566 1.05566 11.8376 1.05566 25.1377H5.27832C5.27832 14.1696 14.1696 5.27832 25.1377 5.27832C36.1058 5.27832 44.9971 14.1696 44.9971 25.1377C44.9971 36.1058 36.1058 44.9971 25.1377 44.9971V49.2197C38.4378 49.2197 49.2197 38.4378 49.2197 25.1377C49.2197 11.8376 38.4378 1.05566 25.1377 1.05566ZM25.1377 8.70898C34.2109 8.70899 41.5664 16.0644 41.5664 25.1377C41.5664 34.2109 34.2109 41.5664 25.1377 41.5664H24.082V35.2324H25.1377C30.7128 35.2324 35.2324 30.7128 35.2324 25.1377C35.2324 19.5626 30.7128 15.043 25.1377 15.043C19.5626 15.043 15.043 19.5626 15.043 25.1377V26.1934H8.70898V25.1377C8.70898 16.0644 16.0644 8.70898 25.1377 8.70898ZM25.1377 9.76465C16.6475 9.76465 9.76465 16.6475 9.76465 25.1377H13.9873C13.9873 18.9795 18.9795 13.9873 25.1377 13.9873C31.2958 13.9873 36.2881 18.9795 36.2881 25.1377C36.2881 31.2958 31.2958 36.2881 25.1377 36.2881V40.5107C33.6279 40.5107 40.5107 33.6279 40.5107 25.1377C40.5107 16.6475 33.6279 9.76465 25.1377 9.76465Z" fill="#FAFAFA"/>
<path d="M0 35.2324H15.043V50.2755H0V35.2324Z" fill="#DC2626"/>
<path d="M69.1603 37.7352C67.2953 37.7352 65.6518 37.3389 64.2298 36.5463C62.8077 35.7536 61.6887 34.658 60.8728 33.2592C60.0802 31.8605 59.6839 30.2636 59.6839 28.4685C59.6839 26.6735 60.0802 25.0766 60.8728 23.6779C61.6887 22.2791 62.8077 21.1835 64.2298 20.3908C65.6518 19.5982 67.2953 19.2019 69.1603 19.2019C70.7222 19.2019 72.121 19.4933 73.3565 20.0761C74.6154 20.6356 75.6411 21.4166 76.4338 22.419C77.2497 23.4214 77.7742 24.5987 78.0073 25.9508H72.9369C72.6805 25.0883 72.2142 24.4355 71.5382 23.9926C70.8854 23.5496 70.1161 23.3282 69.2303 23.3282C68.391 23.3282 67.6567 23.538 67.0272 23.9576C66.4211 24.3772 65.9549 24.9717 65.6285 25.741C65.3021 26.5103 65.1389 27.4195 65.1389 28.4685C65.1389 29.5176 65.3021 30.4268 65.6285 31.1961C65.9549 31.9654 66.4211 32.5599 67.0272 32.9795C67.6567 33.3991 68.391 33.6089 69.2303 33.6089C70.1161 33.6089 70.8854 33.3874 71.5382 32.9445C72.2142 32.5016 72.6805 31.8488 72.9369 30.9863H78.0073C77.7742 32.3384 77.2497 33.5157 76.4338 34.5181C75.6411 35.5205 74.6154 36.3131 73.3565 36.8959C72.121 37.4554 70.7222 37.7352 69.1603 37.7352ZM91.6016 37.3855C91.4617 36.8726 91.3568 36.3248 91.2869 35.742C91.2402 35.1592 91.2169 34.4831 91.2169 33.7138H91.0771V25.2864C91.0771 24.5637 90.8323 24.0042 90.3427 23.6079C89.8765 23.1883 89.1771 22.9785 88.2446 22.9785C87.3588 22.9785 86.6477 23.13 86.1115 23.4331C85.5987 23.7361 85.2606 24.1791 85.0975 24.7619H80.097C80.3301 23.1533 81.1577 21.8245 82.5797 20.7755C84.0018 19.7264 85.9484 19.2019 88.4195 19.2019C90.9838 19.2019 92.942 19.7731 94.2942 20.9154C95.6463 22.0577 96.3223 23.7012 96.3223 25.8459V33.7138C96.3223 34.2966 96.3573 34.8911 96.4272 35.4972C96.5205 36.08 96.6604 36.7094 96.8469 37.3855H91.6016ZM85.3772 37.7352C83.6055 37.7352 82.1951 37.2922 81.146 36.4064C80.097 35.4972 79.5724 34.2966 79.5724 32.8046C79.5724 31.1495 80.1902 29.8207 81.4258 28.8182C82.6846 27.7925 84.4331 27.1281 86.671 26.825L91.8813 26.0907V29.1329L87.5452 29.7973C86.6128 29.9372 85.925 30.1937 85.4821 30.5667C85.0392 30.9396 84.8177 31.4525 84.8177 32.1053C84.8177 32.6881 85.0275 33.131 85.4471 33.4341C85.8668 33.7371 86.4263 33.8887 87.1256 33.8887C88.2213 33.8887 89.1538 33.5972 89.9231 33.0144C90.6924 32.4083 91.0771 31.709 91.0771 30.9163L91.5666 33.7138C91.0537 35.0426 90.2728 36.045 89.2237 36.7211C88.1747 37.3972 86.8925 37.7352 85.3772 37.7352ZM100.354 37.3855V19.5516H105.494V23.7478H105.599V37.3855H100.354ZM112.768 37.3855V26.3355C112.768 25.3564 112.511 24.622 111.998 24.1325C111.509 23.6429 110.786 23.3981 109.83 23.3981C109.014 23.3981 108.28 23.5846 107.627 23.9576C106.998 24.3306 106.497 24.8435 106.124 25.4962C105.774 26.149 105.599 26.9183 105.599 27.8041L105.144 23.503C105.727 22.1975 106.578 21.1601 107.697 20.3908C108.839 19.5982 110.238 19.2019 111.893 19.2019C113.875 19.2019 115.39 19.7614 116.439 20.8804C117.488 21.9761 118.013 23.4564 118.013 25.3214V37.3855H112.768ZM134.628 37.3855V33.4341L134.977 33.504C134.744 34.7862 134.045 35.8119 132.879 36.5812C131.737 37.3505 130.362 37.7352 128.753 37.7352C127.121 37.7352 125.699 37.3622 124.487 36.6162C123.298 35.8469 122.377 34.7745 121.724 33.3991C121.072 32.0237 120.745 30.4035 120.745 28.5385C120.745 26.6502 121.083 25.0067 121.759 23.6079C122.435 22.2092 123.38 21.1252 124.592 20.3559C125.827 19.5866 127.261 19.2019 128.893 19.2019C130.595 19.2019 131.97 19.5982 133.019 20.3908C134.092 21.1835 134.721 22.2675 134.908 23.6429L134.523 23.6779V12.2082H139.768V37.3855H134.628ZM130.432 33.539C131.667 33.539 132.67 33.1077 133.439 32.2451C134.208 31.3593 134.593 30.1004 134.593 28.4685C134.593 26.8367 134.197 25.5895 133.404 24.7269C132.635 23.8411 131.621 23.3981 130.362 23.3981C129.149 23.3981 128.147 23.8411 127.354 24.7269C126.585 25.6128 126.2 26.8717 126.2 28.5035C126.2 30.1354 126.585 31.3826 127.354 32.2451C128.147 33.1077 129.173 33.539 130.432 33.539ZM144.871 44.554L149.802 33.6439L150.711 32.1402L155.327 19.5516H160.922L150.116 44.554H144.871ZM148.648 37.0358L141.794 19.5516H147.459L153.089 35.4972L148.648 37.0358ZM173.824 37.7352C172.122 37.7352 170.735 37.3389 169.663 36.5463C168.614 35.7536 167.996 34.6696 167.809 33.2942L168.089 33.2592V37.3855H162.949V12.2082H168.194V23.503L167.879 23.4331C168.136 22.1276 168.812 21.1019 169.907 20.3559C171.026 19.5866 172.425 19.2019 174.104 19.2019C175.712 19.2019 177.099 19.5866 178.265 20.3559C179.454 21.1019 180.363 22.1626 180.992 23.538C181.645 24.9134 181.972 26.5336 181.972 28.3986C181.972 30.2869 181.633 31.9304 180.957 33.3292C180.281 34.7279 179.337 35.8119 178.125 36.5812C176.913 37.3505 175.479 37.7352 173.824 37.7352ZM172.355 33.539C173.591 33.539 174.593 33.096 175.362 32.2102C176.132 31.3243 176.516 30.0654 176.516 28.4336C176.516 26.8017 176.12 25.5545 175.328 24.692C174.558 23.8294 173.544 23.3981 172.285 23.3981C171.073 23.3981 170.071 23.8411 169.278 24.7269C168.509 25.5895 168.124 26.8367 168.124 28.4685C168.124 30.1004 168.509 31.3593 169.278 32.2451C170.071 33.1077 171.096 33.539 172.355 33.539ZM193.71 37.7352C191.752 37.7352 190.027 37.3505 188.535 36.5812C187.066 35.7886 185.912 34.6929 185.073 33.2942C184.257 31.8721 183.849 30.2403 183.849 28.3986C183.849 26.5569 184.257 24.9484 185.073 23.573C185.912 22.1975 187.066 21.1252 188.535 20.3559C190.027 19.5866 191.752 19.2019 193.71 19.2019C195.692 19.2019 197.417 19.5866 198.886 20.3559C200.378 21.1252 201.532 22.1975 202.347 23.573C203.163 24.9484 203.571 26.5569 203.571 28.3986C203.571 30.2403 203.152 31.8721 202.313 33.2942C201.497 34.6929 200.343 35.7886 198.851 36.5812C197.382 37.3505 195.668 37.7352 193.71 37.7352ZM193.71 33.6089C194.526 33.6089 195.261 33.3991 195.913 32.9795C196.589 32.5599 197.126 31.9654 197.522 31.1961C197.918 30.4035 198.116 29.4593 198.116 28.3636C198.116 26.7551 197.685 25.5195 196.822 24.657C195.983 23.7711 194.946 23.3282 193.71 23.3282C192.475 23.3282 191.426 23.7711 190.563 24.657C189.724 25.5429 189.304 26.7784 189.304 28.3636C189.304 29.4593 189.502 30.4035 189.899 31.1961C190.295 31.9654 190.82 32.5599 191.472 32.9795C192.148 33.3991 192.894 33.6089 193.71 33.6089ZM217.057 37.3855L211.776 29.5526L204.188 19.5516H210.063L214.784 26.5802L222.931 37.3855H217.057ZM212.196 26.3005L216.917 19.5516H222.652L214.679 29.9722L212.196 26.3005ZM214.224 30.2519L209.154 37.3855H203.454L211.741 26.5802L214.224 30.2519Z" fill="#FAFAFA"/>
</svg>
