<svg width="171" height="171" viewBox="0 0 171 171" fill="none" xmlns="http://www.w3.org/2000/svg">
<path d="M147.813 23.7156C145.031 20.933 140.519 20.933 137.737 23.7156L85.7643 75.6881L33.792 23.7156C31.0096 20.933 26.4983 20.933 23.7158 23.7156C20.9333 26.498 20.9333 31.0093 23.7158 33.7918L75.6881 85.7643L23.7159 137.736C20.9334 140.519 20.9334 145.03 23.7159 147.813C26.4984 150.595 31.0097 150.595 33.7922 147.813L85.7643 95.8404L137.737 147.813C140.519 150.595 145.031 150.595 147.813 147.813C150.595 145.03 150.595 140.519 147.813 137.737L95.8405 85.7643L147.813 33.7918C150.595 31.0093 150.595 26.498 147.813 23.7156Z" fill="white"/>
</svg>
