<svg width="190" height="65" viewBox="0 0 190 65" fill="none" xmlns="http://www.w3.org/2000/svg">
<g clip-path="url(#clip0_42_8432)">
<path d="M21.7419 17.5459C23.7434 17.5459 25.6852 17.9375 27.5651 18.7184C29.4451 19.4994 30.9958 20.7449 32.2175 22.4528C33.4391 24.1607 34.0488 26.4018 34.0488 29.176V45.4653H21.0505V31.1915C21.0505 29.7822 20.7037 28.665 20.0122 27.8376C19.3186 27.0102 18.3907 26.5987 17.2243 26.5987C16.4534 26.5987 15.7442 26.7867 15.097 27.1606C14.4475 27.5367 13.9372 28.0655 13.5639 28.7468C13.1905 29.4305 13.0027 30.2446 13.0027 31.1915V45.4653H0V18.3401H12.9983V21.7427C13.2833 21.0369 13.8444 20.3666 14.6817 19.7272C15.5167 19.0901 16.5506 18.5658 17.7832 18.1587C19.0159 17.7516 20.3347 17.5481 21.7419 17.5481V17.5459Z" fill="#000100"/>
<path d="M53.3806 46.2573C50.3011 46.2573 47.5618 45.6556 45.165 44.4565C42.7681 43.2552 40.8859 41.5827 39.5229 39.4324C38.1599 37.2842 37.4773 34.802 37.4773 31.9813C37.4773 29.1606 38.1599 26.6673 39.5229 24.497C40.8859 22.3267 42.7681 20.6255 45.165 19.391C47.5618 18.1587 50.3011 17.5415 53.3806 17.5415C56.4601 17.5415 59.175 18.1587 61.5299 19.391C63.8826 20.6255 65.725 22.3267 67.0549 24.497C68.3848 26.6673 69.0519 29.1606 69.0519 31.9813C69.0519 34.802 68.387 37.2842 67.0549 39.4324C65.725 41.5805 63.8826 43.2552 61.5299 44.4565C59.175 45.6556 56.4601 46.2573 53.3806 46.2573ZM53.3806 35.6847C54.1074 35.6847 54.7215 35.5365 55.2274 35.2378C55.7333 34.9414 56.1243 34.5055 56.3982 33.9325C56.6721 33.3595 56.8113 32.6892 56.8113 31.9171C56.8113 31.145 56.6743 30.4747 56.3982 29.9017C56.1221 29.3287 55.7333 28.8885 55.2274 28.581C54.7215 28.2734 54.1052 28.1186 53.3806 28.1186C52.656 28.1186 52.033 28.2734 51.5161 28.581C50.9992 28.8907 50.5971 29.3309 50.3121 29.9017C50.0272 30.4747 49.8836 31.1472 49.8836 31.9171C49.8836 32.687 50.0272 33.3595 50.3121 33.9325C50.5971 34.5055 50.9992 34.9414 51.5161 35.2378C52.033 35.5343 52.6538 35.6847 53.3806 35.6847Z" fill="#000100"/>
<path d="M85.0524 45.4631H72.0541V18.3379H85.0524V22.2028H84.8867C85.1275 21.7184 85.5848 21.1122 86.2564 20.3843C86.9279 19.6587 87.8734 19.0016 89.095 18.4176C90.3167 17.8357 91.8498 17.5415 93.6966 17.5415C94.9271 17.5415 96.1045 17.745 97.2267 18.1521C98.349 18.5592 99.184 18.9618 99.7341 19.3578L94.7525 29.8641C94.4654 29.4238 93.9286 28.977 93.1355 28.5256C92.3446 28.0743 91.355 27.8487 90.1665 27.8487C88.8896 27.8487 87.8778 28.1075 87.1312 28.6252C86.3823 29.1429 85.8499 29.7822 85.5318 30.5411C85.2137 31.3021 85.0524 32.0454 85.0524 32.7711V45.4587V45.4631Z" fill="#000100"/>
<path d="M142.295 17.5459C144.362 17.5459 146.227 17.9574 147.888 18.7848C149.549 19.6122 150.868 20.8998 151.847 22.6497C152.825 24.4019 153.316 26.6651 153.316 29.4393V45.4653H140.547V31.1915C140.547 30.0256 140.348 28.9681 139.953 28.0212C139.558 27.0743 138.667 26.6009 137.28 26.6009C136.357 26.6009 135.608 26.8266 135.036 27.2779C134.463 27.7292 134.05 28.3022 133.798 28.9968C133.544 29.6893 133.418 30.4238 133.418 31.1937V45.4675H121.573V31.1937C121.573 30.0278 121.392 28.9703 121.03 28.0234C120.668 27.0765 119.782 26.6031 118.374 26.6031C117.451 26.6031 116.698 26.8288 116.115 27.2801C115.531 27.7314 115.107 28.3044 114.844 28.9991C114.581 29.6915 114.449 30.426 114.449 31.1959V45.4697H101.581V18.3445H114.449V22.0103C114.734 21.329 115.357 20.6454 116.313 19.9617C117.27 19.2781 118.425 18.7052 119.777 18.2428C121.129 17.7804 122.521 17.5503 123.95 17.5503C125.534 17.5503 126.86 17.7207 127.927 18.0614C128.994 18.4021 129.891 18.9109 130.615 19.5812C131.342 20.2538 131.978 21.0745 132.528 22.0435C132.813 21.3599 133.429 20.6719 134.375 19.9772C135.32 19.2848 136.487 18.7052 137.872 18.2428C139.257 17.7804 140.731 17.5503 142.292 17.5503L142.295 17.5459Z" fill="#000100"/>
<path d="M170.536 45.4631H157.537V0H170.536V45.4631Z" fill="#000100"/>
<path d="M182.907 46.2573C180.971 46.2573 179.31 45.5626 177.925 44.1755C176.54 42.7884 175.846 41.1247 175.846 39.1867C175.846 37.2488 176.54 35.5519 177.925 34.1648C179.31 32.7777 180.971 32.083 182.907 32.083C184.842 32.083 186.536 32.7755 187.921 34.1648C189.306 35.5519 190 37.2266 190 39.1867C190 41.1469 189.309 42.7884 187.921 44.1755C186.536 45.5626 184.864 46.2573 182.907 46.2573Z" fill="#000100"/>
<path d="M70.1079 64.332C70.1852 64.332 70.2537 64.3585 70.3111 64.4138C70.3686 64.4691 70.3973 64.5355 70.3973 64.6129C70.3973 64.697 70.3686 64.7656 70.3111 64.8209C70.2537 64.8762 70.1852 64.9027 70.1079 64.9027H66.6595C66.5756 64.9027 66.5071 64.874 66.4519 64.8165C66.3966 64.759 66.3701 64.6904 66.3701 64.6129V58.4207C66.3701 58.3432 66.3988 58.2747 66.4563 58.2171C66.5137 58.1596 66.5888 58.1309 66.6794 58.1309C66.7567 58.1309 66.8252 58.1596 66.887 58.2171C66.9489 58.2747 66.9798 58.3432 66.9798 58.4207V64.4979L66.7965 64.3342H70.1101L70.1079 64.332Z" fill="#000100"/>
<path d="M73.596 65.0002C73.099 65.0002 72.6616 64.894 72.2816 64.6816C71.9016 64.4692 71.6056 64.1728 71.3935 63.7922C71.1815 63.4117 71.0754 62.967 71.0754 62.456C71.0754 61.9074 71.1837 61.4406 71.4002 61.0534C71.6167 60.6662 71.8972 60.3676 72.2418 60.1574C72.5865 59.9472 72.951 59.8433 73.3376 59.8433C73.6203 59.8433 73.8965 59.8941 74.1638 59.9937C74.4311 60.0933 74.6696 60.2415 74.8795 60.4384C75.0894 60.6353 75.2573 60.8764 75.381 61.1596C75.5047 61.4428 75.5754 61.7724 75.5886 62.1463C75.582 62.2237 75.5511 62.2901 75.4914 62.3454C75.434 62.4007 75.3655 62.4272 75.2882 62.4272H71.4134L71.2963 61.9051H75.1026L74.9767 62.0224V61.8277C74.9502 61.5246 74.8552 61.2658 74.6873 61.0534C74.5194 60.841 74.3162 60.6795 74.0798 60.5689C73.8434 60.4583 73.5938 60.4052 73.3353 60.4052C73.1432 60.4052 72.9443 60.4428 72.7411 60.5224C72.5379 60.5999 72.3545 60.7215 72.191 60.8853C72.0276 61.049 71.8928 61.2591 71.789 61.5136C71.6852 61.768 71.6343 62.0711 71.6343 62.4184C71.6343 62.7989 71.7117 63.144 71.8663 63.4538C72.0209 63.7635 72.2441 64.0091 72.5379 64.1883C72.8317 64.3697 73.1807 64.4581 73.5872 64.4581C73.8125 64.4581 74.0157 64.425 74.1947 64.3608C74.3758 64.2967 74.5327 64.2104 74.6674 64.1042C74.8022 63.998 74.9149 63.8874 75.0054 63.7701C75.0761 63.7126 75.1468 63.6838 75.2175 63.6838C75.2816 63.6838 75.339 63.7104 75.3876 63.7613C75.4362 63.8122 75.4605 63.8719 75.4605 63.936C75.4605 64.0135 75.4274 64.0821 75.3633 64.1396C75.1689 64.3719 74.9193 64.5732 74.61 64.7435C74.3007 64.9139 73.9627 65.0002 73.596 65.0002Z" fill="#000100"/>
<path d="M76.5032 59.9783H78.7543C78.8316 59.9783 78.8957 60.0048 78.9465 60.0601C78.9973 60.1154 79.0238 60.1818 79.0238 60.2592C79.0238 60.33 78.9973 60.392 78.9465 60.4429C78.8957 60.4937 78.8316 60.5203 78.7543 60.5203H76.5032C76.4259 60.5203 76.3596 60.4937 76.3044 60.4384C76.2492 60.3831 76.2227 60.3212 76.2227 60.2504C76.2227 60.173 76.2492 60.1088 76.3044 60.0557C76.3596 60.0048 76.4259 59.9783 76.5032 59.9783ZM77.4973 58.6133C77.5812 58.6133 77.6497 58.642 77.705 58.6996C77.7602 58.7571 77.7867 58.8257 77.7867 58.9031V63.7613C77.7867 63.9427 77.811 64.0777 77.8596 64.1684C77.9082 64.2591 77.97 64.3188 78.0474 64.3476C78.1247 64.3764 78.202 64.3918 78.2793 64.3918C78.3301 64.3918 78.3787 64.383 78.4185 64.3675C78.4605 64.352 78.5069 64.3432 78.5577 64.3432C78.6151 64.3432 78.6659 64.3653 78.7079 64.4118C78.7499 64.456 78.7697 64.5157 78.7697 64.5865C78.7697 64.6772 78.7189 64.7525 78.6151 64.8144C78.5113 64.8763 78.3898 64.9073 78.2484 64.9073C78.191 64.9073 78.1026 64.9029 77.9877 64.8918C77.8728 64.8808 77.7514 64.8476 77.6298 64.7856C77.5083 64.7237 77.4067 64.6153 77.325 64.4626C77.2455 64.3078 77.2035 64.0843 77.2035 63.7945V58.9075C77.2035 58.8301 77.23 58.7615 77.2852 58.704C77.3405 58.6465 77.4089 58.6177 77.4929 58.6177L77.4973 58.6133Z" fill="#000100"/>
<path d="M80.7734 58.7589C80.7734 58.9337 80.7226 59.1018 80.6188 59.2677C80.5149 59.4314 80.3912 59.5686 80.2476 59.6748C80.1018 59.781 79.956 59.8341 79.808 59.8341C79.7572 59.8341 79.7086 59.8186 79.6622 59.7854C79.618 59.7522 79.5938 59.6947 79.5938 59.6106C79.5938 59.5199 79.6225 59.469 79.6799 59.4558C79.7373 59.4425 79.8147 59.4137 79.9119 59.3695C80.0157 59.312 80.0952 59.2434 80.1527 59.166C80.2101 59.0885 80.2388 58.9978 80.2388 58.8961C80.2388 58.812 80.2145 58.7478 80.1659 58.7014C80.1173 58.6549 80.0621 58.6328 79.9958 58.6328C79.9516 58.6328 79.9052 58.6416 79.8611 58.6571C79.8147 58.6726 79.7771 58.6947 79.744 58.7191C79.7042 58.6859 79.6755 58.6505 79.6512 58.6085C79.6291 58.5664 79.6181 58.5155 79.6181 58.458C79.6313 58.3474 79.691 58.2545 79.8014 58.177C79.9119 58.0996 80.0334 58.062 80.1681 58.062C80.3426 58.062 80.4862 58.1306 80.5989 58.27C80.7116 58.4093 80.7668 58.5708 80.7668 58.7589H80.7734Z" fill="#000100"/>
<path d="M81.6924 64.1197C81.6416 64.0423 81.6173 63.967 81.6195 63.8918C81.6217 63.8188 81.6637 63.7569 81.741 63.7126C81.7918 63.6684 81.8515 63.6485 81.92 63.6551C81.9884 63.6617 82.0503 63.6927 82.1077 63.7525C82.2823 63.9781 82.4921 64.1595 82.7395 64.2989C82.987 64.4383 83.283 64.5068 83.6232 64.5068C83.8043 64.5068 83.9833 64.4759 84.16 64.4139C84.3367 64.352 84.4825 64.2591 84.5996 64.133C84.7167 64.0069 84.7741 63.8476 84.7741 63.6551C84.7741 63.4626 84.7167 63.2945 84.5996 63.1706C84.4825 63.0489 84.3345 62.9516 84.1511 62.8808C83.9678 62.81 83.7734 62.7481 83.5657 62.6972C83.347 62.6397 83.135 62.5733 82.9273 62.4981C82.7219 62.4251 82.5385 62.3299 82.3817 62.2171C82.2248 62.1043 82.0967 61.9671 81.9995 61.8056C81.9023 61.6441 81.8537 61.4472 81.8537 61.2149C81.8537 60.945 81.9288 60.7061 82.0768 60.4981C82.2248 60.2924 82.4258 60.1309 82.6799 60.0136C82.9339 59.8964 83.2233 59.8389 83.5436 59.8389C83.7049 59.8389 83.8794 59.8588 84.065 59.9008C84.2506 59.9428 84.4361 60.0114 84.6151 60.1088C84.7962 60.2061 84.9553 60.3388 85.0989 60.5048C85.1563 60.5623 85.185 60.6287 85.185 60.7039C85.185 60.7791 85.1519 60.8433 85.0878 60.903C85.037 60.9406 84.9773 60.9605 84.9089 60.9605C84.8404 60.9605 84.7852 60.934 84.7388 60.8831C84.5841 60.7083 84.4008 60.5778 84.1887 60.4871C83.9766 60.3964 83.7469 60.3521 83.5017 60.3521C83.3139 60.3521 83.1394 60.3831 82.9759 60.445C82.8124 60.507 82.6755 60.5977 82.565 60.7216C82.4546 60.8433 82.4015 61.0048 82.4015 61.2061C82.4148 61.3941 82.4811 61.5446 82.6004 61.6596C82.7197 61.7768 82.8765 61.872 83.0731 61.9494C83.2697 62.0268 83.4906 62.0976 83.7358 62.1618C83.9413 62.2127 84.1401 62.2746 84.3301 62.3454C84.5201 62.4162 84.688 62.5047 84.8338 62.6109C84.9796 62.7171 85.0944 62.852 85.1806 63.0135C85.2667 63.175 85.3109 63.3786 85.3109 63.6219C85.3109 63.9051 85.2314 64.1507 85.0745 64.3564C84.9177 64.5622 84.7056 64.7214 84.4427 64.8298C84.1777 64.9405 83.8861 64.9936 83.5635 64.9936C83.2167 64.9936 82.8787 64.925 82.554 64.79C82.2292 64.6551 81.9398 64.4294 81.6902 64.1131L81.6924 64.1197Z" fill="#000100"/>
<path d="M92.3204 65C91.8233 65 91.3638 64.9137 90.9397 64.739C90.5155 64.5642 90.1466 64.3208 89.8329 64.0089C89.5192 63.697 89.2762 63.3275 89.1039 62.9005C88.9294 62.4758 88.8433 62.0134 88.8433 61.5178C88.8433 61.0223 88.9294 60.5599 89.1039 60.1351C89.2785 59.7104 89.5215 59.3409 89.8329 59.0268C90.1444 58.7126 90.5133 58.4715 90.9397 58.2967C91.3638 58.1219 91.8255 58.0356 92.3204 58.0356C92.6606 58.0356 92.9919 58.0755 93.3101 58.1573C93.6282 58.2392 93.9131 58.3586 94.165 58.5201C94.2092 58.5533 94.2445 58.5887 94.2666 58.6308C94.2887 58.6728 94.2997 58.717 94.2997 58.7613C94.2997 58.852 94.271 58.925 94.2136 58.9781C94.1561 59.0334 94.0943 59.0599 94.0302 59.0599C93.9971 59.0599 93.9684 59.0555 93.9374 59.0445C93.9087 59.0356 93.88 59.0245 93.8557 59.0113C93.637 58.8896 93.3984 58.7923 93.14 58.7215C92.8815 58.6507 92.6076 58.6153 92.3182 58.6153C91.7637 58.6153 91.2711 58.7414 90.8403 58.9936C90.4095 59.2458 90.0715 59.5909 89.8263 60.0289C89.5811 60.467 89.4596 60.9647 89.4596 61.52C89.4596 62.0753 89.5811 62.5709 89.8263 63.0111C90.0715 63.4492 90.4095 63.7943 90.8403 64.0465C91.2711 64.2987 91.7637 64.4248 92.3182 64.4248C92.6076 64.4248 92.8992 64.3828 93.193 64.2987C93.4868 64.2146 93.7386 64.1018 93.9507 63.9602L93.9021 64.1638V61.9382L94.0479 62.0731H92.3756C92.2917 62.0731 92.221 62.0444 92.1635 61.9868C92.1061 61.9293 92.0774 61.8607 92.0774 61.7833C92.0774 61.6926 92.1061 61.6218 92.1635 61.5709C92.221 61.52 92.2917 61.4935 92.3756 61.4935H94.2202C94.3041 61.4935 94.3726 61.52 94.4279 61.5753C94.4831 61.6307 94.5096 61.6992 94.5096 61.7833V64.1151C94.5096 64.166 94.4963 64.2146 94.472 64.2611C94.4455 64.3076 94.4102 64.3452 94.366 64.3784C94.0832 64.5708 93.7651 64.7257 93.4139 64.8385C93.0626 64.9513 92.6981 65.0089 92.3182 65.0089L92.3204 65Z" fill="#000100"/>
<path d="M100.454 62.4248C100.454 62.9159 100.348 63.3562 100.136 63.7456C99.9241 64.1349 99.6347 64.4424 99.2658 64.6659C98.8969 64.8893 98.4794 64.9999 98.0088 64.9999C97.5383 64.9999 97.1362 64.8893 96.7673 64.6659C96.3962 64.4424 96.1046 64.1371 95.8881 63.7456C95.6716 63.3562 95.5656 62.9159 95.5656 62.4248C95.5656 61.9337 95.6738 61.4868 95.8881 61.0996C96.1046 60.7125 96.3962 60.4072 96.7673 60.1793C97.1384 59.9536 97.5515 59.8408 98.0088 59.8408C98.4661 59.8408 98.8969 59.9536 99.2658 60.1793C99.6325 60.405 99.9219 60.7125 100.136 61.0996C100.348 61.4868 100.454 61.9293 100.454 62.4248ZM99.8755 62.4248C99.8755 62.031 99.796 61.6815 99.6347 61.374C99.4734 61.0687 99.2525 60.8253 98.972 60.6483C98.6914 60.4713 98.3711 60.3828 98.011 60.3828C97.6509 60.3828 97.3483 60.4713 97.0633 60.6483C96.7806 60.8253 96.5552 61.0687 96.3918 61.374C96.2283 61.6815 96.1443 62.031 96.1443 62.4248C96.1443 62.8186 96.2261 63.1659 96.3918 63.469C96.5552 63.7721 96.7806 64.0132 97.0633 64.1902C97.3461 64.3672 97.662 64.4557 98.011 64.4557C98.3601 64.4557 98.6914 64.3672 98.972 64.1902C99.2525 64.0132 99.4734 63.7721 99.6347 63.469C99.796 63.1659 99.8755 62.8164 99.8755 62.4248Z" fill="#000100"/>
<path d="M109.364 58.1196C109.454 58.1196 109.527 58.1462 109.58 58.1971C109.633 58.2479 109.662 58.3121 109.662 58.3917C109.662 58.436 109.653 58.4847 109.633 58.5378L107.053 64.7101C107.02 64.7743 106.978 64.8229 106.927 64.8561C106.876 64.8893 106.823 64.9048 106.772 64.9048C106.715 64.9048 106.66 64.8893 106.609 64.8561C106.558 64.8229 106.523 64.7787 106.503 64.7212L103.934 58.5577C103.927 58.5378 103.92 58.5156 103.914 58.4891C103.907 58.4625 103.905 58.4338 103.905 58.4028C103.905 58.3187 103.936 58.2524 103.998 58.1993C104.06 58.1484 104.121 58.1218 104.185 58.1218C104.32 58.1218 104.417 58.1926 104.475 58.3342L106.892 64.1194H106.717L109.094 58.3143C109.158 58.186 109.249 58.1218 109.364 58.1218V58.1196Z" fill="#000100"/>
<path d="M111.025 59.2238C110.89 59.2238 110.788 59.1928 110.72 59.1309C110.654 59.0689 110.618 58.9804 110.618 58.8654V58.7681C110.618 58.653 110.656 58.5645 110.729 58.5026C110.802 58.4406 110.903 58.4097 111.034 58.4097C111.164 58.4097 111.25 58.4406 111.319 58.5026C111.387 58.5645 111.42 58.653 111.42 58.7681V58.8654C111.42 58.9827 111.387 59.0712 111.319 59.1309C111.25 59.1906 111.153 59.2238 111.025 59.2238ZM111.314 64.613C111.314 64.6904 111.285 64.759 111.228 64.8165C111.171 64.8741 111.102 64.9028 111.025 64.9028C110.941 64.9028 110.872 64.8741 110.817 64.8165C110.762 64.759 110.735 64.6904 110.735 64.613V60.1618C110.735 60.0844 110.762 60.0158 110.817 59.9583C110.872 59.9008 110.941 59.872 111.025 59.872C111.109 59.872 111.177 59.9008 111.232 59.9583C111.288 60.0158 111.314 60.0844 111.314 60.1618V64.613Z" fill="#000100"/>
<path d="M113.112 64.9026C113.022 64.9026 112.951 64.8738 112.9 64.8163C112.85 64.7588 112.823 64.6902 112.823 64.6128V60.2789C112.823 60.2014 112.85 60.1328 112.905 60.0753C112.96 60.0178 113.028 59.989 113.112 59.989C113.196 59.989 113.265 60.0178 113.32 60.0753C113.375 60.1328 113.402 60.2014 113.402 60.2789V61.7301L113.258 61.7589C113.278 61.5332 113.333 61.3098 113.426 61.0864C113.519 60.8629 113.647 60.6594 113.808 60.4713C113.97 60.2833 114.162 60.1328 114.383 60.0156C114.606 59.8983 114.855 59.8408 115.132 59.8408C115.249 59.8408 115.361 59.8652 115.469 59.9138C115.578 59.9625 115.633 60.0421 115.633 60.1505C115.633 60.2479 115.606 60.3209 115.556 60.374C115.505 60.4249 115.443 60.4514 115.372 60.4514C115.315 60.4514 115.251 60.4359 115.185 60.4028C115.116 60.3696 115.028 60.3541 114.919 60.3541C114.738 60.3541 114.559 60.4072 114.378 60.5134C114.197 60.6196 114.034 60.7634 113.886 60.9448C113.738 61.1262 113.62 61.3275 113.532 61.5487C113.446 61.7722 113.402 61.9956 113.402 62.2213V64.6106C113.402 64.688 113.373 64.7566 113.316 64.8141C113.258 64.8716 113.19 64.9004 113.112 64.9004V64.9026Z" fill="#000100"/>
<path d="M120.473 59.9581C120.557 59.9581 120.625 59.9868 120.681 60.0444C120.736 60.1019 120.762 60.1727 120.762 60.2567V64.6106C120.762 64.688 120.734 64.7566 120.676 64.8141C120.619 64.8716 120.55 64.9004 120.473 64.9004C120.389 64.9004 120.321 64.8716 120.265 64.8141C120.21 64.7566 120.184 64.688 120.184 64.6106V63.4602L120.347 63.3827C120.347 63.5641 120.296 63.7478 120.197 63.9336C120.098 64.1216 119.961 64.2942 119.786 64.4557C119.612 64.6172 119.408 64.7477 119.172 64.8473C118.938 64.9468 118.684 64.9977 118.414 64.9977C117.977 64.9977 117.586 64.8849 117.241 64.6592C116.897 64.4336 116.625 64.1239 116.43 63.7301C116.234 63.3363 116.137 62.8938 116.137 62.4049C116.137 61.916 116.236 61.458 116.437 61.0753C116.636 60.6926 116.908 60.3895 117.248 60.1705C117.588 59.9514 117.975 59.8408 118.408 59.8408C118.684 59.8408 118.944 59.8895 119.185 59.9868C119.426 60.0842 119.638 60.2169 119.817 60.3828C119.996 60.5488 120.137 60.7412 120.237 60.958C120.336 61.1748 120.387 61.3983 120.387 61.6306L120.184 61.4846V60.2567C120.184 60.1727 120.21 60.1019 120.265 60.0444C120.321 59.9868 120.389 59.9581 120.473 59.9581ZM118.465 64.4579C118.805 64.4579 119.11 64.3694 119.373 64.1924C119.638 64.0155 119.846 63.7699 119.996 63.458C120.146 63.146 120.223 62.7943 120.223 62.4071C120.223 62.02 120.148 61.6837 119.996 61.3806C119.843 61.0775 119.636 60.8364 119.373 60.655C119.11 60.4735 118.805 60.3851 118.465 60.3851C118.125 60.3851 117.829 60.4713 117.561 60.6461C117.294 60.8209 117.084 61.0598 116.934 61.3629C116.782 61.666 116.707 62.0155 116.707 62.4071C116.707 62.7987 116.782 63.1438 116.934 63.458C117.087 63.7721 117.292 64.0155 117.557 64.1924C117.822 64.3694 118.125 64.4579 118.465 64.4579Z" fill="#000100"/>
<path d="M122.919 64.6129C122.919 64.6903 122.89 64.7589 122.832 64.8164C122.775 64.8739 122.707 64.9027 122.629 64.9027C122.545 64.9027 122.477 64.8739 122.422 64.8164C122.366 64.7589 122.34 64.6903 122.34 64.6129V58.0335C122.34 57.956 122.369 57.8874 122.426 57.8299C122.483 57.7724 122.552 57.7437 122.629 57.7437C122.713 57.7437 122.782 57.7724 122.837 57.8299C122.892 57.8874 122.919 57.956 122.919 58.0335V64.6129Z" fill="#000100"/>
</g>
<defs>
<clipPath id="clip0_42_8432">
<rect width="190" height="65" fill="white"/>
</clipPath>
</defs>
</svg>
