<svg width="190" height="65" viewBox="0 0 190 65" fill="none" xmlns="http://www.w3.org/2000/svg">
<g clip-path="url(#clip0_41_3867)">
<path d="M21.7419 17.5458C23.7434 17.5458 25.6852 17.9374 27.5651 18.7184C29.4451 19.4993 30.9958 20.7448 32.2175 22.4528C33.4391 24.1607 34.0488 26.4017 34.0488 29.176V45.4652H21.0505V31.1914C21.0505 29.7821 20.7037 28.6649 20.0122 27.8375C19.3186 27.0101 18.3907 26.5986 17.2243 26.5986C16.4534 26.5986 15.7442 26.7867 15.097 27.1606C14.4475 27.5366 13.9372 28.0654 13.5639 28.7468C13.1905 29.4304 13.0027 30.2445 13.0027 31.1914V45.4652H0V18.3401H12.9983V21.7426C13.2833 21.0369 13.8444 20.3665 14.6817 19.7272C15.5167 19.09 16.5506 18.5657 17.7832 18.1586C19.0159 17.7516 20.3347 17.5481 21.7419 17.5481V17.5458Z" fill="white"/>
<path d="M53.3806 46.2573C50.3011 46.2573 47.5619 45.6555 45.165 44.4565C42.7681 43.2552 40.886 41.5827 39.523 39.4323C38.1599 37.2841 37.4773 34.8019 37.4773 31.9812C37.4773 29.1605 38.1599 26.6672 39.523 24.497C40.886 22.3267 42.7681 20.6254 45.165 19.3909C47.5619 18.1587 50.3011 17.5414 53.3806 17.5414C56.4601 17.5414 59.1751 18.1587 61.53 19.3909C63.8827 20.6254 65.725 22.3267 67.0549 24.497C68.3848 26.6672 69.0519 29.1605 69.0519 31.9812C69.0519 34.8019 68.387 37.2841 67.0549 39.4323C65.725 41.5804 63.8827 43.2552 61.53 44.4565C59.1751 45.6555 56.4601 46.2573 53.3806 46.2573ZM53.3806 35.6846C54.1074 35.6846 54.7215 35.5364 55.2274 35.2377C55.7333 34.9413 56.1243 34.5055 56.3982 33.9325C56.6722 33.3595 56.8113 32.6892 56.8113 31.9171C56.8113 31.145 56.6744 30.4746 56.3982 29.9016C56.1221 29.3287 55.7333 28.8884 55.2274 28.5809C54.7215 28.2734 54.1052 28.1185 53.3806 28.1185C52.656 28.1185 52.0331 28.2734 51.5161 28.5809C50.9992 28.8906 50.5972 29.3309 50.3122 29.9016C50.0272 30.4746 49.8836 31.1472 49.8836 31.9171C49.8836 32.6869 50.0272 33.3595 50.3122 33.9325C50.5972 34.5055 50.9992 34.9413 51.5161 35.2377C52.0331 35.5342 52.6538 35.6846 53.3806 35.6846Z" fill="white"/>
<path d="M85.0524 45.4631H72.0541V18.3379H85.0524V22.2028H84.8867C85.1275 21.7183 85.5848 21.1121 86.2564 20.3843C86.928 19.6586 87.8734 19.0016 89.0951 18.4175C90.3167 17.8357 91.8498 17.5414 93.6966 17.5414C94.9271 17.5414 96.1045 17.745 97.2268 18.152C98.349 18.5591 99.184 18.9617 99.7341 19.3578L94.7526 29.864C94.4654 29.4238 93.9286 28.9769 93.1355 28.5256C92.3447 28.0743 91.355 27.8486 90.1665 27.8486C88.8896 27.8486 87.8779 28.1075 87.1312 28.6251C86.3823 29.1428 85.8499 29.7822 85.5318 30.541C85.2137 31.302 85.0524 32.0454 85.0524 32.771V45.4586V45.4631Z" fill="white"/>
<path d="M142.295 17.5458C144.362 17.5458 146.227 17.9573 147.888 18.7847C149.549 19.6121 150.868 20.8997 151.847 22.6496C152.825 24.4018 153.316 26.665 153.316 29.4392V45.4652H140.547V31.1914C140.547 30.0255 140.348 28.968 139.953 28.0211C139.557 27.0743 138.667 26.6008 137.28 26.6008C136.357 26.6008 135.608 26.8265 135.035 27.2778C134.463 27.7291 134.05 28.3021 133.798 28.9968C133.544 29.6892 133.418 30.4237 133.418 31.1936V45.4675H121.573V31.1936C121.573 30.0277 121.392 28.9702 121.03 28.0234C120.668 27.0765 119.782 26.6031 118.374 26.6031C117.451 26.6031 116.698 26.8287 116.115 27.28C115.531 27.7313 115.107 28.3043 114.844 28.999C114.581 29.6914 114.449 30.4259 114.449 31.1958V45.4697H101.581V18.3445H114.449V22.0103C114.734 21.3289 115.357 20.6453 116.313 19.9617C117.27 19.2781 118.425 18.7051 119.777 18.2427C121.129 17.7803 122.521 17.5503 123.95 17.5503C125.534 17.5503 126.86 17.7206 127.927 18.0613C128.994 18.402 129.89 18.9108 130.615 19.5812C131.342 20.2537 131.978 21.0745 132.528 22.0435C132.813 21.3599 133.429 20.6718 134.375 19.9772C135.32 19.2847 136.487 18.7051 137.872 18.2427C139.257 17.7803 140.731 17.5503 142.292 17.5503L142.295 17.5458Z" fill="white"/>
<path d="M170.536 45.4631H157.537V0H170.536V45.4631Z" fill="white"/>
<path d="M182.907 46.2573C180.971 46.2573 179.31 45.5626 177.925 44.1755C176.54 42.7884 175.846 41.1247 175.846 39.1867C175.846 37.2488 176.54 35.5519 177.925 34.1648C179.31 32.7777 180.971 32.083 182.907 32.083C184.842 32.083 186.536 32.7755 187.921 34.1648C189.306 35.5519 190 37.2266 190 39.1867C190 41.1469 189.309 42.7884 187.921 44.1755C186.536 45.5626 184.864 46.2573 182.907 46.2573Z" fill="white"/>
<path d="M70.1079 64.3319C70.1852 64.3319 70.2537 64.3584 70.3111 64.4137C70.3686 64.469 70.3973 64.5354 70.3973 64.6128C70.3973 64.6969 70.3686 64.7655 70.3111 64.8208C70.2537 64.8761 70.1852 64.9026 70.1079 64.9026H66.6595C66.5756 64.9026 66.5071 64.8739 66.4519 64.8164C66.3966 64.7588 66.3701 64.6902 66.3701 64.6128V58.4205C66.3701 58.3431 66.3988 58.2745 66.4563 58.217C66.5137 58.1595 66.5888 58.1307 66.6794 58.1307C66.7567 58.1307 66.8252 58.1595 66.887 58.217C66.9489 58.2745 66.9798 58.3431 66.9798 58.4205V64.4978L66.7965 64.3341H70.1101L70.1079 64.3319Z" fill="white"/>
<path d="M73.5961 65C73.099 65 72.6616 64.8938 72.2817 64.6814C71.9017 64.469 71.6057 64.1726 71.3936 63.7921C71.1815 63.4115 71.0755 62.9669 71.0755 62.4558C71.0755 61.9072 71.1837 61.4404 71.4002 61.0532C71.6167 60.6661 71.8973 60.3674 72.2419 60.1572C72.5865 59.9471 72.951 59.8431 73.3376 59.8431C73.6204 59.8431 73.8965 59.894 74.1638 59.9935C74.4311 60.0931 74.6697 60.2413 74.8796 60.4382C75.0894 60.6351 75.2573 60.8762 75.381 61.1594C75.5047 61.4426 75.5754 61.7722 75.5887 62.1461C75.5821 62.2235 75.5511 62.2899 75.4915 62.3452C75.4341 62.4005 75.3656 62.4271 75.2882 62.4271H71.4135L71.2964 61.905H75.1027L74.9768 62.0222V61.8275C74.9503 61.5244 74.8553 61.2656 74.6874 61.0532C74.5195 60.8408 74.3162 60.6793 74.0799 60.5687C73.8435 60.4581 73.5939 60.405 73.3354 60.405C73.1432 60.405 72.9444 60.4426 72.7412 60.5223C72.5379 60.5997 72.3546 60.7214 72.1911 60.8851C72.0276 61.0488 71.8929 61.259 71.789 61.5134C71.6852 61.7678 71.6344 62.0709 71.6344 62.4182C71.6344 62.7987 71.7117 63.1439 71.8664 63.4536C72.021 63.7633 72.2441 64.0089 72.5379 64.1881C72.8317 64.3695 73.1808 64.458 73.5872 64.458C73.8126 64.458 74.0158 64.4248 74.1947 64.3606C74.3759 64.2965 74.5327 64.2102 74.6675 64.104C74.8022 63.9978 74.9149 63.8872 75.0055 63.7699C75.0762 63.7124 75.1469 63.6837 75.2176 63.6837C75.2816 63.6837 75.3391 63.7102 75.3877 63.7611C75.4363 63.812 75.4606 63.8717 75.4606 63.9359C75.4606 64.0133 75.4274 64.0819 75.3634 64.1394C75.169 64.3717 74.9193 64.573 74.6101 64.7434C74.3008 64.9137 73.9628 65 73.5961 65Z" fill="white"/>
<path d="M76.5032 59.978H78.7543C78.8316 59.978 78.8957 60.0046 78.9465 60.0599C78.9973 60.1152 79.0238 60.1816 79.0238 60.259C79.0238 60.3298 78.9973 60.3917 78.9465 60.4426C78.8957 60.4935 78.8316 60.5201 78.7543 60.5201H76.5032C76.4259 60.5201 76.3596 60.4935 76.3044 60.4382C76.2492 60.3829 76.2227 60.3209 76.2227 60.2501C76.2227 60.1727 76.2492 60.1086 76.3044 60.0555C76.3596 60.0046 76.4259 59.978 76.5032 59.978ZM77.4973 58.613C77.5813 58.613 77.6498 58.6418 77.705 58.6993C77.7602 58.7568 77.7867 58.8254 77.7867 58.9028V63.7611C77.7867 63.9425 77.811 64.0774 77.8596 64.1682C77.9082 64.2589 77.9701 64.3186 78.0474 64.3474C78.1247 64.3761 78.202 64.3916 78.2794 64.3916C78.3302 64.3916 78.3788 64.3828 78.4185 64.3673C78.4605 64.3518 78.5069 64.3429 78.5577 64.3429C78.6151 64.3429 78.6659 64.3651 78.7079 64.4115C78.7499 64.4558 78.7698 64.5155 78.7698 64.5863C78.7698 64.677 78.719 64.7522 78.6151 64.8142C78.5113 64.8761 78.3898 64.9071 78.2484 64.9071C78.191 64.9071 78.1026 64.9026 77.9878 64.8916C77.8729 64.8805 77.7514 64.8473 77.6299 64.7854C77.5084 64.7234 77.4068 64.615 77.325 64.4624C77.2455 64.3075 77.2035 64.0841 77.2035 63.7943V58.9073C77.2035 58.8298 77.23 58.7613 77.2853 58.7037C77.3405 58.6462 77.409 58.6175 77.4929 58.6175L77.4973 58.613Z" fill="white"/>
<path d="M80.7734 58.759C80.7734 58.9338 80.7226 59.1019 80.6188 59.2678C80.5149 59.4316 80.3912 59.5687 80.2476 59.6749C80.1018 59.7811 79.956 59.8342 79.808 59.8342C79.7572 59.8342 79.7086 59.8187 79.6622 59.7855C79.618 59.7523 79.5938 59.6948 79.5938 59.6108C79.5938 59.52 79.6225 59.4692 79.6799 59.4559C79.7373 59.4426 79.8147 59.4139 79.9119 59.3696C80.0157 59.3121 80.0952 59.2435 80.1527 59.1661C80.2101 59.0886 80.2388 58.9979 80.2388 58.8962C80.2388 58.8121 80.2145 58.7479 80.1659 58.7015C80.1173 58.655 80.0621 58.6329 79.9958 58.6329C79.9516 58.6329 79.9052 58.6418 79.8611 58.6572C79.8147 58.6727 79.7771 58.6949 79.744 58.7192C79.7042 58.686 79.6755 58.6506 79.6512 58.6086C79.6291 58.5665 79.6181 58.5157 79.6181 58.4581C79.6313 58.3475 79.691 58.2546 79.8014 58.1772C79.9119 58.0997 80.0334 58.0621 80.1681 58.0621C80.3426 58.0621 80.4862 58.1307 80.5989 58.2701C80.7116 58.4095 80.7668 58.571 80.7668 58.759H80.7734Z" fill="white"/>
<path d="M81.6924 64.1194C81.6416 64.042 81.6173 63.9668 81.6195 63.8916C81.6217 63.8186 81.6637 63.7566 81.741 63.7124C81.7918 63.6681 81.8515 63.6482 81.92 63.6549C81.9884 63.6615 82.0503 63.6925 82.1077 63.7522C82.2823 63.9779 82.4921 64.1593 82.7395 64.2986C82.987 64.438 83.283 64.5066 83.6232 64.5066C83.8043 64.5066 83.9833 64.4756 84.16 64.4137C84.3367 64.3517 84.4825 64.2588 84.5996 64.1327C84.7167 64.0066 84.7741 63.8473 84.7741 63.6549C84.7741 63.4624 84.7167 63.2943 84.5996 63.1704C84.4825 63.0487 84.3345 62.9513 84.1511 62.8806C83.9678 62.8098 83.7734 62.7478 83.5657 62.6969C83.347 62.6394 83.135 62.573 82.9273 62.4978C82.7219 62.4248 82.5385 62.3297 82.3817 62.2169C82.2248 62.104 82.0967 61.9669 81.9995 61.8054C81.9023 61.6439 81.8537 61.447 81.8537 61.2147C81.8537 60.9448 81.9288 60.7058 82.0768 60.4979C82.2248 60.2921 82.4258 60.1306 82.6799 60.0134C82.9339 59.8961 83.2233 59.8386 83.5436 59.8386C83.7049 59.8386 83.8794 59.8585 84.065 59.9006C84.2506 59.9426 84.4361 60.0112 84.6151 60.1085C84.7962 60.2059 84.9553 60.3386 85.0989 60.5045C85.1563 60.562 85.185 60.6284 85.185 60.7036C85.185 60.7789 85.1519 60.843 85.0878 60.9027C85.037 60.9404 84.9773 60.9603 84.9089 60.9603C84.8404 60.9603 84.7852 60.9337 84.7388 60.8828C84.5841 60.7081 84.4008 60.5775 84.1887 60.4868C83.9766 60.3961 83.7469 60.3519 83.5017 60.3519C83.3139 60.3519 83.1394 60.3829 82.9759 60.4448C82.8124 60.5067 82.6755 60.5974 82.565 60.7213C82.4546 60.843 82.4015 61.0045 82.4015 61.2058C82.4148 61.3939 82.4811 61.5443 82.6004 61.6594C82.7197 61.7766 82.8765 61.8717 83.0731 61.9492C83.2697 62.0266 83.4906 62.0974 83.7358 62.1616C83.9413 62.2124 84.1401 62.2744 84.3301 62.3452C84.5201 62.416 84.688 62.5045 84.8338 62.6107C84.9796 62.7168 85.0944 62.8518 85.1806 63.0133C85.2667 63.1748 85.3109 63.3783 85.3109 63.6217C85.3109 63.9049 85.2314 64.1504 85.0745 64.3562C84.9177 64.5619 84.7056 64.7212 84.4427 64.8296C84.1777 64.9402 83.8861 64.9933 83.5635 64.9933C83.2167 64.9933 82.8787 64.9247 82.554 64.7898C82.2292 64.6548 81.9398 64.4292 81.6902 64.1128L81.6924 64.1194Z" fill="white"/>
<path d="M92.3204 65C91.8233 65 91.3638 64.9137 90.9397 64.7389C90.5155 64.5641 90.1466 64.3208 89.8329 64.0088C89.5192 63.6969 89.2762 63.3274 89.1039 62.9005C88.9294 62.4757 88.8433 62.0133 88.8433 61.5178C88.8433 61.0222 88.9294 60.5598 89.1039 60.1351C89.2785 59.7103 89.5215 59.3409 89.8329 59.0267C90.1444 58.7126 90.5133 58.4714 90.9397 58.2966C91.3638 58.1219 91.8255 58.0356 92.3204 58.0356C92.6606 58.0356 92.9919 58.0754 93.3101 58.1573C93.6282 58.2391 93.9131 58.3586 94.165 58.5201C94.2092 58.5533 94.2445 58.5887 94.2666 58.6307C94.2887 58.6727 94.2997 58.717 94.2997 58.7612C94.2997 58.8519 94.271 58.9249 94.2136 58.978C94.1561 59.0333 94.0943 59.0599 94.0302 59.0599C93.9971 59.0599 93.9684 59.0555 93.9374 59.0444C93.9087 59.0356 93.88 59.0245 93.8557 59.0112C93.637 58.8895 93.3984 58.7922 93.14 58.7214C92.8815 58.6506 92.6076 58.6152 92.3182 58.6152C91.7637 58.6152 91.2711 58.7413 90.8403 58.9935C90.4095 59.2457 90.0715 59.5908 89.8263 60.0289C89.5811 60.4669 89.4596 60.9647 89.4596 61.52C89.4596 62.0753 89.5811 62.5708 89.8263 63.0111C90.0715 63.4491 90.4095 63.7942 90.8403 64.0464C91.2711 64.2986 91.7637 64.4247 92.3182 64.4247C92.6076 64.4247 92.8992 64.3827 93.193 64.2987C93.4868 64.2146 93.7386 64.1017 93.9507 63.9602L93.9021 64.1637V61.9381L94.0479 62.0731H92.3756C92.2917 62.0731 92.221 62.0443 92.1635 61.9868C92.1061 61.9293 92.0774 61.8607 92.0774 61.7832C92.0774 61.6925 92.1061 61.6217 92.1635 61.5709C92.221 61.52 92.2917 61.4934 92.3756 61.4934H94.2202C94.3041 61.4934 94.3726 61.52 94.4279 61.5753C94.4831 61.6306 94.5096 61.6992 94.5096 61.7832V64.115C94.5096 64.1659 94.4963 64.2146 94.472 64.261C94.4455 64.3075 94.4102 64.3451 94.366 64.3783C94.0832 64.5708 93.7651 64.7256 93.4139 64.8384C93.0626 64.9513 92.6981 65.0088 92.3182 65.0088L92.3204 65Z" fill="white"/>
<path d="M100.454 62.4249C100.454 62.916 100.348 63.3563 100.136 63.7456C99.9241 64.135 99.6347 64.4425 99.2658 64.6659C98.8969 64.8894 98.4794 65 98.0088 65C97.5383 65 97.1362 64.8894 96.7673 64.6659C96.3962 64.4425 96.1046 64.1372 95.8881 63.7456C95.6716 63.3563 95.5656 62.916 95.5656 62.4249C95.5656 61.9337 95.6738 61.4868 95.8881 61.0997C96.1046 60.7125 96.3962 60.4072 96.7673 60.1794C97.1384 59.9537 97.5515 59.8409 98.0088 59.8409C98.4661 59.8409 98.8969 59.9537 99.2658 60.1794C99.6325 60.405 99.9219 60.7125 100.136 61.0997C100.348 61.4868 100.454 61.9293 100.454 62.4249ZM99.8755 62.4249C99.8755 62.0311 99.796 61.6815 99.6347 61.374C99.4734 61.0687 99.2525 60.8254 98.972 60.6484C98.6914 60.4714 98.3711 60.3829 98.011 60.3829C97.6509 60.3829 97.3483 60.4714 97.0633 60.6484C96.7806 60.8254 96.5552 61.0687 96.3918 61.374C96.2283 61.6815 96.1443 62.0311 96.1443 62.4249C96.1443 62.8187 96.2261 63.166 96.3918 63.4691C96.5552 63.7722 96.7806 64.0133 97.0633 64.1903C97.3461 64.3673 97.662 64.4558 98.011 64.4558C98.3601 64.4558 98.6914 64.3673 98.972 64.1903C99.2525 64.0133 99.4734 63.7722 99.6347 63.4691C99.796 63.166 99.8755 62.8164 99.8755 62.4249Z" fill="white"/>
<path d="M109.364 58.1197C109.454 58.1197 109.527 58.1462 109.58 58.1971C109.633 58.248 109.662 58.3122 109.662 58.3918C109.662 58.4361 109.653 58.4847 109.633 58.5378L107.053 64.7102C107.02 64.7743 106.978 64.823 106.927 64.8562C106.876 64.8894 106.823 64.9049 106.772 64.9049C106.715 64.9049 106.66 64.8894 106.609 64.8562C106.558 64.823 106.523 64.7788 106.503 64.7212L103.934 58.5577C103.927 58.5378 103.92 58.5157 103.914 58.4891C103.907 58.4626 103.905 58.4338 103.905 58.4029C103.905 58.3188 103.936 58.2524 103.998 58.1993C104.06 58.1485 104.121 58.1219 104.185 58.1219C104.32 58.1219 104.417 58.1927 104.475 58.3343L106.892 64.1195H106.717L109.094 58.3144C109.158 58.1861 109.249 58.1219 109.364 58.1219V58.1197Z" fill="white"/>
<path d="M111.025 59.2236C110.89 59.2236 110.788 59.1926 110.72 59.1307C110.654 59.0688 110.618 58.9803 110.618 58.8652V58.7679C110.618 58.6528 110.656 58.5643 110.729 58.5024C110.802 58.4405 110.903 58.4095 111.034 58.4095C111.164 58.4095 111.25 58.4405 111.319 58.5024C111.387 58.5643 111.42 58.6528 111.42 58.7679V58.8652C111.42 58.9825 111.387 59.071 111.319 59.1307C111.25 59.1904 111.153 59.2236 111.025 59.2236ZM111.314 64.6128C111.314 64.6902 111.285 64.7588 111.228 64.8164C111.171 64.8739 111.102 64.9026 111.025 64.9026C110.941 64.9026 110.872 64.8739 110.817 64.8164C110.762 64.7588 110.735 64.6902 110.735 64.6128V60.1616C110.735 60.0842 110.762 60.0156 110.817 59.9581C110.872 59.9006 110.941 59.8718 111.025 59.8718C111.109 59.8718 111.177 59.9006 111.232 59.9581C111.288 60.0156 111.314 60.0842 111.314 60.1616V64.6128Z" fill="white"/>
<path d="M113.112 64.9027C113.022 64.9027 112.951 64.8739 112.9 64.8164C112.85 64.7589 112.823 64.6903 112.823 64.6128V60.2789C112.823 60.2015 112.85 60.1329 112.905 60.0754C112.96 60.0179 113.028 59.9891 113.112 59.9891C113.196 59.9891 113.265 60.0179 113.32 60.0754C113.375 60.1329 113.402 60.2015 113.402 60.2789V61.7302L113.258 61.759C113.278 61.5333 113.333 61.3099 113.426 61.0864C113.519 60.863 113.647 60.6594 113.808 60.4714C113.97 60.2833 114.162 60.1329 114.383 60.0157C114.606 59.8984 114.855 59.8409 115.132 59.8409C115.249 59.8409 115.361 59.8652 115.469 59.9139C115.578 59.9626 115.633 60.0422 115.633 60.1506C115.633 60.248 115.606 60.321 115.556 60.374C115.505 60.4249 115.443 60.4515 115.372 60.4515C115.315 60.4515 115.251 60.436 115.185 60.4028C115.116 60.3696 115.028 60.3541 114.919 60.3541C114.738 60.3541 114.559 60.4072 114.378 60.5134C114.197 60.6196 114.034 60.7634 113.886 60.9448C113.738 61.1262 113.62 61.3276 113.532 61.5488C113.446 61.7722 113.402 61.9957 113.402 62.2213V64.6106C113.402 64.6881 113.373 64.7566 113.316 64.8142C113.258 64.8717 113.19 64.9004 113.112 64.9004V64.9027Z" fill="white"/>
<path d="M120.473 59.9581C120.557 59.9581 120.626 59.9869 120.681 60.0444C120.736 60.1019 120.762 60.1727 120.762 60.2568V64.6106C120.762 64.6881 120.734 64.7566 120.676 64.8142C120.619 64.8717 120.55 64.9004 120.473 64.9004C120.389 64.9004 120.321 64.8717 120.265 64.8142C120.21 64.7566 120.184 64.6881 120.184 64.6106V63.4602L120.347 63.3828C120.347 63.5642 120.296 63.7478 120.197 63.9337C120.098 64.1217 119.961 64.2943 119.786 64.4558C119.612 64.6173 119.408 64.7478 119.172 64.8473C118.938 64.9469 118.684 64.9978 118.414 64.9978C117.977 64.9978 117.586 64.885 117.241 64.6593C116.897 64.4336 116.625 64.1239 116.43 63.7301C116.234 63.3363 116.137 62.8939 116.137 62.405C116.137 61.916 116.236 61.4581 116.437 61.0754C116.636 60.6926 116.908 60.3895 117.248 60.1705C117.588 59.9515 117.975 59.8409 118.408 59.8409C118.684 59.8409 118.944 59.8896 119.185 59.9869C119.426 60.0842 119.638 60.217 119.817 60.3829C119.996 60.5488 120.137 60.7413 120.237 60.9581C120.336 61.1749 120.387 61.3983 120.387 61.6306L120.184 61.4846V60.2568C120.184 60.1727 120.21 60.1019 120.265 60.0444C120.321 59.9869 120.389 59.9581 120.473 59.9581ZM118.465 64.458C118.805 64.458 119.11 64.3695 119.373 64.1925C119.638 64.0155 119.846 63.77 119.996 63.458C120.146 63.1461 120.223 62.7943 120.223 62.4072C120.223 62.02 120.148 61.6837 119.996 61.3807C119.843 61.0776 119.636 60.8364 119.373 60.655C119.11 60.4736 118.805 60.3851 118.465 60.3851C118.125 60.3851 117.829 60.4714 117.561 60.6462C117.294 60.8209 117.084 61.0599 116.934 61.363C116.782 61.666 116.707 62.0156 116.707 62.4072C116.707 62.7987 116.782 63.1439 116.934 63.458C117.087 63.7722 117.292 64.0155 117.557 64.1925C117.822 64.3695 118.125 64.458 118.465 64.458Z" fill="white"/>
<path d="M122.919 64.6128C122.919 64.6903 122.89 64.7588 122.832 64.8164C122.775 64.8739 122.706 64.9026 122.629 64.9026C122.545 64.9026 122.477 64.8739 122.422 64.8164C122.366 64.7588 122.34 64.6903 122.34 64.6128V58.0334C122.34 57.956 122.369 57.8874 122.426 57.8299C122.483 57.7723 122.552 57.7436 122.629 57.7436C122.713 57.7436 122.782 57.7723 122.837 57.8299C122.892 57.8874 122.919 57.956 122.919 58.0334V64.6128Z" fill="white"/>
</g>
<defs>
<clipPath id="clip0_41_3867">
<rect width="190" height="65" fill="white"/>
</clipPath>
</defs>
</svg>
