<svg width="190" height="47" viewBox="0 0 190 47" fill="none" xmlns="http://www.w3.org/2000/svg">
<path d="M21.7419 17.5458C23.7434 17.5458 25.6852 17.9374 27.5651 18.7184C29.4451 19.4993 30.9958 20.7448 32.2175 22.4528C33.4391 24.1607 34.0488 26.4017 34.0488 29.176V45.4652H21.0505V31.1914C21.0505 29.7821 20.7037 28.6649 20.0122 27.8375C19.3186 27.0101 18.3907 26.5986 17.2243 26.5986C16.4534 26.5986 15.7442 26.7867 15.097 27.1606C14.4475 27.5366 13.9372 28.0654 13.5639 28.7468C13.1905 29.4304 13.0027 30.2445 13.0027 31.1914V45.4652H0V18.3401H12.9983V21.7426C13.2833 21.0369 13.8444 20.3665 14.6817 19.7272C15.5167 19.09 16.5506 18.5657 17.7832 18.1586C19.0159 17.7516 20.3347 17.5481 21.7419 17.5481V17.5458Z" fill="white"/>
<path d="M53.3806 46.2573C50.3011 46.2573 47.5618 45.6555 45.165 44.4565C42.7681 43.2552 40.8859 41.5827 39.5229 39.4323C38.1599 37.2841 37.4773 34.8019 37.4773 31.9812C37.4773 29.1605 38.1599 26.6672 39.5229 24.497C40.8859 22.3267 42.7681 20.6254 45.165 19.3909C47.5618 18.1587 50.3011 17.5414 53.3806 17.5414C56.4601 17.5414 59.175 18.1587 61.5299 19.3909C63.8826 20.6254 65.725 22.3267 67.0549 24.497C68.3848 26.6672 69.0519 29.1605 69.0519 31.9812C69.0519 34.8019 68.387 37.2841 67.0549 39.4323C65.725 41.5804 63.8826 43.2552 61.5299 44.4565C59.175 45.6555 56.4601 46.2573 53.3806 46.2573ZM53.3806 35.6846C54.1074 35.6846 54.7215 35.5364 55.2274 35.2377C55.7333 34.9413 56.1243 34.5055 56.3982 33.9325C56.6721 33.3595 56.8113 32.6892 56.8113 31.9171C56.8113 31.145 56.6743 30.4746 56.3982 29.9016C56.1221 29.3287 55.7333 28.8884 55.2274 28.5809C54.7215 28.2734 54.1052 28.1185 53.3806 28.1185C52.656 28.1185 52.033 28.2734 51.5161 28.5809C50.9992 28.8906 50.5971 29.3309 50.3121 29.9016C50.0272 30.4746 49.8836 31.1472 49.8836 31.9171C49.8836 32.6869 50.0272 33.3595 50.3121 33.9325C50.5971 34.5055 50.9992 34.9413 51.5161 35.2377C52.033 35.5342 52.6538 35.6846 53.3806 35.6846Z" fill="white"/>
<path d="M85.0524 45.4631H72.0541V18.3379H85.0524V22.2028H84.8867C85.1275 21.7183 85.5848 21.1121 86.2564 20.3843C86.9279 19.6586 87.8734 19.0016 89.095 18.4175C90.3167 17.8357 91.8498 17.5414 93.6966 17.5414C94.9271 17.5414 96.1045 17.745 97.2267 18.152C98.349 18.5591 99.184 18.9617 99.7341 19.3578L94.7525 29.864C94.4654 29.4238 93.9286 28.9769 93.1355 28.5256C92.3446 28.0743 91.355 27.8486 90.1665 27.8486C88.8896 27.8486 87.8778 28.1075 87.1312 28.6251C86.3823 29.1428 85.8499 29.7822 85.5318 30.541C85.2137 31.302 85.0524 32.0454 85.0524 32.771V45.4586V45.4631Z" fill="white"/>
<path d="M142.295 17.5458C144.362 17.5458 146.227 17.9573 147.888 18.7847C149.549 19.6121 150.868 20.8997 151.847 22.6496C152.825 24.4018 153.316 26.665 153.316 29.4392V45.4652H140.547V31.1914C140.547 30.0255 140.348 28.968 139.953 28.0211C139.558 27.0743 138.667 26.6008 137.28 26.6008C136.357 26.6008 135.608 26.8265 135.036 27.2778C134.463 27.7291 134.05 28.3021 133.798 28.9968C133.544 29.6892 133.418 30.4237 133.418 31.1936V45.4675H121.573V31.1936C121.573 30.0277 121.392 28.9702 121.03 28.0234C120.668 27.0765 119.782 26.6031 118.374 26.6031C117.451 26.6031 116.698 26.8287 116.115 27.28C115.531 27.7313 115.107 28.3043 114.844 28.999C114.581 29.6914 114.449 30.4259 114.449 31.1958V45.4697H101.581V18.3445H114.449V22.0103C114.734 21.3289 115.357 20.6453 116.313 19.9617C117.27 19.2781 118.425 18.7051 119.777 18.2427C121.129 17.7803 122.521 17.5503 123.95 17.5503C125.534 17.5503 126.86 17.7206 127.927 18.0613C128.994 18.402 129.891 18.9108 130.615 19.5812C131.342 20.2537 131.978 21.0745 132.528 22.0435C132.813 21.3599 133.429 20.6718 134.375 19.9772C135.32 19.2847 136.487 18.7051 137.872 18.2427C139.257 17.7803 140.731 17.5503 142.292 17.5503L142.295 17.5458Z" fill="white"/>
<path d="M170.536 45.4631H157.537V0H170.536V45.4631Z" fill="white"/>
<path d="M182.907 46.2573C180.971 46.2573 179.31 45.5626 177.925 44.1755C176.54 42.7884 175.846 41.1247 175.846 39.1867C175.846 37.2488 176.54 35.5519 177.925 34.1648C179.31 32.7777 180.971 32.083 182.907 32.083C184.842 32.083 186.536 32.7755 187.921 34.1648C189.306 35.5519 190 37.2266 190 39.1867C190 41.1469 189.309 42.7884 187.921 44.1755C186.536 45.5626 184.864 46.2573 182.907 46.2573Z" fill="white"/>
</svg>
