<svg width="147" height="51" viewBox="0 0 147 51" fill="none" xmlns="http://www.w3.org/2000/svg">
<g clip-path="url(#clip0_2_1147)">
<path d="M16.8214 13.7668C18.3699 13.7668 19.8722 14.074 21.3267 14.6867C22.7812 15.2995 23.981 16.2767 24.9261 17.6168C25.8713 18.9568 26.343 20.7152 26.343 22.8919V35.6727H16.2864V24.4733C16.2864 23.3676 16.0181 22.491 15.4831 21.8418C14.9465 21.1926 14.2286 20.8697 13.3262 20.8697C12.7297 20.8697 12.1811 21.0173 11.6803 21.3106C11.1778 21.6057 10.783 22.0206 10.4941 22.5552C10.2053 23.0916 10.06 23.7303 10.06 24.4733V35.6727H0V14.3899H10.0566V17.0596C10.2771 16.5059 10.7112 15.9799 11.359 15.4783C12.005 14.9784 12.8049 14.567 13.7586 14.2476C14.7123 13.9282 15.7327 13.7685 16.8214 13.7685V13.7668Z" fill="white"/>
<path d="M41.2997 36.2942C38.9172 36.2942 36.7978 35.822 34.9434 34.8812C33.089 33.9387 31.6328 32.6264 30.5783 30.9392C29.5237 29.2537 28.9956 27.3061 28.9956 25.093C28.9956 22.8798 29.5237 20.9235 30.5783 19.2207C31.6328 17.5179 33.089 16.183 34.9434 15.2144C36.7978 14.2476 38.9172 13.7633 41.2997 13.7633C43.6823 13.7633 45.7828 14.2476 47.6048 15.2144C49.425 16.183 50.8504 17.5179 51.8793 19.2207C52.9082 20.9235 53.4244 22.8798 53.4244 25.093C53.4244 27.3061 52.9099 29.2537 51.8793 30.9392C50.8504 32.6247 49.425 33.9387 47.6048 34.8812C45.7828 35.822 43.6823 36.2942 41.2997 36.2942ZM41.2997 27.9987C41.862 27.9987 42.3372 27.8824 42.7286 27.6481C43.12 27.4155 43.4225 27.0735 43.6344 26.6239C43.8464 26.1744 43.954 25.6484 43.954 25.0426C43.954 24.4368 43.8481 23.9109 43.6344 23.4613C43.4208 23.0117 43.12 22.6663 42.7286 22.425C42.3372 22.1837 41.8603 22.0622 41.2997 22.0622C40.7391 22.0622 40.2572 22.1837 39.8572 22.425C39.4573 22.668 39.1462 23.0134 38.9257 23.4613C38.7052 23.9109 38.5942 24.4385 38.5942 25.0426C38.5942 25.6467 38.7052 26.1744 38.9257 26.6239C39.1462 27.0735 39.4573 27.4155 39.8572 27.6481C40.2572 27.8807 40.7374 27.9987 41.2997 27.9987Z" fill="white"/>
<path d="M65.8037 35.671H55.7471V14.3882H65.8037V17.4206H65.6755C65.8618 17.0405 66.2156 16.5649 66.7352 15.9938C67.2548 15.4245 67.9863 14.9089 68.9315 14.4507C69.8766 13.9941 71.0628 13.7633 72.4916 13.7633C73.4436 13.7633 74.3546 13.923 75.2228 14.2424C76.0911 14.5618 76.7371 14.8777 77.1627 15.1884L73.3086 23.4318C73.0864 23.0863 72.6711 22.7357 72.0575 22.3816C71.4456 22.0275 70.6799 21.8504 69.7604 21.8504C68.7725 21.8504 67.9897 22.0535 67.412 22.4597C66.8326 22.8659 66.4207 23.3676 66.1746 23.9629C65.9285 24.5601 65.8037 25.1433 65.8037 25.7126V35.6675V35.671Z" fill="white"/>
<path d="M110.091 13.7668C111.691 13.7668 113.133 14.0896 114.419 14.7388C115.704 15.388 116.724 16.3983 117.481 17.7713C118.239 19.146 118.618 20.9218 118.618 23.0985V35.6727H108.739V24.4733C108.739 23.5585 108.585 22.7288 108.279 21.9858C107.973 21.2429 107.285 20.8714 106.211 20.8714C105.497 20.8714 104.917 21.0485 104.475 21.4026C104.032 21.7567 103.713 22.2063 103.518 22.7513C103.321 23.2946 103.224 23.8709 103.224 24.475V35.6745H94.0593V24.475C94.0593 23.5602 93.9192 22.7305 93.6389 21.9876C93.3586 21.2446 92.6732 20.8732 91.5845 20.8732C90.87 20.8732 90.2872 21.0502 89.836 21.4043C89.3848 21.7585 89.0566 22.208 88.8533 22.7531C88.6499 23.2964 88.5473 23.8727 88.5473 24.4767V35.6762H78.5916V14.3934H88.5473V17.2696C88.7678 16.735 89.2498 16.1986 89.9898 15.6623C90.7299 15.1259 91.6238 14.6763 92.6698 14.3135C93.7158 13.9508 94.7925 13.7702 95.8983 13.7702C97.1238 13.7702 98.1493 13.9039 98.9748 14.1712C99.8003 14.4385 100.494 14.8378 101.055 15.3637C101.617 15.8914 102.109 16.5354 102.535 17.2957C102.755 16.7593 103.232 16.2195 103.964 15.6744C104.695 15.1311 105.598 14.6763 106.669 14.3135C107.741 13.9508 108.881 13.7702 110.089 13.7702L110.091 13.7668Z" fill="white"/>
<path d="M131.941 35.671H121.884V0H131.941V35.671Z" fill="white"/>
<path d="M141.512 36.2942C140.015 36.2942 138.729 35.7491 137.658 34.6608C136.586 33.5724 136.049 32.2671 136.049 30.7465C136.049 29.2259 136.586 27.8946 137.658 26.8062C138.729 25.7178 140.015 25.1728 141.512 25.1728C143.009 25.1728 144.32 25.7161 145.392 26.8062C146.463 27.8946 147 29.2086 147 30.7465C147 32.2844 146.465 33.5724 145.392 34.6608C144.32 35.7491 143.026 36.2942 141.512 36.2942Z" fill="white"/>
<path d="M54.2414 50.4758C54.3012 50.4758 54.3542 50.4966 54.3986 50.54C54.4431 50.5834 54.4653 50.6355 54.4653 50.6962C54.4653 50.7622 54.4431 50.816 54.3986 50.8594C54.3542 50.9028 54.3012 50.9236 54.2414 50.9236H51.5734C51.5085 50.9236 51.4555 50.9011 51.4127 50.8559C51.37 50.8108 51.3495 50.757 51.3495 50.6962V45.8377C51.3495 45.7769 51.3717 45.7231 51.4162 45.678C51.4606 45.6329 51.5187 45.6103 51.5888 45.6103C51.6486 45.6103 51.7016 45.6329 51.7494 45.678C51.7973 45.7231 51.8212 45.7769 51.8212 45.8377V50.606L51.6794 50.4775H54.2431L54.2414 50.4758Z" fill="white"/>
<path d="M56.9401 51C56.5556 51 56.2171 50.9167 55.9232 50.75C55.6292 50.5834 55.4002 50.3508 55.2361 50.0522C55.072 49.7537 54.99 49.4048 54.99 49.0038C54.99 48.5733 55.0737 48.2071 55.2412 47.9033C55.4087 47.5995 55.6258 47.3652 55.8924 47.2003C56.159 47.0354 56.441 46.9538 56.7401 46.9538C56.9589 46.9538 57.1726 46.9937 57.3794 47.0718C57.5862 47.15 57.7708 47.2663 57.9331 47.4208C58.0955 47.5752 58.2254 47.7644 58.3211 47.9866C58.4168 48.2088 58.4715 48.4674 58.4818 48.7608C58.4766 48.8216 58.4527 48.8736 58.4066 48.917C58.3621 48.9604 58.3091 48.9812 58.2493 48.9812H55.2515L55.1609 48.5716H58.1057L58.0083 48.6636V48.5108C57.9878 48.273 57.9143 48.0699 57.7844 47.9033C57.6545 47.7367 57.4973 47.61 57.3144 47.5232C57.1315 47.4364 56.9384 47.3947 56.7384 47.3947C56.5897 47.3947 56.4359 47.4242 56.2787 47.4867C56.1214 47.5475 55.9796 47.6429 55.8531 47.7714C55.7266 47.8998 55.6224 48.0647 55.542 48.2644C55.4617 48.464 55.4224 48.7018 55.4224 48.9743C55.4224 49.2729 55.4822 49.5437 55.6019 49.7867C55.7215 50.0297 55.8941 50.2224 56.1214 50.363C56.3487 50.5053 56.6188 50.5747 56.9333 50.5747C57.1076 50.5747 57.2648 50.5487 57.4033 50.4984C57.5434 50.448 57.6648 50.3803 57.769 50.297C57.8733 50.2137 57.9605 50.1269 58.0305 50.0349C58.0852 49.9898 58.1399 49.9672 58.1946 49.9672C58.2442 49.9672 58.2886 49.988 58.3262 50.0279C58.3638 50.0679 58.3826 50.1147 58.3826 50.1651C58.3826 50.2258 58.357 50.2796 58.3074 50.3248C58.157 50.507 57.9639 50.665 57.7246 50.7986C57.4853 50.9323 57.2238 51 56.9401 51Z" fill="white"/>
<path d="M59.1893 47.0597H60.931C60.9908 47.0597 61.0403 47.0805 61.0796 47.1239C61.119 47.1673 61.1395 47.2194 61.1395 47.2801C61.1395 47.3357 61.119 47.3843 61.0796 47.4242C61.0403 47.4641 60.9908 47.485 60.931 47.485H59.1893C59.1295 47.485 59.0782 47.4641 59.0355 47.4207C58.9928 47.3774 58.9723 47.3287 58.9723 47.2732C58.9723 47.2124 58.9928 47.1621 59.0355 47.1205C59.0782 47.0805 59.1295 47.0597 59.1893 47.0597ZM59.9584 45.9887C60.0234 45.9887 60.0764 46.0113 60.1191 46.0564C60.1618 46.1015 60.1823 46.1553 60.1823 46.2161V50.0279C60.1823 50.1703 60.2011 50.2762 60.2388 50.3473C60.2764 50.4185 60.3242 50.4654 60.384 50.4879C60.4438 50.5105 60.5037 50.5227 60.5635 50.5227C60.6028 50.5227 60.6404 50.5157 60.6712 50.5036C60.7036 50.4914 60.7395 50.4845 60.7788 50.4845C60.8233 50.4845 60.8626 50.5018 60.8951 50.5383C60.9275 50.573 60.9429 50.6199 60.9429 50.6754C60.9429 50.7466 60.9036 50.8056 60.8233 50.8542C60.7429 50.9028 60.6489 50.9271 60.5396 50.9271C60.4951 50.9271 60.4268 50.9236 60.3379 50.9149C60.249 50.9063 60.155 50.8802 60.061 50.8316C59.967 50.783 59.8884 50.698 59.8251 50.5782C59.7636 50.4567 59.7311 50.2814 59.7311 50.054V46.2196C59.7311 46.1588 59.7516 46.105 59.7944 46.0599C59.8371 46.0147 59.8901 45.9922 59.955 45.9922L59.9584 45.9887Z" fill="white"/>
<path d="M62.4931 46.1033C62.4931 46.2404 62.4538 46.3723 62.3735 46.5025C62.2931 46.631 62.1974 46.7386 62.0863 46.8219C61.9735 46.9052 61.8607 46.9469 61.7462 46.9469C61.7069 46.9469 61.6693 46.9347 61.6334 46.9087C61.5992 46.8826 61.5804 46.8375 61.5804 46.7716C61.5804 46.7004 61.6026 46.6605 61.6471 46.65C61.6915 46.6396 61.7513 46.6171 61.8265 46.5823C61.9069 46.5372 61.9684 46.4834 62.0128 46.4227C62.0573 46.3619 62.0795 46.2907 62.0795 46.2109C62.0795 46.1449 62.0607 46.0946 62.0231 46.0581C61.9855 46.0217 61.9428 46.0043 61.8915 46.0043C61.8573 46.0043 61.8214 46.0113 61.7872 46.0234C61.7513 46.0356 61.7223 46.0529 61.6966 46.072C61.6659 46.046 61.6437 46.0182 61.6249 45.9852C61.6078 45.9523 61.5992 45.9123 61.5992 45.8672C61.6095 45.7804 61.6556 45.7075 61.7411 45.6467C61.8265 45.586 61.9205 45.5565 62.0248 45.5565C62.1598 45.5565 62.2709 45.6103 62.3581 45.7197C62.4452 45.829 62.488 45.9557 62.488 46.1033H62.4931Z" fill="white"/>
<path d="M63.2041 50.3091C63.1648 50.2484 63.146 50.1894 63.1477 50.1304C63.1494 50.0731 63.1819 50.0245 63.2417 49.9898C63.281 49.955 63.3272 49.9394 63.3802 49.9446C63.4331 49.9498 63.481 49.9741 63.5254 50.021C63.6605 50.1981 63.8228 50.3404 64.0143 50.4497C64.2057 50.5591 64.4347 50.6129 64.6979 50.6129C64.8381 50.6129 64.9765 50.5886 65.1132 50.54C65.25 50.4914 65.3628 50.4185 65.4534 50.3196C65.5439 50.2206 65.5884 50.0956 65.5884 49.9446C65.5884 49.7936 65.5439 49.6617 65.4534 49.5645C65.3628 49.469 65.2483 49.3926 65.1064 49.3371C64.9645 49.2815 64.8141 49.2329 64.6535 49.193C64.4843 49.1479 64.3202 49.0958 64.1595 49.0368C64.0006 48.9795 63.8587 48.9049 63.7374 48.8163C63.616 48.7278 63.5169 48.6202 63.4417 48.4935C63.3665 48.3668 63.3289 48.2123 63.3289 48.03C63.3289 47.8183 63.387 47.6308 63.5015 47.4676C63.616 47.3062 63.7716 47.1795 63.9681 47.0875C64.1647 46.9955 64.3886 46.9503 64.6364 46.9503C64.7612 46.9503 64.8962 46.966 65.0397 46.9989C65.1833 47.0319 65.3269 47.0857 65.4653 47.1621C65.6055 47.2385 65.7285 47.3426 65.8396 47.4728C65.8841 47.518 65.9063 47.57 65.9063 47.629C65.9063 47.6881 65.8806 47.7384 65.8311 47.7853C65.7918 47.8148 65.7456 47.8304 65.6926 47.8304C65.6396 47.8304 65.5969 47.8096 65.561 47.7696C65.4414 47.6325 65.2995 47.5301 65.1355 47.4589C64.9714 47.3878 64.7936 47.353 64.6039 47.353C64.4586 47.353 64.3236 47.3774 64.1971 47.426C64.0707 47.4746 63.9647 47.5457 63.8792 47.6429C63.7938 47.7384 63.7528 47.8651 63.7528 48.0231C63.763 48.1706 63.8143 48.2887 63.9066 48.3789C63.9989 48.4709 64.1202 48.5456 64.2723 48.6063C64.4244 48.6671 64.5954 48.7226 64.7851 48.773C64.944 48.8129 65.0979 48.8615 65.2448 48.917C65.3918 48.9726 65.5217 49.042 65.6345 49.1253C65.7473 49.2086 65.8362 49.3145 65.9029 49.4412C65.9695 49.5679 66.0037 49.7276 66.0037 49.9186C66.0037 50.1408 65.9422 50.3334 65.8208 50.4949C65.6995 50.6563 65.5354 50.7813 65.332 50.8663C65.1269 50.9531 64.9013 50.9948 64.6518 50.9948C64.3834 50.9948 64.1219 50.941 63.8707 50.8351C63.6194 50.7292 63.3955 50.5522 63.2024 50.3039L63.2041 50.3091Z" fill="white"/>
<path d="M71.4268 51C71.0422 51 70.6867 50.9323 70.3586 50.7952C70.0304 50.658 69.745 50.4671 69.5023 50.2224C69.2596 49.9776 69.0716 49.6877 68.9383 49.3527C68.8033 49.0194 68.7366 48.6567 68.7366 48.2678C68.7366 47.879 68.8033 47.5162 68.9383 47.1829C69.0733 46.8497 69.2613 46.5598 69.5023 46.3133C69.7433 46.0668 70.0287 45.8776 70.3586 45.7405C70.6867 45.6034 71.0439 45.5357 71.4268 45.5357C71.69 45.5357 71.9464 45.5669 72.1925 45.6311C72.4386 45.6954 72.6591 45.7891 72.8539 45.9158C72.8881 45.9418 72.9155 45.9696 72.9325 46.0026C72.9496 46.0356 72.9582 46.0703 72.9582 46.105C72.9582 46.1762 72.936 46.2335 72.8915 46.2751C72.8471 46.3185 72.7992 46.3393 72.7497 46.3393C72.724 46.3393 72.7018 46.3359 72.6779 46.3272C72.6557 46.3202 72.6334 46.3116 72.6146 46.3011C72.4454 46.2057 72.2609 46.1293 72.0609 46.0738C71.8609 46.0182 71.649 45.9904 71.4251 45.9904C70.9961 45.9904 70.6149 46.0894 70.2817 46.2873C69.9484 46.4851 69.6869 46.7559 69.4972 47.0996C69.3075 47.4433 69.2135 47.8339 69.2135 48.2696C69.2135 48.7053 69.3075 49.0941 69.4972 49.4395C69.6869 49.7832 69.9484 50.054 70.2817 50.2519C70.6149 50.4497 70.9961 50.5487 71.4251 50.5487C71.649 50.5487 71.8746 50.5157 72.1019 50.4498C72.3292 50.3838 72.5241 50.2953 72.6881 50.1842L72.6505 50.3439V48.5976L72.7633 48.7035H71.4695C71.4046 48.7035 71.3499 48.681 71.3054 48.6358C71.261 48.5907 71.2388 48.5369 71.2388 48.4761C71.2388 48.405 71.261 48.3494 71.3054 48.3095C71.3499 48.2696 71.4046 48.2487 71.4695 48.2487H72.8967C72.9616 48.2487 73.0146 48.2696 73.0573 48.313C73.1 48.3564 73.1206 48.4102 73.1206 48.4761V50.3057C73.1206 50.3456 73.1103 50.3838 73.0915 50.4202C73.071 50.4567 73.0436 50.4862 73.0095 50.5122C72.7907 50.6633 72.5446 50.7848 72.2728 50.8733C72.0011 50.9618 71.7191 51.0069 71.4251 51.0069L71.4268 51Z" fill="white"/>
<path d="M77.7199 48.9795C77.7199 49.3649 77.6378 49.7103 77.4737 50.0158C77.3097 50.3213 77.0858 50.5626 76.8003 50.7379C76.5149 50.9132 76.1919 51 75.8278 51C75.4638 51 75.1527 50.9132 74.8673 50.7379C74.5802 50.5626 74.3546 50.323 74.1871 50.0158C74.0196 49.7103 73.9375 49.3649 73.9375 48.9795C73.9375 48.5942 74.0213 48.2435 74.1871 47.9398C74.3546 47.636 74.5802 47.3964 74.8673 47.2177C75.1544 47.0406 75.4741 46.9521 75.8278 46.9521C76.1816 46.9521 76.5149 47.0406 76.8003 47.2177C77.0841 47.3947 77.308 47.636 77.4737 47.9398C77.6378 48.2435 77.7199 48.5907 77.7199 48.9795ZM77.2721 48.9795C77.2721 48.6705 77.2105 48.3963 77.0858 48.155C76.961 47.9155 76.7901 47.7245 76.573 47.5857C76.356 47.4468 76.1081 47.3774 75.8296 47.3774C75.551 47.3774 75.3168 47.4468 75.0963 47.5857C74.8776 47.7245 74.7032 47.9155 74.5767 48.155C74.4503 48.3963 74.3853 48.6705 74.3853 48.9795C74.3853 49.2885 74.4486 49.561 74.5767 49.7988C74.7032 50.0366 74.8776 50.2258 75.0963 50.3647C75.3151 50.5036 75.5595 50.573 75.8296 50.573C76.0996 50.573 76.356 50.5036 76.573 50.3647C76.7901 50.2258 76.961 50.0366 77.0858 49.7988C77.2105 49.561 77.2721 49.2868 77.2721 48.9795Z" fill="white"/>
<path d="M84.6128 45.6016C84.6829 45.6016 84.7393 45.6224 84.7803 45.6624C84.8214 45.7023 84.8436 45.7526 84.8436 45.8151C84.8436 45.8498 84.8367 45.888 84.8214 45.9297L82.8251 50.7726C82.7994 50.8229 82.767 50.8611 82.7277 50.8872C82.6884 50.9132 82.6473 50.9254 82.608 50.9254C82.5636 50.9254 82.5209 50.9132 82.4815 50.8872C82.4422 50.8611 82.4149 50.8264 82.3995 50.7813L80.4118 45.9453C80.4066 45.9297 80.4015 45.9123 80.3964 45.8915C80.3913 45.8707 80.3896 45.8481 80.3896 45.8238C80.3896 45.7578 80.4135 45.7058 80.4613 45.6641C80.5092 45.6242 80.5571 45.6033 80.6066 45.6033C80.7109 45.6033 80.7861 45.6589 80.8305 45.77L82.7003 50.3091H82.5653L84.4043 45.7544C84.4539 45.6537 84.524 45.6033 84.6128 45.6033V45.6016Z" fill="white"/>
<path d="M85.8981 46.4678C85.7939 46.4678 85.7153 46.4435 85.6623 46.3949C85.611 46.3463 85.5836 46.2768 85.5836 46.1866V46.1102C85.5836 46.0199 85.6127 45.9505 85.6691 45.9019C85.7255 45.8533 85.8041 45.829 85.905 45.829C86.0058 45.829 86.0725 45.8533 86.1254 45.9019C86.1784 45.9505 86.2041 46.0199 86.2041 46.1102V46.1866C86.2041 46.2786 86.1784 46.348 86.1254 46.3949C86.0725 46.4417 85.9973 46.4678 85.8981 46.4678ZM86.122 50.6962C86.122 50.757 86.0998 50.8108 86.0554 50.8559C86.0109 50.9011 85.958 50.9236 85.8981 50.9236C85.8332 50.9236 85.7802 50.9011 85.7375 50.8559C85.6947 50.8108 85.6742 50.757 85.6742 50.6962V47.2038C85.6742 47.143 85.6947 47.0892 85.7375 47.0441C85.7802 46.9989 85.8332 46.9764 85.8981 46.9764C85.9631 46.9764 86.0161 46.9989 86.0588 47.0441C86.1015 47.0892 86.122 47.143 86.122 47.2038V50.6962Z" fill="white"/>
<path d="M87.5133 50.9236C87.4432 50.9236 87.3885 50.9011 87.3492 50.8559C87.3099 50.8108 87.2894 50.757 87.2894 50.6962V47.2958C87.2894 47.235 87.3099 47.1812 87.3526 47.1361C87.3953 47.0909 87.4483 47.0684 87.5133 47.0684C87.5782 47.0684 87.6312 47.0909 87.6739 47.1361C87.7166 47.1812 87.7372 47.235 87.7372 47.2958V48.4345L87.6261 48.457C87.6415 48.28 87.6842 48.1047 87.756 47.9293C87.8277 47.754 87.9269 47.5943 88.0516 47.4468C88.1764 47.2992 88.3251 47.1812 88.496 47.0892C88.6687 46.9972 88.8618 46.9521 89.0754 46.9521C89.166 46.9521 89.2532 46.9712 89.3369 47.0094C89.4207 47.0475 89.4634 47.11 89.4634 47.1951C89.4634 47.2715 89.4429 47.3287 89.4036 47.3704C89.3643 47.4103 89.3164 47.4312 89.2617 47.4312C89.2173 47.4312 89.1677 47.419 89.1164 47.393C89.0635 47.3669 88.9951 47.3548 88.9113 47.3548C88.7712 47.3548 88.6328 47.3964 88.4926 47.4798C88.3525 47.5631 88.226 47.6759 88.1115 47.8183C87.997 47.9606 87.9064 48.1185 87.838 48.2921C87.7713 48.4674 87.7372 48.6428 87.7372 48.8198V50.6945C87.7372 50.7552 87.7149 50.8091 87.6705 50.8542C87.6261 50.8993 87.5731 50.9219 87.5133 50.9219V50.9236Z" fill="white"/>
<path d="M93.2081 47.0441C93.2731 47.0441 93.3261 47.0666 93.3688 47.1118C93.4115 47.1569 93.432 47.2124 93.432 47.2784V50.6945C93.432 50.7552 93.4098 50.8091 93.3654 50.8542C93.3209 50.8993 93.268 50.9219 93.2081 50.9219C93.1432 50.9219 93.0902 50.8993 93.0475 50.8542C93.0047 50.8091 92.9842 50.7552 92.9842 50.6945V49.7919L93.1107 49.7311C93.1107 49.8735 93.0714 50.0175 92.9945 50.1633C92.9176 50.3109 92.8116 50.4463 92.6766 50.573C92.5416 50.6997 92.3843 50.8021 92.2015 50.8802C92.0203 50.9583 91.8237 50.9983 91.6152 50.9983C91.2768 50.9983 90.9743 50.9097 90.7077 50.7327C90.441 50.5556 90.2308 50.3126 90.0804 50.0036C89.9283 49.6947 89.8531 49.3475 89.8531 48.9639C89.8531 48.5803 89.93 48.221 90.0855 47.9207C90.2394 47.6204 90.4496 47.3826 90.7128 47.2107C90.976 47.0389 91.2751 46.9521 91.6101 46.9521C91.8237 46.9521 92.0254 46.9903 92.2117 47.0666C92.398 47.143 92.5621 47.2472 92.7005 47.3774C92.839 47.5075 92.9484 47.6586 93.0253 47.8287C93.1022 47.9988 93.1415 48.1741 93.1415 48.3564L92.9842 48.2418V47.2784C92.9842 47.2124 93.0047 47.1569 93.0475 47.1118C93.0902 47.0666 93.1432 47.0441 93.2081 47.0441ZM91.6545 50.5747C91.9177 50.5747 92.1536 50.5053 92.357 50.3664C92.5621 50.2276 92.7227 50.0349 92.839 49.7901C92.9552 49.5454 93.015 49.2694 93.015 48.9656C93.015 48.6619 92.9569 48.398 92.839 48.1602C92.721 47.9224 92.5604 47.7332 92.357 47.5909C92.1536 47.4485 91.9177 47.3791 91.6545 47.3791C91.3913 47.3791 91.1623 47.4468 90.9555 47.5839C90.7487 47.721 90.5863 47.9085 90.4701 48.1463C90.3522 48.3841 90.2941 48.6584 90.2941 48.9656C90.2941 49.2729 90.3522 49.5436 90.4701 49.7901C90.588 50.0366 90.747 50.2276 90.9521 50.3664C91.1572 50.5053 91.3913 50.5747 91.6545 50.5747Z" fill="white"/>
<path d="M95.1001 50.6962C95.1001 50.757 95.0779 50.8108 95.0335 50.8559C94.9891 50.9011 94.9361 50.9236 94.8762 50.9236C94.8113 50.9236 94.7583 50.9011 94.7156 50.8559C94.6729 50.8108 94.6523 50.757 94.6523 50.6962V45.5339C94.6523 45.4732 94.6746 45.4194 94.719 45.3742C94.7634 45.3291 94.8164 45.3065 94.8762 45.3065C94.9412 45.3065 94.9942 45.3291 95.0369 45.3742C95.0796 45.4194 95.1001 45.4732 95.1001 45.5339V50.6962Z" fill="white"/>
</g>
<defs>
<clipPath id="clip0_2_1147">
<rect width="147" height="51" fill="white"/>
</clipPath>
</defs>
</svg>
