<?xml version="1.0" standalone="no"?>
<!DOCTYPE svg PUBLIC "-//W3C//DTD SVG 1.1//EN" "http://www.w3.org/Graphics/SVG/1.1/DTD/svg11.dtd" >
<svg xmlns="http://www.w3.org/2000/svg" xmlns:xlink="http://www.w3.org/1999/xlink" version="1.1">
<metadata>
Created by FontForge 20201107 at Sun Mar 22 11:03:39 2026
 By www-data
(c) 2025 Viswell Studio. All rights Reserved

</metadata>
<defs>
<font id="Djingo-Regular" horiz-adv-x="501" >
  <font-face 
    font-family="Djingo"
    font-weight="400"
    font-stretch="normal"
    units-per-em="2048"
    panose-1="0 0 0 0 0 0 0 0 0 0"
    ascent="1536"
    descent="-512"
    x-height="1188"
    cap-height="1434"
    bbox="-59 -422 1243 1772"
    underline-thickness="102"
    underline-position="-255"
    unicode-range="U+000D-FB03"
  />
<missing-glyph horiz-adv-x="512" 
 />
    <glyph glyph-name="f_f" unicode="ff" horiz-adv-x="638" 
d="M358 963h-92v-963h-196v963h-56v225h56v61q0 130 62 208.5t165 78.5h37v-266h-2q-39 0 -52.5 -11.5t-13.5 -44.5v-26h92v61q0 130 62.5 208.5t165.5 78.5h37v-266h-2q-39 0 -52.5 -11.5t-13.5 -44.5v-26h61v-225h-61v-963h-197v963z" />
    <glyph glyph-name="fi" unicode="fi" horiz-adv-x="546" 
d="M330 963h-64v-963h-196v963h-56v225h56v10q0 157 69.5 237.5t204.5 80.5h82v-248h-70q-41 0 -55 -12t-14 -46v-22h239v-1188h-196v963z" />
    <glyph glyph-name="fl" unicode="fl" horiz-adv-x="587" 
d="M328 963h-62v-963h-196v963h-52v225h52v61q0 124 81 205.5t187 81.5h229v-1536h-196v1311h-39q-36 0 -51 -28.5t-15 -68.5v-26h62v-225z" />
    <glyph glyph-name="f_f_i" unicode="ffi" horiz-adv-x="821" 
d="M606 963h-71v-963h-195v963h-74v-963h-196v963h-56v225h56v57q0 123 62 197t165 74h37v-246h-2q-39 0 -52.5 -11.5t-13.5 -44.5v-26h74v10q0 157 69.5 237.5t204.5 80.5h39v-248h-28q-41 0 -55.5 -12t-14.5 -46v-22h248v-1188h-197v963z" />
    <glyph glyph-name="g_g.liga" unicode="gg" horiz-adv-x="1046" 
d="M279 367v628q0 49 -19 49q-22 0 -22 -53v-624q0 -50 22 -50q19 0 19 50zM760 367v628q0 49 -19 49q-22 0 -22 -53v-624q0 -50 22 -50q19 0 19 50zM131 -106q0 -12 11 -17.5t42 -5.5h213q29 0 29 25q0 24 -29 24h-225q-41 0 -41 -26zM580 -102q0 -27 24 -27h215q29 0 38 6
t9 19t-9 18.5t-38 5.5h-225q-10 0 -12 -3.5t-2 -13.5v-5zM475 961v-578q0 -120 -61.5 -178t-204.5 -58q-11 0 -24 -8t-13 -20q0 -9 12 -12t54 -3h84q131 0 163 -32q55 69 123 121q-86 64 -86 192v576q0 115 61 184t160 69h7q2 0 42 6.5t101 6.5h53v-135h-14q24 -56 24 -131
v-578q0 -120 -61.5 -178t-204.5 -58q-37 -10 -37 -26q0 -10 11.5 -13.5t48.5 -3.5h75q130 0 186 -46t56 -152q0 -109 -53 -156t-176 -47h-105q-73 0 -115 15.5t-69 48.5q-27 -33 -67.5 -48.5t-110.5 -15.5h-117q-203 0 -203 125q0 60 62 104q-56 29 -56 105q0 81 107 156
q-86 64 -86 192v576q0 115 61 184t160 69h6q4 0 44 6.5t100 6.5h53v-135h-14q24 -56 24 -131z" />
    <glyph glyph-name=".notdef" horiz-adv-x="512" 
 />
    <glyph glyph-name="uni0000" horiz-adv-x="0" 
 />
    <glyph glyph-name="uni0000" horiz-adv-x="0" 
 />
    <glyph glyph-name="uni000D" unicode="&#xd;" horiz-adv-x="512" 
 />
    <glyph glyph-name="space" unicode=" " horiz-adv-x="532" 
 />
    <glyph glyph-name="exclam" unicode="!" horiz-adv-x="262" 
d="M61 266q-10 300 -14.5 599.5t-7.5 381.5l-6 187h196l-4 -187q-2 -71 -4.5 -232.5t-7 -338.5t-12.5 -410h-140zM225 207v-207h-188v207h188z" />
    <glyph glyph-name="quotedbl" unicode="&#x22;" horiz-adv-x="419" 
d="M70 1223l-33 313h141l-49 -313h-59zM274 1223l-32 313h141l-49 -313h-60z" />
    <glyph glyph-name="numbersign" unicode="#" horiz-adv-x="774" 
d="M90 0l64 471h-72v61h80l49 369h-72v62h80l64 471h188l-63 -471h45l63 471h186l-63 -471h72v-62h-80l-49 -369h71v-61h-80l-63 -471h-188l63 471h-45l-64 -471h-186zM393 532l51 369h-45l-51 -369h45z" />
    <glyph glyph-name="dollar" unicode="$" horiz-adv-x="540" 
d="M141 -84l11 88q-52 28 -81.5 80.5t-29.5 120.5v287h172l16 124q-4 5 -20 28.5t-25 37.5q-78 114 -110.5 211t-32.5 215v121q0 101 66 163t169 62q32 0 56 -6l14 108h53l-16 -124q55 -27 86 -80t31 -123v-244h-172l-15 -119q81 -108 115.5 -168.5t53 -142t18.5 -207.5
v-143q0 -100 -66 -162.5t-170 -62.5q-31 0 -61 6l-8 -70h-54zM295 369q0 104 -23 166l-28 -226v-69q0 -58 26 -58q25 0 25 58v129zM246 1194v-109q0 -102 22 -147l29 225v31q0 55 -21 55q-16 0 -23 -11.5t-7 -43.5z" />
    <glyph glyph-name="percent" unicode="%" horiz-adv-x="983" 
d="M721 668v-516q0 -27 14 -27q17 0 17 27v516q0 34 -17 34q-14 0 -14 -34zM233 1282v-516q0 -27 15 -27q16 0 16 27v516q0 35 -16 35q-15 0 -15 -35zM254 0l410 1434h67l-409 -1434h-68zM901 664v-510q0 -73 -46 -115.5t-120 -42.5t-120 42.5t-46 115.5v510q0 83 46 130.5
t120 47.5q75 0 120.5 -47.5t45.5 -130.5zM414 1278v-510q0 -72 -45.5 -115t-120.5 -43t-120.5 43t-45.5 115v510q0 83 46 130.5t120 47.5q75 0 120.5 -47.5t45.5 -130.5z" />
    <glyph glyph-name="ampersand" unicode="&#x26;" horiz-adv-x="673" 
d="M446 922h189q-13 -221 -98 -578q36 -57 60.5 -81.5t47.5 -24.5v-279h-45q-85 0 -158 150q-82 -129 -223 -129q-98 0 -143 59.5t-45 189.5v316q0 116 80 243q-78 191 -78 322v109q0 115 62 175t167 60q99 0 159 -61.5t60 -161.5v-115q0 -155 -137 -319q-1 -1 -16 -21
q57 -141 71 -172q28 148 47 318zM236 522v-303q0 -18 10 -18q16 0 33.5 35.5t46.5 113.5q-75 147 -90 176v-4zM281 1090v100q0 59 -23 59q-22 0 -22 -57v-100q0 -44 16 -103q29 60 29 101z" />
    <glyph glyph-name="quotesingle" unicode="'" horiz-adv-x="215" 
d="M70 1223l-33 313h141l-49 -313h-59z" />
    <glyph glyph-name="parenleft" unicode="(" horiz-adv-x="497" 
d="M41 1163q0 160 90.5 270.5t235.5 110.5h100v-162q-98 0 -158.5 -55t-60.5 -164v-1204q0 -109 60.5 -164t158.5 -55v-162h-100q-145 0 -235.5 110.5t-90.5 270.5v1204z" />
    <glyph glyph-name="parenright" unicode=")" 
d="M467 1163v-1204q0 -160 -90.5 -270.5t-235.5 -110.5h-100v162q98 0 158.5 55t60.5 164v1204q0 109 -60.5 164t-158.5 55v162h100q145 0 235.5 -110.5t90.5 -270.5z" />
    <glyph glyph-name="asterisk" unicode="*" horiz-adv-x="585" 
d="M264 1434h62v-234l178 72l16 -64l-180 -73l109 -195l-48 -43l-104 190l-109 -190l-45 43l105 195h2l-180 73l18 64l176 -72v234z" />
    <glyph glyph-name="plus" unicode="+" horiz-adv-x="491" 
d="M211 971h68v-215h180v-76h-180v-215h-68v215h-178v76h178v215z" />
    <glyph glyph-name="comma" unicode="," horiz-adv-x="264" 
d="M31 211h205v-211l-58 -164h-102l35 162h-80v213z" />
    <glyph glyph-name="hyphen" unicode="-" horiz-adv-x="659" 
d="M72 672v92h516v-92h-516z" />
    <glyph glyph-name="period" unicode="." horiz-adv-x="260" 
d="M29 211h204v-209h-204v209z" />
    <glyph glyph-name="slash" unicode="/" horiz-adv-x="403" 
d="M16 -346l289 1884h88l-287 -1884h-90z" />
    <glyph glyph-name="zero" unicode="0" horiz-adv-x="491" 
d="M225 1190v-969q0 -45 21 -45q20 0 20 45v969q0 59 -20 59q-21 0 -21 -59zM471 1221v-1031q0 -92 -63.5 -151t-161.5 -59t-162 59t-64 151v1031q0 105 60.5 169t159.5 64h8q101 0 162 -63.5t61 -169.5z" />
    <glyph glyph-name="one" unicode="1" horiz-adv-x="329" 
d="M305 1434v-1434h-196v1167h-99v191h70q25 0 34 16.5t9 59.5h182z" />
    <glyph glyph-name="two" unicode="2" horiz-adv-x="497" 
d="M360 645q-9 -13 -32 -48t-32 -48.5t-26 -42.5t-24 -46.5t-16.5 -42.5t-13 -48t-3.5 -47v-127h256v-195h-449v356q0 54 21.5 118.5t44.5 108.5t70.5 126.5t68.5 121.5q41 74 41 173v190q0 55 -26 55q-19 0 -19 -55v-252h-201v287q0 101 60 163t160 62q102 0 165.5 -62
t63.5 -163v-264q0 -71 -22 -142t-38.5 -99.5t-48.5 -78.5z" />
    <glyph glyph-name="three" unicode="3" horiz-adv-x="509" 
d="M186 653v193q58 0 73 7t15 38v299q0 59 -22 59q-23 0 -23 -59v-285h-200v316q0 105 60 169t159 64q102 0 165.5 -64.5t63.5 -168.5v-371q0 -84 -43 -107q45 -20 45 -96v-450q0 -103 -66.5 -160t-158.5 -57q-91 0 -158 55.5t-67 154.5v394h200v-363q0 -45 23 -45
q22 0 22 45v387q0 31 -16.5 38t-71.5 7z" />
    <glyph glyph-name="four" unicode="4" horiz-adv-x="528" 
d="M270 0v297h-260v135l156 1002h301v-942h45v-195h-45v-297h-197zM270 1135h-10l-63 -643h73v643z" />
    <glyph glyph-name="five" unicode="5" horiz-adv-x="485" 
d="M346 1110q113 0 113 -141v-764q0 -108 -63 -166.5t-152 -58.5q-86 0 -150.5 56t-64.5 154v445h194v-414q0 -45 19 -45q6 0 9.5 2.5t6 13.5t2.5 31v649q0 52 -18 52q-19 0 -19 -60v-151h-190v721h426v-205h-230v-195q36 76 117 76z" />
    <glyph glyph-name="six" unicode="6" horiz-adv-x="475" 
d="M258 1102v108q0 45 -18 45q-7 0 -11 -2.5t-7 -13.5t-3 -31v-260h6q27 80 111 80q113 0 113 -141v-682q0 -98 -59.5 -161.5t-153.5 -63.5q-93 0 -153 59t-60 151v1037q0 108 63 166.5t152 58.5q86 0 150.5 -56.5t64.5 -154.5v-139h-195zM231 176q19 0 19 47v561
q0 47 -19 47q-18 0 -18 -47v-563q0 -45 18 -45z" />
    <glyph glyph-name="seven" unicode="7" horiz-adv-x="423" 
d="M303 0h-188v352q0 117 65 656q5 46 16 135.5t13 105.5h-191v185h388v-148q-103 -751 -103 -911v-375z" />
    <glyph glyph-name="eight" unicode="8" horiz-adv-x="491" 
d="M23 889l-3 332q0 106 61.5 169.5t162.5 63.5h8q99 0 159 -64t60 -169l-2 -332q0 -81 -39 -105v-4q41 -21 41 -94v-496q0 -92 -63.5 -151t-161.5 -59t-162 59t-64 151v496q0 74 39 94v4q-36 24 -36 105zM246 176q20 0 20 45v436q0 39 -20 39q-21 0 -21 -39v-436
q0 -45 21 -45zM246 879q12 0 16 10t4 31v270q0 59 -20 59q-21 0 -21 -59v-270q0 -41 21 -41z" />
    <glyph glyph-name="nine" unicode="9" horiz-adv-x="471" 
d="M215 322v-109q0 -37 21 -37q18 0 18 37v270h-6q-27 -80 -111 -80q-112 0 -112 142v682q0 100 59.5 162.5t153.5 62.5q92 0 152.5 -59.5t60.5 -151.5v-1036q0 -100 -60 -162.5t-155 -62.5q-94 0 -155 59t-61 151v132h195zM242 1255q-19 0 -19 -47v-553q0 -51 19 -51
q11 0 14.5 14t3.5 46v546q0 45 -18 45z" />
    <glyph glyph-name="colon" unicode=":" horiz-adv-x="266" 
d="M29 979v209h204v-209h-204zM29 209h204v-209h-204v209z" />
    <glyph glyph-name="semicolon" unicode=";" horiz-adv-x="282" 
d="M39 1188h205v-209h-205v209zM39 211h205v-211l-58 -164h-106l39 162h-80v213z" />
    <glyph glyph-name="less" unicode="&#x3c;" horiz-adv-x="819" 
d="M29 686v64l764 294v-90l-590 -237l590 -238v-88z" />
    <glyph glyph-name="equal" unicode="=" horiz-adv-x="671" 
d="M43 588v76h586v-76h-586zM43 772v76h586v-76h-586z" />
    <glyph glyph-name="greater" unicode="&#x3e;" horiz-adv-x="821" 
d="M793 686l-764 -297v90l589 238l-589 237v88l764 -292v-64z" />
    <glyph glyph-name="question" unicode="?" horiz-adv-x="507" 
d="M326 451v-185h-189v178q0 127 13 182.5t57 121.5q42 64 59 110t17 96v250q0 45 -27 45q-18 0 -18 -51v-297h-201v336q0 98 59.5 157.5t159.5 59.5q102 0 165.5 -52.5t63.5 -139.5v-310q0 -127 -94 -268q-44 -67 -54.5 -110t-10.5 -123zM326 207v-207h-189v207h189z" />
    <glyph glyph-name="at" unicode="@" horiz-adv-x="772" 
d="M399 1262q-85 0 -125.5 -45.5t-40.5 -139.5v-825v-13q0 -32 4.5 -39t30.5 -7h240v-193h-346q-123 0 -123 152v938q0 166 94 261t258 95q156 0 240 -87t84 -249v-829h-172q-11 48 -13 79h-4q-19 -92 -120 -92q-125 0 -125 138v587q0 51 42.5 85.5t155.5 78.5
q29 11 35 14.5t6 12.5q0 37 -31.5 57.5t-89.5 20.5zM475 487q0 -41 23 -41q22 0 22 41v529q0 8 -18 0q-27 -15 -27 -53v-476z" />
    <glyph glyph-name="A" unicode="A" horiz-adv-x="534" 
d="M242 344l-6 -344h-226l94 1434h326l94 -1434h-225l-6 344h-51zM244 543h47l-10 598h-27z" />
    <glyph glyph-name="B" unicode="B" horiz-adv-x="518" 
d="M295 0h-272v1434h272q106 0 152.5 -51t46.5 -160v-254q0 -91 -41 -119v-8q41 -28 41 -119v-512q0 -109 -46.5 -160t-152.5 -51zM285 250v452q0 29 -12 36t-50 7v-540q40 0 51 8t11 37zM285 989v195q0 29 -11 37t-51 8v-283h4q36 0 47 7t11 36z" />
    <glyph glyph-name="C" unicode="C" horiz-adv-x="509" 
d="M485 821h-200v373q0 55 -25 55q-27 0 -27 -55v-954q0 -56 27 -56q25 0 25 56v534h200v-569q0 -102 -62.5 -163.5t-166.5 -61.5q-103 0 -167 62t-64 163v1024q0 101 65 163t170 62q102 0 163.5 -61.5t61.5 -163.5v-408z" />
    <glyph glyph-name="D" unicode="D" horiz-adv-x="516" 
d="M283 1434q115 0 163 -50t48 -172v-991q0 -122 -46.5 -171.5t-160.5 -49.5h-264v1434h260zM223 205q38 0 50 10.5t12 42.5v918q0 32 -12 42.5t-50 10.5v-1024z" />
    <glyph glyph-name="E" unicode="E" horiz-adv-x="387" 
d="M23 0v1434h342v-185h-138v-278h138v-185h-138v-602h138v-184h-342z" />
    <glyph glyph-name="F" unicode="F" horiz-adv-x="385" 
d="M227 0h-204v1434h342v-185h-138v-278h138v-185h-138v-786z" />
    <glyph glyph-name="G" unicode="G" horiz-adv-x="512" 
d="M492 1024h-201v170q0 55 -29 55q-33 0 -33 -55v-946q0 -55 31 -55t31 55v448h-31v226h232v-922h-181q0 2 -5.5 35.5t-6.5 50.5h-4q-24 -98 -125 -98q-150 0 -150 225v1016q0 101 67 163t175 62q104 0 167 -62t63 -163v-205z" />
    <glyph glyph-name="H" unicode="H" horiz-adv-x="516" 
d="M289 0v780h-62v-780h-204v1434h204v-449h62v449h205v-1434h-205z" />
    <glyph glyph-name="I" unicode="I" horiz-adv-x="249" 
d="M227 1434v-1434h-204v1434h204z" />
    <glyph glyph-name="J" unicode="J" 
d="M45 1223v211h434v-1229q0 -101 -64 -163t-167 -62q-104 0 -167 62t-63 163v835h201v-800q0 -56 25 -56q26 0 26 56v983h-225z" />
    <glyph glyph-name="K" unicode="K" horiz-adv-x="520" 
d="M295 1434h207l-84 -512l88 -922h-211l-55 758h-17v-758h-200v1434h200v-314q0 -32 -4 -98h10z" />
    <glyph glyph-name="L" unicode="L" horiz-adv-x="376" 
d="M227 1434v-1235h138v-199h-342v1434h204z" />
    <glyph glyph-name="M" unicode="M" horiz-adv-x="786" 
d="M764 0h-203l14 1149h-10l-76 -1149h-192l-76 1149h-10l14 -1149h-205v1434h326l37 -895h18l39 895h324v-1434z" />
    <glyph glyph-name="N" unicode="N" horiz-adv-x="606" 
d="M23 0v1434h262l104 -867h14l-22 867h203v-1434h-262l-107 936h-12l22 -936h-202z" />
    <glyph glyph-name="O" unicode="O" 
d="M485 1229v-1024q0 -101 -66 -163t-171 -62q-103 0 -166.5 62t-63.5 163v1024q0 101 65 163t169 62q103 0 168 -62t65 -163zM279 1194q0 55 -27 55q-29 0 -29 -55v-954q0 -56 29 -56q27 0 27 56v954z" />
    <glyph glyph-name="P" unicode="P" 
d="M223 0h-200v1434h229q123 0 175 -48t52 -163v-260q0 -116 -49.5 -177t-144.5 -61h-62v-725zM276 983v201q0 29 -9.5 37t-43.5 8v-289q34 0 43.5 7.5t9.5 35.5z" />
    <glyph glyph-name="Q" unicode="Q" horiz-adv-x="536" 
d="M358 -135l-102 115q-106 0 -172 60t-66 165v1024q0 101 65 163t169 62q103 0 168 -62t65 -163v-1024q0 -79 -36 -129l57 -70zM279 1194q0 55 -27 55q-29 0 -29 -55v-954q0 -56 29 -56q27 0 27 56v954z" />
    <glyph glyph-name="R" unicode="R" horiz-adv-x="532" 
d="M272 963v211q0 38 -9 46.5t-40 8.5v-309q28 0 38.5 8t10.5 35zM223 0h-200v1434h266q103 0 147.5 -56t44.5 -176v-260q0 -132 -59 -182q1 -14 4 -41.5t4 -40.5l76 -678h-211l-57 719h-15v-719z" />
    <glyph glyph-name="S" unicode="S" horiz-adv-x="491" 
d="M223 1194v-190q0 -50 7.5 -73t25.5 -37.5t68 -39.5q85 -43 115 -100.5t30 -180.5v-368q0 -101 -63.5 -163t-165.5 -62q-100 0 -160 62t-60 163v409h201v-374q0 -56 21 -56q24 0 24 56v346q0 28 -15.5 46t-72.5 52q-53 31 -85.5 64t-52.5 87.5t-20 129.5v264q0 101 64 163
t166 62q99 0 159 -61.5t60 -163.5v-287h-201v252q0 55 -18 55q-27 0 -27 -55z" />
    <glyph glyph-name="T" unicode="T" horiz-adv-x="524" 
d="M160 0v1229h-137v205h479v-205h-137v-1229h-205z" />
    <glyph glyph-name="U" unicode="U" 
d="M272 1434h209v-1229q0 -101 -64 -163t-167 -62q-104 0 -167 62t-63 163v1229h201v-1188q0 -56 25 -56q26 0 26 56v1188z" />
    <glyph glyph-name="V" unicode="V" horiz-adv-x="534" 
d="M524 1434l-94 -1434h-326l-94 1434h226l18 -1162h27l18 1162h225z" />
    <glyph glyph-name="W" unicode="W" horiz-adv-x="854" 
d="M844 1434l-60 -1434h-313l-39 913h-10l-39 -913h-315l-58 1434h226l6 -1141h20l41 1141h246l41 -1141h20l6 1141h228z" />
    <glyph glyph-name="X" unicode="X" horiz-adv-x="559" 
d="M537 1434l-93 -578l93 -856h-226l-26 682h-11l-26 -682h-225l92 856l-92 578h225l26 -404h11l26 404h226z" />
    <glyph glyph-name="Y" unicode="Y" horiz-adv-x="559" 
d="M516 1434l-133 -848v-586h-205v573l-135 861h205l26 -424h11l26 424h205z" />
    <glyph glyph-name="Z" unicode="Z" horiz-adv-x="446" 
d="M420 1434v-146l-182 -1083h176v-205h-387v145l182 1084h-176v205h387z" />
    <glyph glyph-name="bracketleft" unicode="[" horiz-adv-x="448" 
d="M33 1544h385v-162h-178v-1642h178v-162h-385v1966z" />
    <glyph glyph-name="backslash" unicode="\" horiz-adv-x="409" 
d="M393 -346h-90l-287 1884h88z" />
    <glyph glyph-name="bracketright" unicode="]" horiz-adv-x="460" 
d="M418 1544v-1966h-385v162h178v1642h-178v162h385z" />
    <glyph glyph-name="asciicircum" unicode="^" horiz-adv-x="595" 
d="M41 934l207 403h98l209 -403h-164l-94 205l-96 -205h-160z" />
    <glyph glyph-name="underscore" unicode="_" horiz-adv-x="436" 
d="M-12 -70v70h458v-70h-458z" />
    <glyph glyph-name="grave" unicode="`" horiz-adv-x="274" 
d="M23 1434h155l49 -185h-55z" />
    <glyph glyph-name="a" unicode="a" horiz-adv-x="477" 
d="M23 924q0 117 63.5 193.5t161.5 76.5q91 0 149 -68t58 -174v-952h-174q-11 51 -13 86h-4q-18 -100 -114 -100q-61 0 -94 38.5t-33 110.5v443q0 72 44 121.5t142 84.5q32 10 42.5 21t10.5 33v116q0 39 -22 39q-23 0 -23 -35v-120h-194v86zM217 236q0 -50 23 -50
q8 0 13 4.5t6.5 14t2 14.5t0.5 17v393q-27 -15 -36 -31t-9 -49v-313z" />
    <glyph glyph-name="b" unicode="b" horiz-adv-x="479" 
d="M217 983v-766q0 -33 23 -33q22 0 22 33v766q0 33 -22 33q-23 0 -23 -33zM211 72v-72h-191v1434h197v-316h4q26 90 109 90q64 0 95.5 -44.5t31.5 -119.5v-899q0 -77 -31.5 -118t-91.5 -41q-83 0 -119 86h-4z" />
    <glyph glyph-name="c" unicode="c" horiz-adv-x="503" 
d="M23 215v758q0 107 61.5 171t163.5 64q100 0 161.5 -64t61.5 -169v-309h-195v290q0 48 -24 48q-25 0 -25 -50v-721q0 -49 25 -49q24 0 24 49v371h195v-389q0 -106 -63 -170.5t-164 -64.5q-100 0 -160.5 64t-60.5 171z" />
    <glyph glyph-name="d" unicode="d" horiz-adv-x="479" 
d="M260 219v764q0 33 -22 33q-23 0 -23 -33v-764q0 -33 23 -33q22 0 22 33zM457 0h-191v82h-4q-21 -100 -110 -100q-64 0 -98 41t-34 122v899q0 75 31.5 119.5t95.5 44.5q80 0 109 -69h4v295h197v-1434z" />
    <glyph glyph-name="e" unicode="e" horiz-adv-x="493" 
d="M23 215v758q0 107 61.5 171t163.5 64q100 0 161.5 -64t61.5 -169v-330h-244v-412q0 -49 25 -49q24 0 24 49v371h195v-389q0 -106 -63 -170.5t-164 -64.5q-100 0 -160.5 64t-60.5 171zM227 815h49v141q0 48 -24 48q-25 0 -25 -50v-139z" />
    <glyph glyph-name="f" unicode="f" horiz-adv-x="350" 
d="M328 963h-62v-963h-196v963h-56v225h56v61q0 130 62 208.5t165 78.5h37v-266h-2q-39 0 -52.5 -11.5t-13.5 -44.5v-26h62v-225z" />
    <glyph glyph-name="g" unicode="g" horiz-adv-x="563" 
d="M41 385v576q0 120 67 186.5t187 66.5q27 0 62.5 6t50.5 7q16 2 77 2v-164h-30q20 -31 20 -141v-541q0 -120 -61.5 -178t-204.5 -58q-37 -2 -37 -18q0 -25 59 -25h76q130 0 186 -47t56 -155q0 -110 -55.5 -158.5t-182.5 -48.5h-108q-189 0 -189 129q0 63 56 104
q-23 10 -36.5 41.5t-13.5 69.5q0 55 29.5 95.5t77.5 58.5q-86 64 -86 192zM238 367q0 -50 22 -50q19 0 19 50v628q0 49 -19 49q-22 0 -22 -53v-624zM166 -80q-35 0 -35 -26q0 -23 45 -23h160q30 0 39.5 6.5t9.5 18.5q0 13 -9.5 18.5t-39.5 5.5h-170z" />
    <glyph glyph-name="h" unicode="h" horiz-adv-x="477" 
d="M262 0v983q0 33 -22 33q-23 0 -23 -33v-983h-197v1434h197v-316h4q26 90 109 90q61 0 94 -40t33 -103v-1065h-195z" />
    <glyph glyph-name="i" unicode="i" horiz-adv-x="237" 
d="M217 1188v-1188h-197v1188h197zM20 1227v104h197v-104h-197z" />
    <glyph glyph-name="j" unicode="j" horiz-adv-x="489" 
d="M186 983v205h279v-973q0 -107 -60.5 -171t-160.5 -64q-102 0 -165 65t-63 170v471h195v-453q0 -49 25 -49q24 0 24 49v750h-74zM260 1227v104h205v-104h-205z" />
    <glyph glyph-name="k" unicode="k" horiz-adv-x="507" 
d="M481 1186l-65 -531l73 -655h-215l-47 569h-10v-569h-197v1434h197v-584q0 -51 -2 -78h12l49 414h205z" />
    <glyph glyph-name="l" unicode="l" horiz-adv-x="237" 
d="M217 1434v-1434h-197v1434h197z" />
    <glyph glyph-name="m" unicode="m" horiz-adv-x="718" 
d="M504 0v983q0 33 -23 33q-24 0 -24 -31v-985h-195v983q0 33 -22 33q-23 0 -23 -33v-983h-197v1188h197v-60h4q28 80 107 80q84 0 114 -80h4q14 40 48.5 60t74.5 20q60 0 94.5 -38.5t34.5 -104.5v-1065h-194z" />
    <glyph glyph-name="n" unicode="n" horiz-adv-x="477" 
d="M262 0v983q0 33 -22 33q-23 0 -23 -33v-983h-197v1188h197v-70h4q26 90 109 90q61 0 94 -40t33 -103v-1065h-195z" />
    <glyph glyph-name="o" unicode="o" horiz-adv-x="503" 
d="M23 215v758q0 107 63 171t166 64t166 -64t63 -169v-760q0 -105 -63.5 -170t-165.5 -65q-104 0 -166.5 64t-62.5 171zM227 233q0 -49 25 -49q24 0 24 49v723q0 48 -24 48q-25 0 -25 -50v-721z" />
    <glyph glyph-name="p" unicode="p" horiz-adv-x="477" 
d="M217 981v-774q0 -33 23 -33q22 0 22 33v774q0 33 -22 33q-23 0 -23 -33zM20 1190h197v-82h4q26 100 111 100q60 0 92.5 -43t32.5 -121v-899q0 -78 -33 -120.5t-94 -42.5q-80 0 -109 73h-4v-340h-197v1475z" />
    <glyph glyph-name="q" unicode="q" horiz-adv-x="477" 
d="M260 207v774q0 33 -22 33q-23 0 -23 -33v-774q0 -33 23 -33q22 0 22 33zM260 1114v76h197v-1475h-197v361h-4q-26 -94 -109 -94q-61 0 -94 42.5t-33 120.5v899q0 78 32.5 121t92.5 43q84 0 111 -94h4z" />
    <glyph glyph-name="r" unicode="r" horiz-adv-x="366" 
d="M354 975h-43q-55 0 -74.5 -15.5t-19.5 -58.5v-901h-197v1188h197v-74h4q23 94 94 94h39v-233z" />
    <glyph glyph-name="s" unicode="s" horiz-adv-x="473" 
d="M217 954v-141q0 -39 15 -58t59 -46q42 -26 65 -43.5t48 -44.5t36 -60.5t11 -77.5v-266q0 -103 -60.5 -169t-154.5 -66q-93 0 -153 65.5t-60 167.5v289h194v-271q0 -47 19 -47q20 0 20 50v237q0 15 -2.5 24.5t-12.5 19t-18.5 14.5t-33 19t-42.5 25q-43 26 -66.5 48
t-40.5 63.5t-17 101.5v205q0 94 61 153.5t156 59.5q94 0 152.5 -59.5t58.5 -153.5v-205h-195v168q0 48 -20 48q-19 0 -19 -50z" />
    <glyph glyph-name="t" unicode="t" horiz-adv-x="354" 
d="M266 1270v-82h62v-225h-62v-682q0 -33 9 -44.5t36 -11.5h23v-235h-43q-119 0 -170 66t-51 220v687h-52v225h52v82h196z" />
    <glyph glyph-name="u" unicode="u" horiz-adv-x="479" 
d="M215 1188v-963q0 -32 23 -32q22 0 22 32v963h197v-1188h-197v70h-4q-26 -86 -106 -86q-60 0 -95 37.5t-35 101.5v1065h195z" />
    <glyph glyph-name="v" unicode="v" horiz-adv-x="483" 
d="M219 1188l6 -897q0 -51 17 -51q16 0 16 51l6 897h205l-74 -1188h-303l-76 1188h203z" />
    <glyph glyph-name="w" unicode="w" horiz-adv-x="800" 
d="M526 1188l21 -897q0 -29 14 -29t14 29l7 897h204l-71 -1188h-279l-28 879q0 6 -7 6q-6 0 -6 -6l-28 -879h-279l-72 1188h203l6 -897q0 -14 5 -21.5t10 -7.5q14 0 14 29l20 897h252z" />
    <glyph glyph-name="x" unicode="x" horiz-adv-x="507" 
d="M225 1188l21 -377q0 -8 8 -8t8 8l21 377h204l-73 -526v-5l73 -657h-204l-21 520q0 8 -8 8t-8 -8l-21 -520h-205l74 657v5l-74 526h205z" />
    <glyph glyph-name="y" unicode="y" horiz-adv-x="471" 
d="M213 1188l6 -877q0 -51 17 -51q16 0 16 51l6 877h205l-82 -1258q-12 -202 -193 -202h-125v204q66 -5 101 5t39 45l2 18h-119l-76 1188h203z" />
    <glyph glyph-name="z" unicode="z" horiz-adv-x="428" 
d="M408 1188v-141l-185 -852h178v-195h-378v143l184 848h-178v197h379z" />
    <glyph glyph-name="braceleft" unicode="{" horiz-adv-x="438" 
d="M0 682q53 5 73.5 37t20.5 117v294q0 125 16.5 208t50.5 127t77 61.5t106 17.5h74v-182h-68q-23 0 -31 -8.5t-13 -52.5t-5 -150v-295q0 -132 -26.5 -192t-96.5 -103q70 -43 96.5 -103t26.5 -192v-295q0 -106 5 -150t13 -52.5t31 -8.5h68v-182h-74q-63 0 -106 17.5
t-77 61.5t-50.5 127t-16.5 208v295q0 85 -20.5 116.5t-73.5 36.5v242z" />
    <glyph glyph-name="bar" unicode="|" horiz-adv-x="212" 
d="M61 -346l2 1884h89v-1884h-91z" />
    <glyph glyph-name="braceright" unicode="}" horiz-adv-x="438" 
d="M438 682v-242q-53 -5 -73.5 -36.5t-20.5 -116.5v-295q0 -125 -16.5 -208t-50.5 -127t-77 -61.5t-106 -17.5h-74v182h68q23 0 31 8.5t13 52.5t5 150v295q0 132 26.5 192t96.5 103q-70 43 -96.5 103t-26.5 192v295q0 106 -5 150t-13 52.5t-31 8.5h-68v182h74
q63 0 106 -17.5t77 -61.5t50.5 -127t16.5 -208v-294q0 -85 20.5 -117t73.5 -37z" />
    <glyph glyph-name="asciitilde" unicode="~" horiz-adv-x="780" 
d="M152 645h-93q58 166 189 166q48 0 98 -23.5t98 -47t88 -23.5t68 19t35 52h88q-29 -80 -76.5 -122.5t-105.5 -42.5q-48 0 -146 48t-145 48q-38 0 -64 -20t-34 -54z" />
    <glyph glyph-name="exclamdown" unicode="&#xa1;" horiz-adv-x="260" 
d="M201 922q8 -233 12.5 -410t7 -338.5t4.5 -232.5l4 -187h-196l4 187q2 71 4.5 232.5t7 338.5t12.5 410h140zM37 981v207h188v-207h-188z" />
    <glyph glyph-name="cent" unicode="&#xa2;" horiz-adv-x="503" 
d="M152 0l14 117q-65 23 -101 80.5t-36 140.5v758q0 107 61.5 171t163.5 64q19 0 51 -4l12 107h52l-15 -123q58 -27 90.5 -82t32.5 -131v-310h-182l-6 -61h188v-389q0 -106 -63 -171t-164 -65q-23 0 -33 2l-12 -104h-53zM233 709l48 399q-7 18 -23 18q-25 0 -25 -49v-368z
M258 307q25 0 25 49v324l-41 -363q5 -10 16 -10z" />
    <glyph glyph-name="sterling" unicode="&#xa3;" horiz-adv-x="376" 
d="M23 0v117q0 28 15 73t30.5 134.5t15.5 224.5q0 70 -16 414h-56v71h54q-3 41 -3 70q0 157 56 243.5t166 86.5h80v-226h-54q-8 0 -14.5 -2t-11 -7t-7.5 -10.5t-4.5 -15.5t-2 -19t-0.5 -24v-27.5t0.5 -32.5t0.5 -36h93v-71h-93q1 -33 9 -216.5t8 -265.5q0 -60 -6 -112.5
t-17 -110t-14 -80.5h113v-178h-342z" />
    <glyph glyph-name="yen" unicode="&#xa5;" horiz-adv-x="559" 
d="M516 1434l-106 -832h79v-76h-90l-14 -108h104v-76h-106v-342h-205v342h-110v76h106l-14 108h-92v76h84l-109 832h205l24 -570h15l24 570h205z" />
    <glyph glyph-name="section" unicode="&#xa7;" horiz-adv-x="483" 
d="M23 360h194v-127q0 -47 19 -47q20 0 20 50v114q0 37 -13.5 51.5t-49.5 24.5q-91 25 -130.5 76t-39.5 143v143q0 109 32 168q-32 43 -32 138v204q0 103 60.5 169.5t154.5 66.5q93 0 153 -66t60 -168v-186h-195v168q0 47 -18 47q-21 0 -21 -49v-156q0 -36 14 -50.5
t50 -24.5q91 -25 130.5 -76.5t39.5 -143.5v-143q0 -108 -27 -174q27 -42 27 -131v-164q0 -112 -64 -173.5t-151 -61.5q-86 0 -149.5 61.5t-63.5 171.5v145zM217 872v-202q0 -50 25 -64q14 -8 14 -4v182q0 71 -25 86q-12 7 -14 2z" />
    <glyph glyph-name="dieresis" unicode="&#xa8;" horiz-adv-x="483" 
d="M72 1268v125h147v-125h-147zM264 1268v125h148v-125h-148z" />
    <glyph glyph-name="copyright" unicode="&#xa9;" horiz-adv-x="768" 
d="M31 655v398q0 401 360 401q79 0 140 -20.5t108.5 -65.5t72.5 -124.5t25 -190.5v-398q0 -120 -26 -205t-74.5 -133.5t-110 -70t-141.5 -21.5t-141.5 21.5t-111 70t-75.5 133.5t-26 205zM96 639q0 -99 20.5 -168.5t60.5 -109t92 -57t122 -17.5q63 0 111 16t88 54t61 108
t21 170v430q0 181 -73.5 254.5t-207.5 73.5q-69 0 -120 -15t-92 -50.5t-62 -101t-21 -159.5v-428zM160 584v530q0 99 61.5 158t163.5 59q100 0 161.5 -64t61.5 -169v-207h-194v188q0 47 -25 47q-24 0 -24 -43v-481q0 -49 24 -49q25 0 25 49v227h194v-245q0 -106 -63 -171
t-164 -65q-100 0 -160.5 64.5t-60.5 171.5z" />
    <glyph glyph-name="ordfeminine" unicode="&#xaa;" horiz-adv-x="415" 
d="M23 1260q0 90 53 142t139 52q81 0 129.5 -45t48.5 -123v-561h-155v51h-7q-18 -61 -100 -61q-57 0 -82.5 31t-25.5 100v209q0 63 43.5 96.5t162.5 62.5h-2v74q0 35 -18 35q-16 0 -16 -35v-63h-170v35zM190 868q0 -30 17 -30q18 0 18 30v238q-20 -8 -27.5 -17t-7.5 -28
v-193z" />
    <glyph glyph-name="guillemotleft" unicode="&#xab;" horiz-adv-x="708" 
d="M16 713l263 260l65 -33l-223 -227l223 -230l-65 -32zM303 713l262 260l66 -33l-223 -227l223 -230l-66 -32z" />
    <glyph glyph-name="registered" unicode="&#xae;" horiz-adv-x="765" 
d="M29 1053v-398q0 -430 354 -430q352 0 352 430v398q0 203 -85.5 302t-260.5 99q-360 0 -360 -401zM94 639v428q0 169 71 247.5t224 78.5q143 0 212 -80.5t69 -247.5v-430q0 -177 -69 -262.5t-212 -85.5q-152 0 -223.5 85t-71.5 267zM391 1012v129q0 19 -7 24.5t-32 5.5
v-180q23 0 31 4.5t8 16.5zM352 387h-174v926h230q88 0 126.5 -34.5t38.5 -107.5v-182q0 -92 -45 -121l64 -481h-182l-45 467h-13v-467z" />
    <glyph glyph-name="degree" unicode="&#xb0;" horiz-adv-x="274" 
d="M35 1147v147q0 56 29.5 92.5t72.5 36.5q46 0 74.5 -35.5t28.5 -93.5v-147q0 -58 -28.5 -93.5t-74.5 -35.5q-43 0 -72.5 36.5t-29.5 92.5zM94 1145q0 -22 12.5 -37.5t30.5 -15.5q20 0 31.5 15t11.5 38v151q0 24 -11.5 40t-31.5 16q-19 0 -31 -16t-12 -40v-151z" />
    <glyph glyph-name="twosuperior" unicode="&#xb2;" horiz-adv-x="382" 
d="M246 946q-46 -48 -57 -70q-15 -29 -15 -69v-31h184v-151h-342v194q0 56 26.5 103.5t88.5 117.5q42 48 56 75t14 63v104q0 37 -17 37q-14 0 -14 -37v-141h-158v131q0 92 44.5 137t123.5 45q80 0 128 -45.5t48 -136.5v-117q0 -50 -25.5 -99t-84.5 -110z" />
    <glyph glyph-name="threesuperior" unicode="&#xb3;" horiz-adv-x="389" 
d="M139 981v139q45 0 56.5 4.5t11.5 22.5v115q0 34 -14 34q-17 0 -17 -34v-107h-156v105q0 194 168 194q179 0 179 -182v-144q0 -57 -33 -79q33 -18 33 -76v-166q0 -197 -172 -197q-86 0 -130.5 52t-44.5 151v129h156v-151q0 -27 17 -27q14 0 14 27v165q0 18 -12.5 21.5
t-55.5 3.5z" />
    <glyph glyph-name="acute" unicode="&#xb4;" horiz-adv-x="249" 
d="M227 1434l-157 -185h-47l49 185h155z" />
    <glyph glyph-name="periodcentered" unicode="&#xb7;" horiz-adv-x="548" 
d="M172 821h205v-209h-205v209z" />
    <glyph glyph-name="cedilla" unicode="&#xb8;" horiz-adv-x="202" 
d="M8 -238v76q24 -8 55 -8q46 0 46 31q0 17 -11 22.5t-41 5.5h-45l17 125h82l-9 -77h9q37 0 59.5 -22t22.5 -65q0 -45 -28.5 -72.5t-90.5 -27.5q-32 0 -66 12z" />
    <glyph glyph-name="onesuperior" unicode="&#xb9;" horiz-adv-x="278" 
d="M260 1434v-809h-178v598h-53v168h37q8 0 13 1.5t10 11.5t5 30h166z" />
    <glyph glyph-name="ordmasculine" unicode="&#xba;" horiz-adv-x="421" 
d="M20 920v352q0 89 49 135.5t142 46.5t142.5 -46.5t49.5 -133.5v-354q0 -201 -192 -201q-191 0 -191 201zM193 911q0 -30 18 -30q20 0 20 30v351q0 28 -20 28q-18 0 -18 -28v-351z" />
    <glyph glyph-name="guillemotright" unicode="&#xbb;" horiz-adv-x="645" 
d="M631 713l-262 -262l-66 32l223 230l-223 227l66 33zM344 713l-262 -262l-66 32l224 230l-224 227l66 33z" />
    <glyph glyph-name="questiondown" unicode="&#xbf;" horiz-adv-x="509" 
d="M190 743v179h189v-172q0 -122 -13 -176.5t-57 -118.5q-42 -61 -59 -106t-17 -95v-268q0 -47 27 -47q19 0 19 55v313h200v-348q0 -102 -60 -163.5t-159 -61.5q-102 0 -165.5 55.5t-63.5 147.5v319q0 127 92 260q46 65 56.5 107t10.5 120zM190 981v207h189v-207h-189z" />
    <glyph glyph-name="Agrave" unicode="&#xc0;" horiz-adv-x="534" 
d="M242 344l-6 -344h-226l94 1434h326l94 -1434h-225l-6 344h-51zM244 543h47l-10 598h-27zM145 1741h156l49 -185h-55z" />
    <glyph glyph-name="Aacute" unicode="&#xc1;" horiz-adv-x="534" 
d="M242 344l-6 -344h-226l94 1434h326l94 -1434h-225l-6 344h-51zM244 543h47l-10 598h-27zM371 1741l-158 -185h-47l49 185h156z" />
    <glyph glyph-name="Acircumflex" unicode="&#xc2;" horiz-adv-x="534" 
d="M242 344l-6 -344h-226l94 1434h326l94 -1434h-225l-6 344h-51zM186 1565h-96l131 155h94l134 -155h-97l-84 75zM244 543h47l-10 598h-27z" />
    <glyph glyph-name="Atilde" unicode="&#xc3;" horiz-adv-x="534" 
d="M242 344l-6 -344h-226l94 1434h326l94 -1434h-225l-6 344h-51zM190 1677q37 0 92 -24.5t78 -24.5q46 0 46 49h83q-6 -51 -39.5 -82.5t-82.5 -31.5q-33 0 -89 23.5t-83 23.5q-45 0 -45 -47h-87q6 51 41 82.5t86 31.5zM244 543h47l-10 598h-27z" />
    <glyph glyph-name="Adieresis" unicode="&#xc4;" horiz-adv-x="534" 
d="M242 344l-6 -344h-226l94 1434h326l94 -1434h-225l-6 344h-51zM244 543h47l-10 598h-27zM98 1575v125h148v-125h-148zM291 1575v125h147v-125h-147z" />
    <glyph glyph-name="Aring" unicode="&#xc5;" horiz-adv-x="534" 
d="M242 344l-6 -344h-226l94 1434h326l94 -1434h-225l-6 344h-51zM82 1663q0 47 51.5 78t142.5 31q90 0 141.5 -31t51.5 -78q0 -46 -51 -76.5t-142 -30.5q-92 0 -143 30.5t-51 76.5zM244 543h47l-10 598h-27zM184 1665q0 -43 92 -43q91 0 91 43q0 41 -91 41q-92 0 -92 -41z
" />
    <glyph glyph-name="AE" unicode="&#xc6;" horiz-adv-x="720" 
d="M352 0v344h-63l-13 -344h-225l117 1434h526v-185h-137v-278h137v-185h-137v-602h137v-184h-342zM297 543h49l-2 618h-27z" />
    <glyph glyph-name="Ccedilla" unicode="&#xc7;" horiz-adv-x="509" 
d="M485 821h-200v373q0 55 -25 55q-27 0 -27 -55v-954q0 -56 27 -56q25 0 25 56v534h200v-569q0 -100 -61 -162t-162 -63l-4 -43h8q37 0 59.5 -22t22.5 -65q0 -45 -28.5 -72.5t-90.5 -27.5q-31 0 -65 12v76q24 -8 55 -8q45 0 45 31q0 17 -10.5 22.5t-40.5 5.5h-45l12 101
q-71 21 -113 77.5t-42 137.5v1024q0 101 65 163t170 62q102 0 163.5 -61.5t61.5 -163.5v-408z" />
    <glyph glyph-name="Egrave" unicode="&#xc8;" horiz-adv-x="387" 
d="M23 0v1434h342v-185h-138v-278h138v-185h-138v-602h138v-184h-342zM72 1700h155l49 -184h-55z" />
    <glyph glyph-name="Eacute" unicode="&#xc9;" horiz-adv-x="387" 
d="M23 0v1434h342v-185h-138v-278h138v-185h-138v-602h138v-184h-342zM317 1700l-157 -184h-47l49 184h155z" />
    <glyph glyph-name="Ecircumflex" unicode="&#xca;" horiz-adv-x="387" 
d="M23 0v1434h342v-185h-138v-278h138v-185h-138v-602h138v-184h-342zM111 1524h-97l131 155h95l133 -155h-97l-83 75z" />
    <glyph glyph-name="Edieresis" unicode="&#xcb;" horiz-adv-x="387" 
d="M23 0v1434h342v-185h-138v-278h138v-185h-138v-602h138v-184h-342zM23 1554v125h147v-125h-147zM215 1554v125h147v-125h-147z" />
    <glyph glyph-name="Igrave" unicode="&#xcc;" horiz-adv-x="249" 
d="M227 1434v-1434h-204v1434h204zM-18 1720h155l49 -184h-55z" />
    <glyph glyph-name="Iacute" unicode="&#xcd;" horiz-adv-x="249" 
d="M227 1434v-1434h-204v1434h204zM227 1720l-157 -184h-47l49 184h155z" />
    <glyph glyph-name="Icircumflex" unicode="&#xce;" horiz-adv-x="249" 
d="M227 1434v-1434h-204v1434h204zM43 1524h-96l131 155h94l133 -155h-96l-84 75z" />
    <glyph glyph-name="Idieresis" unicode="&#xcf;" horiz-adv-x="249" 
d="M227 1434v-1434h-204v1434h204zM-45 1534v125h147v-125h-147zM147 1534v125h148v-125h-148z" />
    <glyph glyph-name="Ntilde" unicode="&#xd1;" horiz-adv-x="606" 
d="M23 0v1434h262l104 -867h14l-22 867h203v-1434h-262l-107 936h-12l22 -936h-202zM225 1636q37 0 92 -24.5t78 -24.5q45 0 45 49h84q-6 -51 -40 -82.5t-83 -31.5q-33 0 -89 23.5t-83 23.5q-45 0 -45 -47h-86q6 51 41 82.5t86 31.5z" />
    <glyph glyph-name="Ograve" unicode="&#xd2;" 
d="M485 1229v-1024q0 -101 -66 -163t-171 -62q-103 0 -166.5 62t-63.5 163v1024q0 101 65 163t169 62q103 0 168 -62t65 -163zM279 1194q0 55 -27 55q-29 0 -29 -55v-954q0 -56 29 -56q27 0 27 56v954zM109 1700h155l49 -184h-55z" />
    <glyph glyph-name="Oacute" unicode="&#xd3;" 
d="M485 1229v-1024q0 -101 -66 -163t-171 -62q-103 0 -166.5 62t-63.5 163v1024q0 101 65 163t169 62q103 0 168 -62t65 -163zM279 1194q0 55 -27 55q-29 0 -29 -55v-954q0 -56 29 -56q27 0 27 56v954zM375 1720l-158 -184h-47l49 184h156z" />
    <glyph glyph-name="Ocircumflex" unicode="&#xd4;" 
d="M485 1229v-1024q0 -101 -66 -163t-171 -62q-103 0 -166.5 62t-63.5 163v1024q0 101 65 163t169 62q103 0 168 -62t65 -163zM170 1524h-96l131 155h94l133 -155h-96l-84 75zM279 1194q0 55 -27 55q-29 0 -29 -55v-954q0 -56 29 -56q27 0 27 56v954z" />
    <glyph glyph-name="Otilde" unicode="&#xd5;" 
d="M485 1229v-1024q0 -101 -66 -163t-171 -62q-103 0 -166.5 62t-63.5 163v1024q0 101 65 163t169 62q103 0 168 -62t65 -163zM158 1636q37 0 92 -24.5t78 -24.5q45 0 45 49h84q-6 -51 -40 -82.5t-83 -31.5q-32 0 -89 23.5t-83 23.5q-45 0 -45 -47h-86q6 51 41 82.5t86 31.5
zM279 1194q0 55 -27 55q-29 0 -29 -55v-954q0 -56 29 -56q27 0 27 56v954z" />
    <glyph glyph-name="Odieresis" unicode="&#xd6;" 
d="M485 1229v-1024q0 -101 -66 -163t-171 -62q-103 0 -166.5 62t-63.5 163v1024q0 101 65 163t169 62q103 0 168 -62t65 -163zM279 1194q0 55 -27 55q-29 0 -29 -55v-954q0 -56 29 -56q27 0 27 56v954zM82 1534v125h147v-125h-147zM274 1534v125h148v-125h-148z" />
    <glyph glyph-name="multiply" unicode="&#xd7;" horiz-adv-x="391" 
d="M20 573l130 146l-130 143l46 49l127 -143l129 143l45 -49l-129 -145l129 -144l-45 -49l-129 144l-127 -144z" />
    <glyph glyph-name="Oslash" unicode="&#xd8;" 
d="M94 -59l12 79q-88 62 -88 185v1024q0 101 65 163t169 62q46 0 84 -12l6 35h68l-11 -68q86 -63 86 -180v-1024q0 -101 -66 -163t-171 -62q-38 0 -76 10l-8 -49h-70zM252 184q27 0 27 56v417l-56 -346v-71q0 -56 29 -56zM279 1194q0 55 -27 55q-29 0 -29 -55v-455l56 344
v111z" />
    <glyph glyph-name="Ugrave" unicode="&#xd9;" 
d="M272 1434h209v-1229q0 -101 -64 -163t-167 -62q-104 0 -167 62t-63 163v1229h201v-1188q0 -56 25 -56q26 0 26 56v1188zM109 1700h155l49 -184h-55z" />
    <glyph glyph-name="Uacute" unicode="&#xda;" 
d="M272 1434h209v-1229q0 -101 -64 -163t-167 -62q-104 0 -167 62t-63 163v1229h201v-1188q0 -56 25 -56q26 0 26 56v1188zM395 1700l-157 -184h-48l50 184h155z" />
    <glyph glyph-name="Ucircumflex" unicode="&#xdb;" 
d="M272 1434h209v-1229q0 -101 -64 -163t-167 -62q-104 0 -167 62t-63 163v1229h201v-1188q0 -56 25 -56q26 0 26 56v1188zM170 1524h-96l131 155h94l133 -155h-96l-84 75z" />
    <glyph glyph-name="Udieresis" unicode="&#xdc;" 
d="M272 1434h209v-1229q0 -101 -64 -163t-167 -62q-104 0 -167 62t-63 163v1229h201v-1188q0 -56 25 -56q26 0 26 56v1188zM82 1534v125h147v-125h-147zM274 1534v125h148v-125h-148z" />
    <glyph glyph-name="Yacute" unicode="&#xdd;" horiz-adv-x="559" 
d="M516 1434l-133 -848v-586h-205v573l-135 861h205l26 -424h11l26 424h205zM424 1700l-158 -184h-47l49 184h156z" />
    <glyph glyph-name="germandbls" unicode="&#xdf;" horiz-adv-x="526" 
d="M252 745v201h4q14 0 21.5 1t15.5 11.5t8 30.5v195q0 28 -17.5 36.5t-60.5 8.5v-1249h-200v1454h272q215 0 215 -211v-254q0 -91 -41 -119v-8q41 -28 41 -119v-449q0 -97 -13.5 -161t-50.5 -113h-198q53 85 53 299v403q0 43 -49 43z" />
    <glyph glyph-name="agrave" unicode="&#xe0;" horiz-adv-x="477" 
d="M23 924q0 117 63.5 193.5t161.5 76.5q91 0 149 -68t58 -174v-952h-174q-11 51 -13 86h-4q-18 -100 -114 -100q-61 0 -94 38.5t-33 110.5v443q0 72 44 121.5t142 84.5q32 10 42.5 21t10.5 33v116q0 39 -22 39q-23 0 -23 -35v-120h-194v86zM217 236q0 -50 23 -50
q8 0 13 4.5t6.5 14t2 14.5t0.5 17v393q-27 -15 -36 -31t-9 -49v-313zM117 1434h155l50 -185h-56z" />
    <glyph glyph-name="aacute" unicode="&#xe1;" horiz-adv-x="477" 
d="M23 924q0 117 63.5 193.5t161.5 76.5q91 0 149 -68t58 -174v-952h-174q-11 51 -13 86h-4q-18 -100 -114 -100q-61 0 -94 38.5t-33 110.5v443q0 72 44 121.5t142 84.5q32 10 42.5 21t10.5 33v116q0 39 -22 39q-23 0 -23 -35v-120h-194v86zM217 236q0 -50 23 -50
q8 0 13 4.5t6.5 14t2 14.5t0.5 17v393q-27 -15 -36 -31t-9 -49v-313zM362 1434l-157 -185h-47l49 185h155z" />
    <glyph glyph-name="acircumflex" unicode="&#xe2;" horiz-adv-x="477" 
d="M23 924q0 117 63.5 193.5t161.5 76.5q91 0 149 -68t58 -174v-952h-174q-11 51 -13 86h-4q-18 -100 -114 -100q-61 0 -94 38.5t-33 110.5v443q0 72 44 121.5t142 84.5q32 10 42.5 21t10.5 33v116q0 39 -22 39q-23 0 -23 -35v-120h-194v86zM158 1237h-97l132 156h94
l133 -156h-96l-84 76zM217 236q0 -50 23 -50q8 0 13 4.5t6.5 14t2 14.5t0.5 17v393q-27 -15 -36 -31t-9 -49v-313z" />
    <glyph glyph-name="atilde" unicode="&#xe3;" horiz-adv-x="477" 
d="M23 924q0 117 63.5 193.5t161.5 76.5q91 0 149 -68t58 -174v-952h-174q-11 51 -13 86h-4q-18 -100 -114 -100q-61 0 -94 38.5t-33 110.5v443q0 72 44 121.5t142 84.5q32 10 42.5 21t10.5 33v116q0 39 -22 39q-23 0 -23 -35v-120h-194v86zM162 1391q37 0 92 -25t78 -25
q45 0 45 50h84q-6 -51 -40 -83t-83 -32q-32 0 -89 23.5t-83 23.5q-45 0 -45 -47h-86q6 51 41 83t86 32zM217 236q0 -50 23 -50q8 0 13 4.5t6.5 14t2 14.5t0.5 17v393q-27 -15 -36 -31t-9 -49v-313z" />
    <glyph glyph-name="adieresis" unicode="&#xe4;" horiz-adv-x="477" 
d="M23 924q0 117 63.5 193.5t161.5 76.5q91 0 149 -68t58 -174v-952h-174q-11 51 -13 86h-4q-18 -100 -114 -100q-61 0 -94 38.5t-33 110.5v443q0 72 44 121.5t142 84.5q32 10 42.5 21t10.5 33v116q0 39 -22 39q-23 0 -23 -35v-120h-194v86zM217 236q0 -50 23 -50
q8 0 13 4.5t6.5 14t2 14.5t0.5 17v393q-27 -15 -36 -31t-9 -49v-313zM68 1268v125h147v-125h-147zM260 1268v125h148v-125h-148z" />
    <glyph glyph-name="aring" unicode="&#xe5;" horiz-adv-x="477" 
d="M23 924q0 117 63.5 193.5t161.5 76.5q91 0 149 -68t58 -174v-952h-174q-11 51 -13 86h-4q-18 -100 -114 -100q-61 0 -94 38.5t-33 110.5v443q0 72 44 121.5t142 84.5q32 10 42.5 21t10.5 33v116q0 39 -22 39q-23 0 -23 -35v-120h-194v86zM217 236q0 -50 23 -50
q8 0 13 4.5t6.5 14t2 14.5t0.5 17v393q-27 -15 -36 -31t-9 -49v-313zM53 1376q0 47 52 78t143 31q90 0 141 -31t51 -78q0 -46 -50.5 -76t-141.5 -30q-92 0 -143.5 30t-51.5 76zM156 1378q0 -43 92 -43q90 0 90 43q0 41 -90 41q-92 0 -92 -41z" />
    <glyph glyph-name="ae" unicode="&#xe6;" horiz-adv-x="720" 
d="M10 948q0 246 226 246q50 0 102 -27q56 41 137 41q100 0 161.5 -64t61.5 -169v-330h-243v-412q0 -49 24 -49q25 0 25 49v371h194v-387q0 -104 -60.5 -168.5t-160.5 -64.5q-66 0 -114 26.5t-66 75.5h-4q-17 -102 -135 -102q-71 0 -109.5 37.5t-38.5 109.5v442
q0 58 17 95.5t71 67.5t152 44v174q0 54 -23 54q-22 0 -22 -54v-137h-195v131zM205 236q0 -12 0.5 -17t2 -14.5t6.5 -14t13 -4.5q23 0 23 50v378q-27 -9 -36 -24.5t-9 -54.5v-299zM455 795h49v161q0 48 -25 48q-24 0 -24 -50v-159z" />
    <glyph glyph-name="ccedilla" unicode="&#xe7;" horiz-adv-x="503" 
d="M160 -238v76q24 -8 55 -8q45 0 45 31q0 17 -10.5 22.5t-40.5 5.5h-45l12 99q-71 20 -112 80t-41 147v758q0 107 61.5 171t163.5 64q100 0 161.5 -64t61.5 -169v-309h-195v290q0 48 -24 48q-25 0 -25 -50v-721q0 -49 25 -49q24 0 24 49v371h195v-389q0 -102 -58.5 -166
t-154.5 -69l-4 -43h8q37 0 59.5 -22t22.5 -65q0 -45 -28.5 -72.5t-90.5 -27.5q-31 0 -65 12z" />
    <glyph glyph-name="egrave" unicode="&#xe8;" horiz-adv-x="493" 
d="M23 215v758q0 107 61.5 171t163.5 64q100 0 161.5 -64t61.5 -169v-330h-244v-412q0 -49 25 -49q24 0 24 49v371h195v-389q0 -106 -63 -170.5t-164 -64.5q-100 0 -160.5 64t-60.5 171zM227 815h49v141q0 48 -24 48q-25 0 -25 -50v-139zM125 1434h156l49 -185h-56z" />
    <glyph glyph-name="eacute" unicode="&#xe9;" horiz-adv-x="493" 
d="M23 215v758q0 107 61.5 171t163.5 64q100 0 161.5 -64t61.5 -169v-330h-244v-412q0 -49 25 -49q24 0 24 49v371h195v-389q0 -106 -63 -170.5t-164 -64.5q-100 0 -160.5 64t-60.5 171zM227 815h49v141q0 48 -24 48q-25 0 -25 -50v-139zM371 1434l-158 -185h-47l49 185h156
z" />
    <glyph glyph-name="ecircumflex" unicode="&#xea;" horiz-adv-x="493" 
d="M23 215v758q0 107 61.5 171t163.5 64q100 0 161.5 -64t61.5 -169v-330h-244v-412q0 -49 25 -49q24 0 24 49v371h195v-389q0 -106 -63 -170.5t-164 -64.5q-100 0 -160.5 64t-60.5 171zM166 1237h-96l131 156h94l133 -156h-96l-84 76zM227 815h49v141q0 48 -24 48
q-25 0 -25 -50v-139z" />
    <glyph glyph-name="edieresis" unicode="&#xeb;" horiz-adv-x="493" 
d="M23 215v758q0 107 61.5 171t163.5 64q100 0 161.5 -64t61.5 -169v-330h-244v-412q0 -49 25 -49q24 0 24 49v371h195v-389q0 -106 -63 -170.5t-164 -64.5q-100 0 -160.5 64t-60.5 171zM227 815h49v141q0 48 -24 48q-25 0 -25 -50v-139zM78 1247v125h147v-125h-147z
M270 1247v125h148v-125h-148z" />
    <glyph glyph-name="igrave" unicode="&#xec;" horiz-adv-x="237" 
d="M217 1188v-1188h-197v1188h197zM-4 1434h156l49 -185h-56z" />
    <glyph glyph-name="iacute" unicode="&#xed;" horiz-adv-x="237" 
d="M217 1188v-1188h-197v1188h197zM242 1434l-158 -185h-47l49 185h156z" />
    <glyph glyph-name="icircumflex" unicode="&#xee;" horiz-adv-x="237" 
d="M217 1188v-1188h-197v1188h197zM37 1257h-96l131 156h94l133 -156h-96l-84 76z" />
    <glyph glyph-name="idieresis" unicode="&#xef;" horiz-adv-x="237" 
d="M217 1188v-1188h-197v1188h197zM-51 1268v125h147v-125h-147zM141 1268v125h148v-125h-148z" />
    <glyph glyph-name="ntilde" unicode="&#xf1;" horiz-adv-x="477" 
d="M262 0v983q0 33 -22 33q-23 0 -23 -33v-983h-197v1188h197v-70h4q26 90 109 90q61 0 94 -40t33 -103v-1065h-195zM141 1370q37 0 92 -24.5t78 -24.5q45 0 45 49h84q-6 -51 -40 -83t-83 -32q-33 0 -89 24t-83 24q-45 0 -45 -48h-86q6 51 41 83t86 32z" />
    <glyph glyph-name="ograve" unicode="&#xf2;" horiz-adv-x="503" 
d="M23 215v758q0 107 63 171t166 64t166 -64t63 -169v-760q0 -105 -63.5 -170t-165.5 -65q-104 0 -166.5 64t-62.5 171zM227 233q0 -49 25 -49q24 0 24 49v723q0 48 -24 48q-25 0 -25 -50v-721zM150 1434h155l49 -185h-55z" />
    <glyph glyph-name="oacute" unicode="&#xf3;" horiz-adv-x="503" 
d="M23 215v758q0 107 63 171t166 64t166 -64t63 -169v-760q0 -105 -63.5 -170t-165.5 -65q-104 0 -166.5 64t-62.5 171zM227 233q0 -49 25 -49q24 0 24 49v723q0 48 -24 48q-25 0 -25 -50v-721zM354 1434l-157 -185h-47l49 185h155z" />
    <glyph glyph-name="ocircumflex" unicode="&#xf4;" horiz-adv-x="503" 
d="M23 215v758q0 107 63 171t166 64t166 -64t63 -169v-760q0 -105 -63.5 -170t-165.5 -65q-104 0 -166.5 64t-62.5 171zM170 1257h-96l131 156h94l133 -156h-96l-84 76zM227 233q0 -49 25 -49q24 0 24 49v723q0 48 -24 48q-25 0 -25 -50v-721z" />
    <glyph glyph-name="otilde" unicode="&#xf5;" horiz-adv-x="503" 
d="M23 215v758q0 107 63 171t166 64t166 -64t63 -169v-760q0 -105 -63.5 -170t-165.5 -65q-104 0 -166.5 64t-62.5 171zM174 1370q37 0 92 -24.5t78 -24.5q45 0 45 49h84q-6 -51 -40 -83t-83 -32q-32 0 -89 24t-83 24q-45 0 -45 -48h-86q6 51 41 83t86 32zM227 233
q0 -49 25 -49q24 0 24 49v723q0 48 -24 48q-25 0 -25 -50v-721z" />
    <glyph glyph-name="odieresis" unicode="&#xf6;" horiz-adv-x="503" 
d="M23 215v758q0 107 63 171t166 64t166 -64t63 -169v-760q0 -105 -63.5 -170t-165.5 -65q-104 0 -166.5 64t-62.5 171zM227 233q0 -49 25 -49q24 0 24 49v723q0 48 -24 48q-25 0 -25 -50v-721zM82 1268v125h147v-125h-147zM274 1268v125h148v-125h-148z" />
    <glyph glyph-name="oslash" unicode="&#xf8;" horiz-adv-x="503" 
d="M119 -80l14 88q-53 28 -81.5 81.5t-28.5 125.5v758q0 107 63 171t166 64q33 0 63 -6l11 70h61l-14 -92q108 -62 108 -205v-760q0 -105 -63.5 -170t-165.5 -65q-32 0 -59 6l-11 -66h-63zM252 184q24 0 24 49v310l-49 -322q5 -37 25 -37zM227 629l49 321v6q0 48 -24 48
q-25 0 -25 -50v-325z" />
    <glyph glyph-name="ugrave" unicode="&#xf9;" horiz-adv-x="479" 
d="M215 1188v-963q0 -32 23 -32q22 0 22 32v963h197v-1188h-197v70h-4q-26 -86 -106 -86q-60 0 -95 37.5t-35 101.5v1065h195zM137 1434h156l49 -185h-55z" />
    <glyph glyph-name="uacute" unicode="&#xfa;" horiz-adv-x="479" 
d="M215 1188v-963q0 -32 23 -32q22 0 22 32v963h197v-1188h-197v70h-4q-26 -86 -106 -86q-60 0 -95 37.5t-35 101.5v1065h195zM383 1434l-158 -185h-47l49 185h156z" />
    <glyph glyph-name="ucircumflex" unicode="&#xfb;" horiz-adv-x="479" 
d="M215 1188v-963q0 -32 23 -32q22 0 22 32v963h197v-1188h-197v70h-4q-26 -86 -106 -86q-60 0 -95 37.5t-35 101.5v1065h195zM158 1257h-97l132 156h94l133 -156h-96l-84 76z" />
    <glyph glyph-name="udieresis" unicode="&#xfc;" horiz-adv-x="479" 
d="M215 1188v-963q0 -32 23 -32q22 0 22 32v963h197v-1188h-197v70h-4q-26 -86 -106 -86q-60 0 -95 37.5t-35 101.5v1065h195zM70 1268v125h147v-125h-147zM262 1268v125h148v-125h-148z" />
    <glyph glyph-name="yacute" unicode="&#xfd;" horiz-adv-x="471" 
d="M213 1188l6 -877q0 -51 17 -51q16 0 16 51l6 877h205l-82 -1258q-12 -202 -193 -202h-125v204q66 -5 101 5t39 45l2 18h-119l-76 1188h203zM358 1434l-157 -185h-47l49 185h155z" />
    <glyph glyph-name="ydieresis" unicode="&#xff;" horiz-adv-x="471" 
d="M213 1188l6 -877q0 -51 17 -51q16 0 16 51l6 877h205l-82 -1258q-12 -202 -193 -202h-125v204q66 -5 101 5t39 45l2 18h-119l-76 1188h203zM66 1268v125h147v-125h-147zM258 1268v125h148v-125h-148z" />
    <glyph glyph-name="dotlessi" unicode="&#x131;" horiz-adv-x="237" 
d="M217 1188v-1188h-197v1188h197z" />
    <glyph glyph-name="OE" unicode="&#x152;" horiz-adv-x="888" 
d="M524 0v791h-39v-586q0 -101 -66 -163t-171 -62q-103 0 -166.5 62t-63.5 163v1024q0 101 65 163t169 62q103 0 168 -62t65 -163v-258h39v463h342v-185h-137v-278h137v-185h-137v-602h137v-184h-342zM279 1194q0 55 -27 55q-29 0 -29 -55v-954q0 -56 29 -56q27 0 27 56v954
z" />
    <glyph glyph-name="oe" unicode="&#x153;" horiz-adv-x="747" 
d="M23 215v758q0 106 60.5 170.5t154.5 64.5q51 0 86 -18t51 -43h8q13 26 47.5 43.5t83.5 17.5q92 0 151.5 -64.5t59.5 -168.5v-330h-244v-412q0 -49 25 -49q24 0 24 49v371h195v-389q0 -105 -61 -170t-156 -65q-94 0 -129 59h-4q-40 -59 -137 -59q-95 0 -155 64.5
t-60 170.5zM227 233q0 -49 25 -49q24 0 24 49v723q0 48 -24 48q-25 0 -25 -50v-721zM481 815h49v141q0 48 -24 48q-25 0 -25 -50v-139z" />
    <glyph glyph-name="Scaron" unicode="&#x160;" horiz-adv-x="491" 
d="M223 1194v-190q0 -50 7.5 -73t25.5 -37.5t68 -39.5q85 -43 115 -100.5t30 -180.5v-368q0 -101 -63.5 -163t-165.5 -62q-100 0 -160 62t-60 163v409h201v-374q0 -56 21 -56q24 0 24 56v346q0 28 -15.5 46t-72.5 52q-53 31 -85.5 64t-52.5 87.5t-20 129.5v264q0 101 64 163
t166 62q99 0 159 -61.5t60 -163.5v-287h-201v252q0 55 -18 55q-27 0 -27 -55zM293 1544h-94l-131 156h96l82 -78l84 78h96z" />
    <glyph glyph-name="scaron" unicode="&#x161;" horiz-adv-x="473" 
d="M217 954v-141q0 -39 15 -58t59 -46q42 -26 65 -43.5t48 -44.5t36 -60.5t11 -77.5v-266q0 -103 -60.5 -169t-154.5 -66q-93 0 -153 65.5t-60 167.5v289h194v-271q0 -47 19 -47q20 0 20 50v237q0 15 -2.5 24.5t-12.5 19t-18.5 14.5t-33 19t-42.5 25q-43 26 -66.5 48
t-40.5 63.5t-17 101.5v205q0 94 61 153.5t156 59.5q94 0 152.5 -59.5t58.5 -153.5v-205h-195v168q0 48 -20 48q-19 0 -19 -50zM285 1257h-95l-131 156h97l82 -78l84 78h96z" />
    <glyph glyph-name="Ydieresis" unicode="&#x178;" horiz-adv-x="559" 
d="M516 1434l-133 -848v-586h-205v573l-135 861h205l26 -424h11l26 424h205zM111 1534v125h147v-125h-147zM303 1534v125h148v-125h-148z" />
    <glyph glyph-name="zcaron" unicode="&#x17e;" horiz-adv-x="419" 
d="M408 1188v-141l-185 -852h178v-195h-378v143l184 848h-178v197h379zM258 1257h-94l-131 156h96l82 -78l84 78h96z" />
    <glyph glyph-name="circumflex" unicode="&#x2c6;" horiz-adv-x="403" 
d="M121 1257h-96l131 156h94l133 -156h-96l-84 76z" />
    <glyph glyph-name="caron" unicode="&#x2c7;" horiz-adv-x="405" 
d="M250 1257h-94l-131 156h96l82 -78l84 78h96z" />
    <glyph glyph-name="breve" unicode="&#x2d8;" horiz-adv-x="481" 
d="M10 1432h66q14 -34 59 -58t107 -24q60 0 105 24t59 58h65q-18 -70 -82 -118t-149 -48t-150 47.5t-80 118.5z" />
    <glyph glyph-name="ring" unicode="&#x2da;" horiz-adv-x="485" 
d="M59 1376q0 47 52 78t143 31q90 0 141 -31t51 -78q0 -46 -50.5 -76t-141.5 -30q-92 0 -143.5 30t-51.5 76zM162 1378q0 -43 92 -43q90 0 90 43q0 41 -90 41q-92 0 -92 -41z" />
    <glyph glyph-name="ogonek" unicode="&#x2db;" horiz-adv-x="251" 
d="M217 -145v-88q-43 -21 -67 -21q-55 0 -87 31.5t-32 83.5q0 45 25.5 82t74.5 82h80q-82 -74 -82 -131q0 -24 10 -35t35 -11q12 0 43 7z" />
    <glyph glyph-name="tilde" unicode="&#x2dc;" horiz-adv-x="442" 
d="M137 1391q37 0 92 -25t78 -25q45 0 45 50h84q-6 -51 -40 -83t-83 -32q-33 0 -89 23.5t-83 23.5q-45 0 -45 -47h-86q6 51 41 83t86 32z" />
    <glyph glyph-name="endash" unicode="&#x2013;" horiz-adv-x="862" 
d="M72 672v92h721v-92h-721z" />
    <glyph glyph-name="emdash" unicode="&#x2014;" horiz-adv-x="1316" 
d="M72 672v92h1171v-92h-1171z" />
    <glyph glyph-name="quoteleft" unicode="&#x2018;" horiz-adv-x="258" 
d="M223 1167h-194v211l55 164h96l-33 -162h76v-213z" />
    <glyph glyph-name="quoteright" unicode="&#x2019;" horiz-adv-x="258" 
d="M29 1542h194v-211l-53 -164h-98l32 162h-75v213z" />
    <glyph glyph-name="quotesinglbase" unicode="&#x201a;" horiz-adv-x="264" 
d="M31 211h205v-211l-58 -164h-102l35 162h-80v213z" />
    <glyph glyph-name="quotedblleft" unicode="&#x201c;" horiz-adv-x="514" 
d="M477 1167h-194v211l53 164h98l-33 -162h76v-213zM223 1167h-194v211l55 164h96l-33 -162h76v-213z" />
    <glyph glyph-name="quotedblright" unicode="&#x201d;" horiz-adv-x="516" 
d="M29 1542h194v-211l-53 -164h-98l32 162h-75v213zM283 1542h194v-211l-55 -164h-96l32 162h-75v213z" />
    <glyph glyph-name="quotedblbase" unicode="&#x201e;" horiz-adv-x="505" 
d="M29 211h194v-211l-53 -164h-98l32 162h-75v213zM283 211h194v-211l-55 -164h-96l32 162h-75v213z" />
    <glyph glyph-name="dagger" unicode="&#x2020;" horiz-adv-x="415" 
d="M164 678l10 594l-145 -10v79l145 -10l-10 207h82l-10 -207l145 10v-79l-145 10l10 -594h-82z" />
    <glyph glyph-name="bullet" unicode="&#x2022;" horiz-adv-x="770" 
d="M197 694v49q0 83 39 117.5t149 34.5t149 -34.5t39 -117.5v-49q0 -83 -39 -118t-149 -35t-149 35t-39 118z" />
    <glyph glyph-name="ellipsis" unicode="&#x2026;" horiz-adv-x="780" 
d="M29 211h204v-209h-204v209zM289 211h205v-209h-205v209zM549 211h205v-209h-205v209z" />
    <glyph glyph-name="guilsinglleft" unicode="&#x2039;" horiz-adv-x="362" 
d="M16 713l263 260l65 -33l-223 -227l223 -230l-65 -32z" />
    <glyph glyph-name="guilsinglright" unicode="&#x203a;" horiz-adv-x="366" 
d="M340 713l-262 -262l-66 32l224 230l-224 227l66 33z" />
    <glyph glyph-name="Euro" unicode="&#x20ac;" horiz-adv-x="491" 
d="M-27 694h45v47h-45v76h45v412q0 101 65.5 163t170.5 62q102 0 163.5 -61.5t61.5 -163.5v-367h-200v332q0 55 -25 55q-27 0 -27 -55v-377h230v-76h-230v-47h230v-76h-230v-378q0 -56 27 -56q25 0 25 56v329h200v-364q0 -102 -62.5 -163.5t-166.5 -61.5q-103 0 -167.5 62
t-64.5 163v413h-45v76z" />
    <glyph glyph-name="trademark" unicode="&#x2122;" horiz-adv-x="886" 
d="M131 842v475h-100v117h540l29 -375h6l29 375h219v-592h-139l-6 409h-9l-26 -409h-142l-28 409h-8l-4 -409h-140v475h-69v-475h-152z" />
    <glyph glyph-name="ampersand.alt" horiz-adv-x="659" 
d="M573 897h62v-192h-62v-424q0 -33 9 -44.5t36 -11.5h23v-235h-43q-81 0 -128.5 32t-70.5 109q-74 -151 -215 -151q-83 0 -119 51t-36 159v498q0 88 45 117q-24 13 -33.5 37.5t-9.5 68.5v310q0 104 63.5 168.5t165.5 64.5q99 0 159 -64t60 -169v-109h-200v78q0 59 -23 59
t-23 -59v-248q0 -32 20.5 -38.5t108.5 -6.5h15v107h196v-107zM362 705q-84 0 -106.5 -7.5t-22.5 -38.5v-399q0 -43 15 -43q18 0 31 45l98 320v123h-15z" />
    <glyph glyph-name="a.alt" horiz-adv-x="477" 
d="M260 219v764q0 33 -22 33q-23 0 -23 -33v-764q0 -33 23 -33q22 0 22 33zM457 0h-191v61h-4q-23 -79 -110 -79q-65 0 -98.5 44t-33.5 119v899q0 75 31.5 119.5t95.5 44.5q80 0 109 -69h4v49h197v-1188z" />
    <glyph glyph-name="g.alt" horiz-adv-x="479" 
d="M262 330v651q0 33 -22 33q-23 0 -23 -33v-651q0 -33 23 -33q22 0 22 33zM23 59h198v-151q0 -47 21 -47q20 0 20 47v266h-4q-30 -70 -108 -70q-61 0 -94 43t-33 121v776q0 78 32 121t92 43q80 0 111 -69h4v51h197v-1231q0 -266 -209 -266q-227 0 -227 266v100z" />
    <glyph glyph-name="y.alt" horiz-adv-x="479" 
d="M459 -41q0 -266 -209 -266q-227 0 -227 266v100h198v-153q0 -39 21 -39q20 0 20 39v268h-4q-30 -70 -108 -70q-61 0 -94 43t-33 121v920h194v-858q0 -33 23 -33q22 0 22 33v858h197v-1229z" />
    </font>
</defs>
</svg>
