<svg width="770" height="764" viewBox="0 0 770 764" fill="none" xmlns="http://www.w3.org/2000/svg">
<g clip-path="url(#clip0_44_12864)">
<path d="M768.381 100.799H25.7249V695.485H768.381V100.799Z" stroke="white" stroke-width="1.86432" stroke-miterlimit="10"/>
<g id="ball">
<path d="M130.43 512.877C133.284 477.178 106.657 445.926 70.959 443.072C35.2606 440.219 4.00825 466.845 1.15484 502.544C-1.69857 538.242 24.9275 569.494 60.6259 572.348C96.3243 575.201 127.577 548.575 130.43 512.877Z" fill="#ED6D2E" stroke="#000100" stroke-width="1.86432" stroke-miterlimit="10"/>
<path d="M33.9185 451.196L97.6656 564.152" stroke="#000100" stroke-width="1.86432" stroke-miterlimit="10"/>
<path d="M9.30591 539.54L122.277 475.808" stroke="#000100" stroke-width="1.86432" stroke-miterlimit="10"/>
<path d="M7.05005 480.211C7.05005 480.211 27.6672 500.546 53.5327 485.96C79.3981 471.375 72.6458 443.191 72.6458 443.191" stroke="#000100" stroke-width="1.86432" stroke-miterlimit="10"/>
<path d="M124.534 535.122C124.534 535.122 103.916 514.787 78.051 529.372C52.1855 543.974 58.9378 572.142 58.9378 572.142" stroke="#000100" stroke-width="1.86432" stroke-miterlimit="10"/>
</g>
<path d="M24.0953 195.738L10.9041 221.384L61.3033 255.506L92.8557 204.245L72.1289 186.291L24.0953 195.738Z" fill="white" stroke="#000100" stroke-width="1.86432" stroke-miterlimit="10"/>
<path d="M10.9041 221.384L93.0437 205.232" stroke="#000100" stroke-width="1.86432" stroke-miterlimit="10"/>
<path d="M61.3035 255.506L33.0098 217.044L46.0443 191.43L70.0141 209.759L61.3035 255.506Z" stroke="#000100" stroke-width="1.86432" stroke-miterlimit="10"/>
<g className="diamond">
<path d="M680.978 549.974L653.718 559.405L666.581 618.907L724.813 603.632L722.228 576.341L680.978 549.974Z" fill="white" stroke="#000100" stroke-width="1.86432" stroke-miterlimit="10"/>
<path d="M653.718 559.405L724.265 604.493" stroke="#000100" stroke-width="1.86432" stroke-miterlimit="10"/>
<path d="M666.58 618.907L672.706 571.531L699.825 562.021L704.478 591.851L666.58 618.907Z" stroke="#000100" stroke-width="1.86432" stroke-miterlimit="10"/>
</g>
<path d="M79.4138 348.941C79.4138 348.941 92.9027 346.591 96.13 330.47C96.13 330.47 99.3573 346.889 112.846 348.941C112.846 348.941 97.7437 351.087 96.13 367.694C96.13 367.694 94.7514 352.106 79.4138 348.941Z" fill="#ED6D2E" stroke="#000100" stroke-width="1.86432" stroke-miterlimit="10"/>
<path d="M568.821 621.225C568.821 621.225 582.31 618.875 585.537 602.754C585.537 602.754 588.764 619.173 602.253 621.225C602.253 621.225 587.151 623.372 585.537 639.978C585.537 639.978 584.158 624.39 568.821 621.225Z" fill="#ED6D2E" stroke="#000100" stroke-width="1.86432" stroke-miterlimit="10"/>
<path d="M506.844 69.826C506.844 69.826 520.333 67.476 523.56 51.3551C523.56 51.3551 526.787 67.7736 540.276 69.826C540.276 69.826 525.174 71.9723 523.56 88.5788C523.56 88.5788 522.182 72.9906 506.844 69.826Z" fill="#ED6D2E" stroke="#000100" stroke-width="1.86432" stroke-miterlimit="10"/>
<path d="M733.503 427.676L624.423 389.156C621.437 388.102 618.161 389.668 617.107 392.654L595.551 453.693C594.497 456.68 596.063 459.955 599.049 461.01L708.129 499.53C711.115 500.584 714.39 499.018 715.445 496.032L737 434.992C738.055 432.006 736.489 428.731 733.503 427.676Z" fill="white" stroke="#000100" stroke-width="1.75465" stroke-miterlimit="10"/>
<path d="M627.649 409.523L637.816 404.667L713.376 431.347L718.279 441.608L706.843 473.976L616.196 441.953L627.649 409.523Z" fill="#000100"/>
<path d="M686.069 457.479L642.422 442.063C636.156 439.854 632.881 432.992 635.09 426.725C637.299 420.474 644.161 417.184 650.428 419.393L694.075 434.809C700.326 437.018 703.616 443.88 701.407 450.147C699.198 456.398 692.336 459.688 686.069 457.479Z" fill="white"/>
<path d="M615.758 466.925L626.803 454.659L691.709 477.579L691.615 493.715" stroke="#000100" stroke-width="1.75465" stroke-miterlimit="10"/>
<path d="M652.621 432.929C651.54 435.984 648.203 437.582 645.148 436.501C642.093 435.42 640.495 432.083 641.576 429.028C642.657 425.973 645.994 424.375 649.049 425.456C652.104 426.537 653.702 429.874 652.621 432.929Z" fill="#000100"/>
<path d="M692.696 447.076C691.615 450.131 688.278 451.729 685.223 450.648C682.168 449.567 680.57 446.23 681.651 443.175C682.732 440.12 686.069 438.522 689.124 439.603C692.179 440.684 693.777 444.021 692.696 447.076Z" fill="#000100"/>
<path d="M677.308 437.051L659.271 430.681L656.391 438.835L674.428 445.205L677.308 437.051Z" fill="#000100"/>
<path d="M220.742 568.398H159.642V593.417H220.742V568.398Z" stroke="#000100" stroke-width="1.86432" stroke-miterlimit="10"/>
<path d="M281.841 568.398H220.742V593.417H281.841V568.398Z" stroke="#000100" stroke-width="1.86432" stroke-miterlimit="10"/>
<path d="M220.742 618.437H159.642V643.456H220.742V618.437Z" stroke="#000100" stroke-width="1.86432" stroke-miterlimit="10"/>
<path d="M190.192 593.417H129.093V618.437H190.192V593.417Z" stroke="#000100" stroke-width="1.86432" stroke-miterlimit="10"/>
<path d="M251.292 593.417H190.192V618.437H251.292V593.417Z" stroke="#000100" stroke-width="1.86432" stroke-miterlimit="10"/>
<path d="M693.009 314.083H631.91V339.102H693.009V314.083Z" stroke="#000100" stroke-width="1.86432" stroke-miterlimit="10"/>
<path d="M662.46 289.063H601.36V314.083H662.46V289.063Z" stroke="#000100" stroke-width="1.86432" stroke-miterlimit="10"/>
<path d="M723.559 289.063H662.46V314.083H723.559V289.063Z" stroke="#000100" stroke-width="1.86432" stroke-miterlimit="10"/>
<path d="M190.756 455.818L173.366 501.611" stroke="#000100" stroke-width="1.75465" stroke-miterlimit="10"/>
<path d="M204.198 384.426L180.259 467.803L190.427 471.657L228.559 393.92L204.198 384.426Z" fill="white" stroke="#000100" stroke-width="1.86432" stroke-miterlimit="10"/>
<path d="M236.424 389.611C232.774 399.199 222.058 404.009 212.47 400.374C202.882 396.724 198.072 386.008 201.707 376.42C205.357 366.832 216.073 362.023 225.661 365.657C235.249 369.307 240.059 380.023 236.424 389.611Z" fill="#DF377E"/>
<path d="M197.164 408.944L217.421 416.636" stroke="#000100" stroke-width="1.86432" stroke-miterlimit="10"/>
<path d="M187.466 442.752L201.911 448.235" stroke="#000100" stroke-width="1.86432" stroke-miterlimit="10"/>
<path d="M700.623 133.902L685.051 145.527" stroke="#000100" stroke-width="1.86432" stroke-miterlimit="10"/>
<path d="M690.138 177.605C700.674 165.303 699.243 146.789 686.941 136.253C674.64 125.716 656.125 127.147 645.589 139.449C635.052 151.751 636.484 170.265 648.785 180.802C661.087 191.338 679.601 189.907 690.138 177.605Z" fill="#000100"/>
<path d="M681.325 184.333L646.804 138.138L570.829 194.912L605.35 241.107L681.325 184.333Z" fill="white" stroke="#000100" stroke-width="1.86432" stroke-miterlimit="10"/>
<path d="M682.341 185.68L645.916 136.926C644.38 134.873 644.804 131.959 646.856 130.408C648.908 128.873 651.822 129.296 653.373 131.348L689.798 180.103C691.333 182.155 690.91 185.069 688.858 186.62C686.805 188.155 683.892 187.732 682.341 185.68Z" fill="white" stroke="#000100" stroke-width="1.86432" stroke-miterlimit="10"/>
<path d="M708.358 133.646L703.05 126.543L692.935 134.102L698.243 141.205L708.358 133.646Z" fill="white" stroke="#000100" stroke-width="1.86432" stroke-miterlimit="10"/>
<path d="M277.924 201.832C277.924 201.832 273.209 195.644 264.921 190.521C246.262 178.975 221.76 187.889 213.88 208.381C208.945 221.259 204.26 239.839 204.84 263.292C205.42 286.729 228.575 303.351 250.806 295.91C255.631 294.296 260.77 291.758 266.143 287.998L277.924 201.848V201.832Z" fill="white"/>
<path d="M282.781 303.273C254.236 295.721 248.675 268.148 256.649 238.069C264.608 207.989 283.079 186.776 311.623 194.328C340.167 201.879 356.852 232.397 348.894 262.477C340.935 292.557 311.341 310.824 282.797 303.273H282.781Z" fill="white"/>
<path d="M328.543 54.7859L319.332 0.924316L329.076 1.11231L344.586 57.4962L328.543 54.7859Z" fill="white" stroke="#000100" stroke-width="1.83298" stroke-linecap="round" stroke-linejoin="round"/>
<path d="M189.675 305.545L142.299 112.517L363.009 42.707L405.105 205.404C405.105 205.404 192.26 301.534 189.691 305.545" fill="white"/>
<path d="M189.675 305.545L142.299 112.517L363.009 42.707L405.105 205.404C405.105 205.404 192.26 301.534 189.691 305.545" stroke="#000100" stroke-width="1.83298" stroke-linecap="round" stroke-linejoin="round"/>
<path d="M142.299 112.517L110.277 114.992C106.047 115.321 103.117 119.363 104.135 123.484L147.563 300.312C148.315 303.383 151.072 305.544 154.237 305.544H189.675L142.299 112.517Z" fill="#BB92FF" stroke="#000100" stroke-width="1.83298" stroke-miterlimit="10"/>
<path d="M110.293 114.992L327.493 45.0256C338.946 41.2813 351.166 40.4823 363.009 42.707L142.299 112.517L110.277 114.992H110.293Z" fill="#BB92FF" stroke="#000100" stroke-width="1.83298" stroke-linecap="round" stroke-linejoin="round"/>
<path d="M137.976 68.1964L331.959 11.6089L329.076 1.11231L319.331 0.924316L124.283 53.6579L137.976 68.1964Z" fill="#BB92FF" stroke="#000100" stroke-width="1.83298" stroke-miterlimit="10"/>
<path d="M133.495 107.519L124.283 53.6578L134.028 53.8458L149.537 110.23L133.495 107.519Z" fill="white" stroke="#000100" stroke-width="1.83298" stroke-linecap="round" stroke-linejoin="round"/>
<path d="M138.821 144.508C140.341 151.683 137.427 158.373 132.304 159.47C127.181 160.566 121.792 155.631 120.272 148.456C118.752 141.281 121.666 134.591 126.789 133.495C131.912 132.414 137.302 137.333 138.821 144.508Z" fill="#000100"/>
<path d="M240.963 262.428C266.287 257.055 281.067 225.603 273.974 192.179C266.882 158.755 240.603 136.015 215.279 141.389C189.955 146.762 175.175 178.214 182.268 211.638C189.36 245.062 215.639 267.802 240.963 262.428Z" fill="#BB92FF" stroke="#000100" stroke-width="1.83298" stroke-miterlimit="10"/>
<path d="M240.469 253.317C260.672 249.03 272.182 222.61 266.176 194.307C260.17 166.003 238.923 146.534 218.72 150.821C198.517 155.108 187.007 181.528 193.013 209.831C199.019 238.135 220.265 257.604 240.469 253.317Z" fill="#000100"/>
<path d="M159.392 122.324L166.332 144.21L353.954 79.6644L347.97 57.6372L159.392 122.324Z" fill="white" stroke="#000100" stroke-width="1.83298" stroke-linecap="round" stroke-linejoin="round"/>
<path d="M199.733 108.491L206.752 130.299" stroke="#000100" stroke-width="1.83298" stroke-linecap="round" stroke-linejoin="round"/>
<path d="M202.521 117.17L350.116 65.5488L351.808 71.7841L204.558 123.484L202.521 117.17Z" fill="#000100"/>
<path d="M161.788 129.891L202.521 117.17" stroke="#000100" stroke-width="1.83298" stroke-linecap="round" stroke-linejoin="round"/>
<path d="M164.138 136.816L204.245 123.531" stroke="#000100" stroke-width="1.83298" stroke-linecap="round" stroke-linejoin="round"/>
<path d="M265.266 123.531L296.239 230.204L383.47 192.322L355.803 90.0356L265.266 123.531Z" fill="white" stroke="#000100" stroke-width="1.83298" stroke-linecap="round" stroke-linejoin="round"/>
<path d="M273.71 152.577L363.746 119.395" stroke="#000100" stroke-width="1.83298" stroke-linecap="round" stroke-linejoin="round"/>
<path d="M278.473 166.598L367.208 133.902" stroke="#000100" stroke-width="1.83298" stroke-linecap="round" stroke-linejoin="round"/>
<path d="M397.507 650.694L399.763 649.503C402.066 648.281 403.429 645.79 403.194 643.174L401.941 629.199L359.108 628.604L361.599 646.965C361.881 649.096 363.103 650.992 364.936 652.151L367.004 653.451L371.015 697.96C371.015 697.96 402.113 699.198 402.99 699.119L397.538 650.71L397.507 650.694Z" fill="#BB92FF" stroke="#493D50" stroke-width="2.02098" stroke-miterlimit="10"/>
<path d="M369.073 627.696C368.916 628.73 371.485 654.438 371.485 654.438" stroke="#493D50" stroke-width="2.02098" stroke-miterlimit="10" stroke-linecap="round"/>
<path d="M391.632 629.059L393.606 651.039" stroke="#493D50" stroke-width="2.02098" stroke-miterlimit="10" stroke-linecap="round"/>
<path d="M380.509 628.902L382.843 654.814" stroke="#493D50" stroke-width="2.02098" stroke-miterlimit="10" stroke-linecap="round"/>
<path d="M366.973 653.436C366.973 653.436 381.511 658.449 397.507 650.678" stroke="#493D50" stroke-width="2.02098" stroke-miterlimit="10" stroke-linecap="round"/>
<path d="M268.697 737.8V746.056C268.697 750.145 271.611 753.67 275.105 755.785C281.559 759.702 294.625 764.402 319.002 762.694C354.346 760.219 384.457 743.957 408.85 742.798C413.753 742.563 417.529 738.395 417.106 733.507L417.137 723.136L366.049 722.431L268.697 737.784V737.8Z" fill="#493D50"/>
<path d="M391.554 691.129C390.677 691.223 389.815 691.129 388.985 690.8C385.883 689.594 378.144 685.677 372.582 675.479C365.485 662.46 357.197 660.094 350.492 663.635C343.787 667.191 343.395 684.549 343.395 684.549C343.395 684.549 264.107 709.553 269.559 737.283C269.559 737.283 301.393 756.38 340.513 742.281C379.632 728.181 398.729 726.363 416.464 725.909C416.464 725.909 422.37 703.161 410.558 684.972L414.756 677.217C416.464 674.069 415.07 670.136 411.78 668.742L398.902 663.039L399.34 684.972C399.387 687.745 394.327 690.8 391.57 691.098L391.554 691.129Z" fill="white" stroke="#493D50" stroke-width="1.92698" stroke-miterlimit="10"/>
<path d="M284.959 712.264C284.959 712.264 276.483 725.329 294.218 728.651C311.952 731.972 330.125 727.977 342.925 726.097C342.925 726.097 369.934 720.097 372.723 737.236" stroke="#493D50" stroke-width="2.02098" stroke-miterlimit="10" stroke-linecap="round"/>
<path d="M415.555 695.767C415.555 695.767 388.734 705.48 385.663 732.176" stroke="#493D50" stroke-width="2.02098" stroke-miterlimit="10" stroke-linecap="round"/>
<path d="M300.359 702.425L328.559 713.987L335.53 710.164L307.863 698.775L300.359 702.425Z" fill="#493D50"/>
<path d="M310.887 696.738L339.102 708.3L346.074 704.477L318.391 693.088L310.887 696.738Z" fill="#493D50"/>
<path d="M322.229 691.819L350.429 703.365L357.401 699.542L329.734 688.153L322.229 691.819Z" fill="#493D50"/>
<path d="M343.395 684.55C343.395 684.55 356.555 680.288 365.501 693.088" stroke="#493D50" stroke-width="2.02098" stroke-miterlimit="10" stroke-linecap="round"/>
<path d="M410.542 684.988C410.542 684.988 398.009 676.231 411.764 668.758" stroke="#493D50" stroke-width="2.02098" stroke-miterlimit="10" stroke-linecap="round"/>
<path d="M344.586 588.529C344.586 588.529 333.933 604.102 343.818 621.977C353.704 639.853 387.371 645.931 409.727 630.155C409.727 630.155 414.647 624.844 406.014 609.46C406.014 609.46 418.501 599.104 410.244 587.229C401.988 575.354 403.68 551.478 403.68 551.478C403.68 551.478 415.571 542.313 397.492 524.375L338.648 532.349C338.648 532.349 311.498 564.011 344.602 588.513L344.586 588.529Z" fill="#493D50"/>
<path d="M307.519 430.125L339.808 551.337L397.476 524.375L385.663 460.314L307.519 430.125Z" fill="#493D50"/>
<g id="leg">
<path d="M457.745 655.441L455.239 654.971C452.669 654.501 450.633 652.527 450.069 649.973L447.076 636.265L487.762 622.854L490.896 641.122C491.256 643.252 490.661 645.43 489.266 647.059L487.684 648.908L497.194 692.571C497.194 692.571 467.897 703.067 467.036 703.255L457.73 655.425L457.745 655.441Z" fill="#BB92FF" stroke="#493D50" stroke-width="2.02098" stroke-miterlimit="10"/>
<path d="M477.986 624.985C478.456 625.925 483.705 651.227 483.705 651.227" stroke="#493D50" stroke-width="2.02098" stroke-miterlimit="10" stroke-linecap="round"/>
<path d="M456.868 633.038L461.568 654.611" stroke="#493D50" stroke-width="2.02098" stroke-miterlimit="10" stroke-linecap="round"/>
<path d="M467.443 629.56L472.973 654.987" stroke="#493D50" stroke-width="2.02098" stroke-miterlimit="10" stroke-linecap="round"/>
<path d="M487.7 648.924C487.7 648.924 475.323 658.073 457.745 655.457" stroke="#493D50" stroke-width="2.02098" stroke-miterlimit="10" stroke-linecap="round"/>
<path d="M591.757 737.8V746.056C591.757 750.145 588.843 753.67 585.349 755.785C578.894 759.702 565.829 764.402 541.451 762.694C506.108 760.219 475.997 743.957 451.604 742.798C446.7 742.563 442.925 738.395 443.348 733.507L443.316 723.136L494.405 722.431L591.757 737.784V737.8Z" fill="#493D50"/>
<path d="M468.9 691.129C469.777 691.223 470.639 691.129 471.469 690.8C474.571 689.594 482.31 685.677 487.872 675.478C494.969 662.459 503.256 660.094 509.962 663.634C516.667 667.191 517.058 684.549 517.058 684.549C517.058 684.549 596.347 709.553 590.895 737.283C590.895 737.283 559.06 756.38 519.941 742.28C480.822 728.18 461.724 726.363 443.99 725.909C443.99 725.909 438.083 703.161 449.896 684.972L445.697 677.217C443.99 674.068 445.384 670.136 448.674 668.742L459.453 664.23L464.106 685.662C464.842 688.466 466.142 690.8 468.9 691.114V691.129Z" fill="white" stroke="#493D50" stroke-width="1.92698" stroke-miterlimit="10"/>
<path d="M575.495 712.263C575.495 712.263 583.97 725.329 566.236 728.651C548.501 731.972 530.328 727.977 517.529 726.097C517.529 726.097 490.52 720.097 487.731 737.236" stroke="#493D50" stroke-width="2.02098" stroke-miterlimit="10" stroke-linecap="round"/>
<path d="M444.898 695.766C444.898 695.766 471.72 705.48 474.79 732.176" stroke="#493D50" stroke-width="2.02098" stroke-miterlimit="10" stroke-linecap="round"/>
<path d="M560.094 702.425L531.895 713.987L524.923 710.164L552.59 698.775L560.094 702.425Z" fill="#493D50"/>
<path d="M549.567 696.738L521.367 708.3L514.396 704.477L542.063 693.088L549.567 696.738Z" fill="#493D50"/>
<path d="M538.224 691.819L510.024 703.365L503.053 699.542L530.72 688.153L538.224 691.819Z" fill="#493D50"/>
<path d="M517.058 684.549C517.058 684.549 503.898 680.288 494.953 693.088" stroke="#493D50" stroke-width="2.02098" stroke-miterlimit="10" stroke-linecap="round"/>
<path d="M449.912 684.988C449.912 684.988 462.445 676.23 448.69 668.757" stroke="#493D50" stroke-width="2.02098" stroke-miterlimit="10" stroke-linecap="round"/>
<path d="M477.986 584.832C477.986 584.832 496.645 597.757 494.953 618.108C493.433 636.453 468.335 642.892 443.88 641.043C437.237 640.542 432.177 634.761 432.318 628.103C432.349 626.567 432.443 624.828 432.616 622.854C432.616 622.854 415.257 617.089 417.92 602.88C420.584 588.654 418.218 578.487 418.218 578.487C418.218 578.487 409.178 574.335 405.309 546.527L467.427 520.881C467.427 520.881 498.149 548.908 477.986 584.816V584.832Z" fill="#493D50"/>
<path d="M467.443 520.881L459.218 440.559L365.501 454.517L408.552 561.865L467.443 520.881Z" fill="#493D50"/>
</g>
<path d="M403.727 553.42L387.935 510.463L365.501 497.898" stroke="#BB92FF" stroke-width="1.97398" stroke-linecap="round" stroke-linejoin="round"/>
<path d="M297.664 373.255C297.664 373.255 258.545 387.371 278.112 437.206C281.998 447.092 289.706 455.003 299.482 459.155C321.18 468.351 388.311 485.976 470.403 468.774L455.442 386.212L297.664 373.271V373.255Z" fill="white" stroke="#000100" stroke-width="1.83298" stroke-miterlimit="10"/>
<path d="M298.087 312.782C298.087 312.782 254.472 333.541 274.039 383.376C277.925 393.261 285.632 401.173 295.408 405.325C317.107 414.521 390.927 429.968 473.02 412.766L455.849 325.739L298.072 312.798L298.087 312.782Z" fill="white" stroke="#000100" stroke-width="1.83298" stroke-miterlimit="10"/>
<path d="M307.268 248.769C307.268 248.769 263.653 269.527 283.22 319.362C287.105 329.248 294.813 337.16 304.589 341.311C326.287 350.508 378.034 369.088 460.127 351.886L465.046 261.725L307.268 248.785V248.769Z" fill="white" stroke="#000100" stroke-width="1.83298" stroke-miterlimit="10"/>
<path d="M449.316 156.368C449.316 156.368 508.912 152.201 533.164 186.651C557.415 221.118 536.125 267.679 520.113 279.805C504.102 291.946 394.295 306.453 327.352 288.891C306.328 283.376 268.916 265.908 318.751 197.273L449.316 156.368Z" fill="white" stroke="#000100" stroke-width="1.83298" stroke-miterlimit="10"/>
<path d="M335.061 248.753C335.061 248.753 390.348 248.91 438.554 218.893C486.76 188.876 507.831 189.675 507.831 189.675C507.831 189.675 482.968 157.637 404.542 166.018C326.115 174.4 335.076 248.753 335.076 248.753H335.061Z" fill="#000100"/>
<path d="M344.116 240.638C344.116 240.638 317.107 254.472 327.353 288.907C327.353 288.907 304.182 307.722 322.715 348.063C322.715 348.063 302.255 372.519 319.175 412.813C319.175 412.813 293.435 438.444 324.752 467.176" stroke="#000100" stroke-width="1.83298" stroke-miterlimit="10" stroke-linecap="round"/>
<path d="M283.016 265.673C283.016 265.673 292.15 278.52 316.527 285.225C316.527 285.225 295.832 278.629 293.999 258.435L283.001 265.673H283.016Z" fill="#000100"/>
<path d="M321.399 348.393C321.399 348.393 292.761 342.001 278.175 330.157L284.677 322.59C284.677 322.59 289.628 338.35 321.399 348.377V348.393Z" fill="#000100"/>
<path d="M277.831 390.676C277.831 390.676 275.888 391.977 273.883 400.64C273.883 400.64 291.758 414.223 319.175 412.798C319.175 412.798 288.139 408.145 277.831 390.661V390.676Z" fill="#000100"/>
<path d="M327.353 288.907C326.334 288.766 383.846 308.365 461.255 306.281L450.335 294.186C450.335 294.186 376.342 295.534 327.353 288.922V288.907Z" fill="#000100"/>
<path d="M327.337 349.489C327.337 349.489 390.081 370.247 465.046 349.489V362.868C465.046 362.868 400.186 380.164 327.337 349.489Z" fill="#000100"/>
<path d="M332.413 415.085C332.413 415.085 400.939 429.67 484.614 410.589V427.743C484.614 427.743 422.073 436.109 332.413 415.101V415.085Z" fill="#000100"/>
<g id='hand'>
<path d="M495.611 492.008C495.611 492.008 466.738 539.759 473.866 549.081C480.994 558.403 499.324 531.472 499.324 531.472C499.324 531.472 499.434 574.664 508.662 575.354C515.367 575.855 516.714 567.082 516.714 567.082C516.714 567.082 521.774 570.716 526.067 566.346C526.067 566.346 532.584 570.936 538.193 561.285C538.193 561.285 560.533 540.903 537.707 491.365L495.611 492.008Z" fill="#BB92FF" stroke="#000100" stroke-width="1.98965" stroke-miterlimit="10"/>
<path d="M516.73 567.097C516.73 567.097 516.087 553.264 513.972 537.691" stroke="#000100" stroke-width="1.98965" stroke-miterlimit="10" stroke-linecap="round"/>
<path d="M526.067 566.346C526.067 566.346 527.163 558.638 525.095 536.626" stroke="#000100" stroke-width="1.98965" stroke-miterlimit="10" stroke-linecap="round"/>
<path d="M534.872 565.39C534.872 565.39 539.07 551.368 535.89 536.72" stroke="#000100" stroke-width="1.98965" stroke-miterlimit="10" stroke-linecap="round"/>
<path d="M463.213 437.535C463.213 437.535 458.513 444.366 455.928 454.565C450.147 477.532 466.472 500.107 489.235 501.815C503.539 502.88 523.435 501.893 546.559 493.919C569.683 485.945 579.13 456.742 564.951 436.047C561.865 431.551 557.776 427.039 552.402 422.652L463.182 437.535H463.213Z" fill="white" stroke="#000100" stroke-width="1.83298" stroke-miterlimit="10"/>
<path d="M560.22 429.436C560.22 429.436 547.984 455.787 472.738 442.282C471.453 442.047 479.349 435.42 478.049 435.044C420.333 418.5 546.12 417.842 546.12 417.842L560.22 429.42V429.436Z" fill="#000100"/>
<path d="M453.014 379.256C453.014 379.256 448.095 386.086 445.4 396.301C439.337 419.284 456.304 441.828 480.007 443.504C494.891 444.554 515.617 443.535 539.728 435.514C563.808 427.509 573.693 398.29 558.982 377.611C555.786 373.114 551.525 368.618 545.948 364.231L453.014 379.256Z" fill="white" stroke="#000100" stroke-width="1.83298" stroke-miterlimit="10"/>
<path d="M556.021 372.331C556.021 372.331 540.809 401.346 484.739 393.935C483.438 393.763 482.122 393.575 480.775 393.356C421.462 384.003 545.509 360.299 545.509 360.299L556.021 372.331Z" fill="#000100"/>
<path d="M446.638 327.525C446.638 327.525 442.11 334.622 439.995 344.962C435.233 368.242 453.453 389.799 477.203 390.144C492.133 390.348 512.766 388.17 536.376 378.817C559.97 369.464 568.195 339.745 552.34 319.927C548.893 315.618 544.397 311.357 538.569 307.315L446.638 327.54V327.525Z" fill="white" stroke="#000100" stroke-width="1.83298" stroke-miterlimit="10"/>
<path d="M547.984 315.101C547.984 315.101 532.772 344.116 476.701 336.705C475.401 336.533 474.085 336.345 472.738 336.126C413.424 326.773 537.472 303.069 537.472 303.069L547.984 315.101Z" fill="#000100"/>
<path d="M547.906 284.692C550.898 316.511 524.97 332.46 491.428 335.609C457.886 338.758 429.436 327.932 426.443 296.113C423.451 264.295 448.22 235.938 481.762 232.789C515.304 229.64 544.914 252.874 547.906 284.692Z" fill="white" stroke="#000100" stroke-width="1.83298" stroke-miterlimit="10"/>
</g>
<path d="M348.487 196.098L354.926 246.435C354.926 246.435 376.279 243.536 401.643 235.03L388.248 187.482L348.487 196.083V196.098Z" fill="#BB92FF" stroke="#000100" stroke-width="1.83298" stroke-miterlimit="10"/>
<path d="M348.487 196.098L353.14 232.538L394.969 207.613L388.233 187.497L348.487 196.098Z" fill="#000100"/>
<path d="M318.156 103.587L340.654 71.7215C340.654 71.7215 409.884 40.6547 472.942 102.632L442.925 142.566L424.454 156.195L318.156 103.587Z" fill="#000100"/>
<path d="M338.961 92.1037C331.394 92.9654 329.279 92.511 323.342 97.2737C316.151 103.039 304.871 115.807 296.677 130.988C280.776 160.441 285.194 200.814 307.08 205.122C328.966 209.43 361.615 214.036 406.077 205.796C416.589 203.853 435.624 168.823 431.707 145.119C427.916 122.199 424.783 82.4061 338.977 92.1194L338.961 92.1037Z" fill="#BB92FF" stroke="#000100" stroke-width="1.83298" stroke-miterlimit="10"/>
<path d="M437.049 161.616L424.25 157.652L411.2 117.139L426.6 92.9967L464.121 107.081L437.645 145.683L437.049 161.616Z" fill="#000100"/>
<path d="M425.112 157.496C426.49 154.692 428.48 151.762 431.269 148.159C431.269 148.159 446.293 123.703 461.568 145.198C476.843 166.692 446.011 197.524 425.112 174.525" fill="#BB92FF"/>
<path d="M425.112 157.496C426.49 154.692 428.48 151.762 431.269 148.159C431.269 148.159 446.293 123.703 461.568 145.198C476.843 166.692 446.011 197.524 425.112 174.525" stroke="#000100" stroke-width="1.83298" stroke-linecap="round" stroke-linejoin="round"/>
<path d="M435.342 173.319C435.342 173.319 441.546 168.917 437.05 161.616C437.05 161.616 448.361 139.135 457.056 151.919" stroke="#000100" stroke-width="1.83298" stroke-miterlimit="10" stroke-linecap="round"/>
<path d="M325.096 147.187L312.391 150.132L317.718 159.814" stroke="#000100" stroke-width="1.83298" stroke-linecap="round" stroke-linejoin="round"/>
<path className='eye' d="M354.314 139.197C354.565 141.751 352.701 144.023 350.132 144.273C347.578 144.524 345.306 142.66 345.056 140.09C344.805 137.537 346.669 135.265 349.239 135.014C351.808 134.764 354.064 136.628 354.314 139.197Z" fill="#000100"/>
<path className='eye' d="M316.511 141.469C316.746 143.819 315.023 145.903 312.689 146.122C310.339 146.357 308.255 144.634 308.036 142.299C307.816 139.965 309.524 137.866 311.858 137.646C314.208 137.411 316.292 139.135 316.511 141.469Z" fill="#000100"/>
<path d="M373.882 128.685L341.985 124.173C337.833 123.593 336.737 118.126 340.324 115.964C344.257 113.598 350.288 111.875 359.265 113.269C367.803 114.601 373.522 117.671 377.297 120.836C380.744 123.734 378.331 129.312 373.882 128.685Z" fill="#000100"/>
<path d="M299.121 128.544L320.193 124.58C322.935 124.063 323.358 119.692 320.835 118.016C318.062 116.183 313.942 114.867 308.02 116.089C302.38 117.248 298.745 119.771 296.395 122.324C294.249 124.674 296.176 129.092 299.121 128.544Z" fill="#000100"/>
<path d="M308.004 170.718H344.115" stroke="#000100" stroke-width="1.83298" stroke-linecap="round" stroke-linejoin="round"/>
<path d="M318.736 178.975H330.329" stroke="#000100" stroke-width="1.83298" stroke-linecap="round" stroke-linejoin="round"/>
</g>
<defs>
<clipPath id="clip0_44_12864">
<rect width="769.321" height="763.07" fill="white"/>
</clipPath>
</defs>
<style>
#hand{
  animation: hero_boy_hand 1s infinite alternate linear;
}

@keyframes hero_boy_hand {
  to{
    transform: skewX(-2deg);
  }
}

.eye{
  animation: hero_boy_eye 2s infinite alternate linear;
}

@keyframes hero_boy_eye {
  to{
    transform: translateX(-5px);
  }
}

#leg{
  animation: hero_boy_leg 0.5s infinite alternate linear;
}

@keyframes hero_boy_leg {
  to{
    transform: translateY(-10px);
  }
}

#ball{
  animation: hero_boy_ball 1s infinite alternate linear;
}

@keyframes hero_boy_ball {
  to{
    transform: rotate(-1deg);
  }
}

.diamond{
  animation: hero_boy_diamond 0.5s infinite alternate linear;
}

@keyframes hero_boy_diamond {
  to{
    transform: rotateX(5deg);
  }
}

</style>
</svg>
