<svg width="580" height="510" viewBox="0 0 580 510" fill="none" xmlns="http://www.w3.org/2000/svg">
<path d="M58.453 241.014C59.5896 237.956 61.5464 235.626 64.3235 234.022C67.1005 232.419 68.814 232.18 69.464 233.306C69.724 233.756 69.7763 234.627 69.6208 235.918C69.8003 237.615 69.9324 244.344 70.017 256.104C70.1423 286.654 72.415 305.757 76.835 313.413C77.1816 314.013 77.5051 314.227 77.8053 314.054C78.2556 313.794 78.5728 312.61 78.757 310.502C78.7576 303.396 79.1663 295.004 79.9832 285.326C80.8001 275.647 81.8309 266.946 83.0758 259.222C84.3206 251.499 86.3234 243.787 89.084 236.089C91.8447 228.391 95.1142 222.7 98.8924 219.018C105.555 213.57 109.974 210.218 112.151 208.961C112.419 208.906 112.64 209.029 112.813 209.329C112.943 209.554 112.725 210.13 112.16 211.057C106.409 220.683 101.063 235.778 96.1239 256.342C91.2163 276.789 87.7263 296.917 85.6538 316.728C85.5951 322.866 85.1402 326.931 84.2891 328.924C83.438 330.916 81.9617 332.519 79.8601 333.733C75.9572 335.986 71.6225 332.985 66.8558 324.729C64.7758 321.126 63.3655 317.036 62.6249 312.46C59.7754 295.392 58.8849 282.496 59.9533 273.773C60.3385 268.547 60.4228 265.746 60.2061 265.371C60.0761 265.146 59.8858 265.856 59.6351 267.502C54.5096 301.784 50.1832 324.797 46.6558 336.541C44.5335 345.172 41.7849 354.364 38.4099 364.119C35.0349 373.873 31.9492 381.009 29.1529 385.525C28.4836 387.313 27.436 388.618 26.0099 389.441C24.5838 390.265 22.5109 390.661 19.7911 390.63C17.0712 390.599 15.2563 389.796 14.3463 388.219C13.8697 387.394 13.8867 386.383 14.3973 385.188L23.891 358.991C24.4535 357.366 24.8848 356.466 25.1851 356.293C25.4102 356.163 25.6095 356.248 25.7828 356.548C25.9128 356.773 25.9952 357.176 26.0301 357.756C26.0649 358.337 26.0088 359.019 25.8618 359.805C25.6398 360.634 25.396 361.425 25.1306 362.178L24.3867 365.31C23.4033 368.98 22.9766 370.928 23.1066 371.153C23.28 371.453 23.4417 371.56 23.5918 371.473C23.7419 371.386 23.9872 370.945 24.3276 370.148C28.673 361.034 33.6948 345.725 39.3932 324.222C45.0483 302.643 49.6387 283.381 53.1644 266.434L58.453 241.014Z" fill="#6D2ADE"/>
<path d="M105.971 304.097C108.373 302.71 110.428 299.422 112.135 294.233C113.843 289.044 114.425 285.806 113.882 284.518C112.548 284.288 110.792 283.5 108.615 282.155C106.469 280.692 105.359 279.982 105.284 280.026C104.213 283.546 103.601 287.252 103.446 291.144C103.368 297.594 103.848 301.72 104.888 303.521C105.235 304.121 105.596 304.313 105.971 304.097ZM114.364 262.474C113.614 262.907 112.709 264.98 111.651 268.694C110.667 272.364 110.436 274.649 110.956 275.55C111.086 275.775 111.571 276.095 112.411 276.511C113.251 276.926 113.784 277.069 114.009 276.939C115.285 276.203 115.823 273.841 115.623 269.853C115.497 265.823 115.304 263.582 115.044 263.132C114.741 262.607 114.514 262.387 114.364 262.474ZM122.974 276.867C125.076 275.654 127.604 272.493 130.559 267.384C133.589 262.232 136.056 257.405 137.96 252.904L140.752 246.038C141.73 246.174 142.437 246.616 142.87 247.367C143.303 248.118 143.355 248.988 143.027 249.979C137.272 268.612 131.205 279.77 124.826 283.454C124.375 283.714 123.657 284.029 122.669 284.399C119.865 299.128 115.423 308.247 109.343 311.757C104.943 313.497 101.568 313.544 99.2175 311.899C97.967 311.12 96.8435 309.867 95.8468 308.141C92.9868 303.187 92.4372 295.649 94.1981 285.525C95.9157 275.327 100.158 266.122 106.927 257.911C107.677 257.478 108.348 257.341 108.94 257.499C109.489 257.583 109.935 257.575 110.279 257.477C110.579 257.304 110.867 256.937 111.144 256.377C111.453 255.698 112.02 255.121 112.846 254.644C113.628 254.092 114.751 254.044 116.215 254.5C117.979 254.782 119.273 255.637 120.097 257.063C122.523 261.266 123.483 267.867 122.974 276.867Z" fill="#6D2ADE"/>
<path d="M161.001 209.579L166.678 206.151C174.108 201.861 180.119 199.792 184.71 199.943C186.664 199.516 187.88 199.714 188.357 200.54C188.703 201.14 188.191 201.987 186.82 203.078C185.524 204.127 180.804 207.652 172.661 213.655C164.55 219.539 158.924 223.487 155.783 225.501C154.4 226.399 152.528 230.783 150.166 238.651C147.879 246.477 146.098 254.66 144.825 263.201C143.551 271.742 143.586 277.176 144.93 279.502C145.146 279.878 145.529 280.107 146.078 280.191C146.583 280.199 147.098 280.052 147.624 279.748C148.224 279.402 148.995 278.657 149.936 277.513C159.343 260.873 167.882 243.684 175.554 225.945C176.533 226.08 177.239 226.523 177.672 227.274C178.105 228.024 178.164 228.992 177.846 230.176C177.486 231.284 176.945 232.948 176.224 235.165C175.578 237.34 174.284 241.339 172.343 247.163C170.402 252.988 168.469 258.307 166.544 263.12C161.507 276.236 157.459 284.478 154.4 287.845C153.266 289 151.76 290.12 149.884 291.203C148.082 292.243 145.852 292.28 143.193 291.313C140.608 290.304 138.384 288.185 136.521 284.958C134.658 281.73 134.035 275.885 134.653 267.422C135.346 258.916 137.454 249.393 140.976 238.854C141.348 237.938 141.404 237.255 141.144 236.805C140.884 236.355 139.966 236.585 138.39 237.495L131.427 241.815C121.444 247.578 115.653 249.421 114.053 247.342C111.466 248.235 109.913 248.231 109.393 247.331C109.22 247.03 109.283 246.794 109.583 246.62C109.84 246.372 110.081 246.183 110.306 246.053C110.488 245.848 110.82 245.556 111.302 245.178C111.784 244.799 115.566 241.815 122.646 236.226C129.802 230.594 138.117 224.542 147.591 218.072L149.379 203.229C149.309 202.068 150.626 200.708 153.328 199.148C156.03 197.588 157.706 197.371 158.356 198.497C158.572 198.872 158.662 199.721 158.625 201.043L158.085 206.609C158.403 208.026 158.698 209.057 158.97 209.701C159.273 210.226 159.95 210.185 161.001 209.579Z" fill="#6D2ADE"/>
<path d="M206.351 246.143C208.752 244.756 210.807 241.468 212.515 236.279C214.222 231.09 214.805 227.852 214.261 226.564C212.927 226.334 211.172 225.546 208.994 224.201C206.848 222.738 205.738 222.028 205.663 222.072C204.593 225.591 203.981 229.297 203.826 233.19C203.747 239.64 204.228 243.766 205.268 245.567C205.614 246.167 205.975 246.359 206.351 246.143ZM214.744 204.52C213.993 204.953 213.089 207.026 212.03 210.74C211.047 214.41 210.815 216.695 211.335 217.596C211.465 217.821 211.95 218.141 212.791 218.557C213.631 218.972 214.164 219.115 214.389 218.985C215.665 218.248 216.202 215.886 216.002 211.899C215.877 207.869 215.684 205.628 215.424 205.178C215.12 204.652 214.894 204.433 214.744 204.52ZM223.354 218.913C225.455 217.7 227.984 214.539 230.939 209.43C233.969 204.278 236.436 199.451 238.34 194.949L241.131 188.084C242.11 188.219 242.816 188.662 243.249 189.413C243.683 190.164 243.735 191.034 243.406 192.024C237.652 210.658 231.585 221.816 225.205 225.5C224.755 225.76 224.036 226.075 223.049 226.445C220.244 241.173 215.802 250.293 209.723 253.803C205.323 255.542 201.948 255.59 199.597 253.945C198.346 253.166 197.223 251.913 196.226 250.187C193.366 245.233 192.817 237.694 194.578 227.571C196.295 217.373 200.538 208.168 207.306 199.957C208.057 199.524 208.728 199.387 209.32 199.545C209.868 199.629 210.314 199.621 210.658 199.523C210.958 199.35 211.247 198.983 211.524 198.423C211.833 197.744 212.4 197.167 213.225 196.69C214.008 196.138 215.131 196.09 216.595 196.546C218.359 196.828 219.653 197.682 220.476 199.109C222.903 203.312 223.862 209.913 223.354 218.913Z" fill="#6D2ADE"/>
<path d="M230.756 210.586C233.237 205.351 235.776 199.782 238.373 193.88C235.018 193.615 232.548 192.89 230.962 191.703C230.434 191.308 230.104 190.998 229.974 190.773C229.108 189.272 229.032 188.014 229.748 187C230.42 185.912 231.845 184.739 234.021 183.482C234.847 183.006 237.871 182.611 243.094 182.297C248.317 181.984 251.454 181.524 252.505 180.917C253.631 180.267 254.996 179.078 256.601 177.351C258.162 175.549 259.506 174.323 260.632 173.673C261.833 172.98 262.847 172.744 263.676 172.966C266.983 174.36 268.787 175.319 269.091 175.844C269.394 176.37 269.391 176.972 269.083 177.65C268.806 178.211 267.874 180.15 266.287 183.468C264.775 186.742 263.322 190.033 261.929 193.339C260.535 196.646 259.422 200.091 258.589 203.674C257.755 207.257 257.75 209.762 258.574 211.188C258.704 211.413 258.956 211.418 259.332 211.201C263.385 208.861 272.3 192.756 286.077 162.885C286.602 162.582 287.147 162.918 287.71 163.894C288.23 164.794 287.129 169.733 284.406 178.711C281.64 187.613 278.042 196.896 273.613 206.558C269.216 216.102 265.329 221.849 261.951 223.799C256.698 226.832 252.554 225.722 249.521 220.468C247.874 217.616 247.23 214.335 247.59 210.624C247.982 206.796 249.955 200.853 253.509 192.796C252.233 193.533 250.334 194.229 247.81 194.886C245.244 195.467 243.4 195.48 242.28 194.926C241.325 197.779 239.616 202.619 237.152 209.445C236.503 210.921 235.278 212.179 233.477 213.219C231.675 214.259 230.623 214.516 230.32 213.991C229.973 213.39 230.118 212.255 230.756 210.586Z" fill="#6D2ADE"/>
<path d="M288.906 192.475C289.806 191.955 291.484 188.534 293.939 182.213C296.47 175.849 298.774 169.615 300.854 163.51L303.861 154.419C303.988 153.945 304.03 153.671 303.987 153.596C303.9 153.446 303.744 153.435 303.519 153.565C300.667 155.212 297.905 159.008 295.233 164.954C292.518 170.825 290.533 176.574 289.279 182.202C288.057 187.711 287.814 191.104 288.551 192.38C288.637 192.53 288.756 192.562 288.906 192.475ZM309.358 182.919C309.488 183.144 309.778 183.126 310.228 182.866C310.754 182.563 312.318 180.159 314.921 175.654C321.792 163.981 329.337 149.317 337.557 131.662C338.536 131.797 339.242 132.24 339.676 132.991C340.109 133.741 340.145 134.671 339.785 135.78C339.424 136.889 338.899 138.493 338.21 140.592C337.595 142.648 336.29 146.454 334.294 152.009C332.298 157.565 330.391 162.669 328.573 167.321C323.834 179.565 319.73 187.538 316.264 191.24C315.13 192.396 313.774 193.428 312.198 194.338C310.567 194.98 308.854 195.219 307.058 195.055C305.337 194.847 304.13 194.143 303.436 192.942C302.743 191.741 301.987 189.826 301.169 187.196C300.383 184.447 299.947 182.998 299.86 182.848C299.73 182.623 299.59 182.554 299.44 182.64C299.365 182.684 299.264 182.942 299.137 183.416C298.768 185.03 298.288 187.058 297.697 189.501C297.062 191.869 295.664 195.428 293.503 200.178C291.374 204.81 289.184 207.776 286.932 209.076C286.513 209.218 285.976 209.327 285.321 209.406C284.634 209.602 283.537 209.435 282.029 208.904C280.522 208.374 279.205 207.132 278.078 205.181C276.952 203.23 276.703 199.42 277.334 193.752C277.921 188.009 279.211 182.01 281.204 175.756C283.154 169.426 285.82 163.384 289.202 157.628C292.584 151.873 296.152 147.912 299.904 145.745C301.255 144.965 302.966 145.328 305.037 146.835C304.659 146.353 305.148 141.567 306.505 132.477C307.818 123.313 310.033 113.628 313.148 103.423C316.295 93.1002 319.744 86.8553 323.497 84.6887C324.773 83.952 325.758 84.1841 326.451 85.385C327.534 87.2614 327.732 90.5499 327.043 95.2507C326.43 99.908 325.461 104.47 324.137 108.937C322.888 113.361 321.188 118.996 319.036 125.843C314 141.56 310.73 154.356 309.226 164.231C307.797 174.062 307.841 180.292 309.358 182.919Z" fill="#6D2ADE"/>
<path d="M343.168 99.4509C343.919 99.0176 344.493 98.886 344.892 99.0562C346.679 99.7255 347.811 100.473 348.288 101.299C348.721 102.049 348.886 102.855 348.782 103.715C348.635 104.5 348.441 105.463 348.199 106.604C347.988 107.626 347.276 109.339 346.061 111.741C344.878 114.025 343.386 115.687 341.584 116.727C340.103 117.282 338.951 116.847 338.128 115.421C336.828 113.169 336.922 110.212 338.411 106.551C339.856 102.814 341.442 100.448 343.168 99.4509ZM341.758 159.409C341.764 160.806 342.006 161.918 342.482 162.743C342.959 163.569 343.648 163.722 344.548 163.202C345.074 162.898 345.844 162.153 346.86 160.966C356.649 145.507 365.379 128.909 373.051 111.169C374.03 111.305 374.736 111.748 375.169 112.498C375.603 113.249 375.639 114.179 375.278 115.287C374.918 116.396 374.393 118 373.703 120.1C373.089 122.156 371.784 125.961 369.788 131.517C367.791 137.073 365.885 142.177 364.067 146.829C359.327 159.072 355.224 167.046 351.758 170.748C350.623 171.903 349.268 172.936 347.692 173.846C341.913 177.183 337.246 175.774 333.693 169.619C332.306 167.218 331.648 163.044 331.718 157.099C331.745 151.079 332.172 145.579 332.999 140.598C333.783 135.542 334.517 132.566 335.201 131.671C336.075 130.066 337.3 128.808 338.877 127.898C340.453 126.988 342.127 126.421 343.9 126.198C344.48 126.164 344.879 126.334 345.095 126.709C345.312 127.084 345.262 127.864 344.945 129.048C344.702 130.188 344.286 131.98 343.695 134.423C343.179 136.822 342.584 140.819 341.91 146.412C341.268 151.886 341.217 156.218 341.758 159.409Z" fill="#6D2ADE"/>
<path d="M372.72 107.007C373.321 106.661 374.47 106.397 376.167 106.218C377.94 105.995 379.043 106.259 379.476 107.009C379.78 107.535 379.895 108.169 379.823 108.911L378.14 125.494C377.857 127.258 377.759 128.216 377.846 128.366C377.933 128.516 378.014 128.569 378.089 128.526L378.457 127.863C383.653 116.757 387.744 107.29 390.73 99.4613C391.347 98.1041 391.994 97.2305 392.669 96.8405C393.42 96.4072 393.951 96.2006 394.263 96.2207L397.935 95.3013C398.903 95.2433 399.559 95.5145 399.906 96.1149C400.253 96.7154 400.384 97.2899 400.301 97.8385C399.785 100.238 399.174 102.993 398.467 106.102C397.792 109.094 397.308 111.375 397.014 112.946C396.677 114.442 396.314 116.152 395.924 118.078C395.535 120.004 395.273 121.457 395.138 122.435C395.077 123.371 395.007 124.462 394.926 125.71C394.803 126.882 394.802 127.833 394.923 128.564C395.469 130.55 396.111 132.181 396.848 133.457C397.238 134.133 397.845 134.232 398.671 133.755C399.572 133.235 400.844 131.8 402.489 129.449C404.209 127.055 406.017 123.86 407.913 119.863C409.884 115.823 412.348 110.298 415.305 103.286C418.294 96.1567 420.976 90.055 423.35 84.9812C424.329 85.1166 425.035 85.5596 425.469 86.3102C425.902 87.0607 425.954 87.9312 425.625 88.9217C424.567 92.6351 423.217 97.3172 421.576 102.968C419.892 108.544 416.949 116.447 412.749 126.678C408.623 136.866 405.059 142.827 402.057 144.56C396.278 147.897 391.611 146.488 388.058 140.333C386.715 138.006 386.207 135.047 386.535 131.455L387.541 122.018C387.601 121.082 387.61 120.577 387.567 120.502C387.48 120.352 387.32 120.594 387.086 121.23C380.31 139.653 375.662 150.843 373.143 154.799C372.759 155.521 372.117 156.142 371.216 156.662C368.739 158.092 366.851 157.681 365.551 155.429C365.117 154.679 364.915 153.895 364.944 153.078C367.551 144.767 369.049 138.348 369.437 133.821C370.199 130.98 370.623 127.382 370.711 123.028C370.875 118.631 371.025 114.991 371.163 112.11C371.375 109.185 371.895 107.484 372.72 107.007Z" fill="#6D2ADE"/>
<path d="M438.673 112.311L435.414 104.586C435.284 104.361 435.144 104.292 434.994 104.378C434.919 104.422 434.818 104.68 434.691 105.154C434.322 106.768 433.842 108.796 433.25 111.239C432.616 113.607 431.218 117.166 429.057 121.916C426.928 126.548 424.737 129.514 422.486 130.814C422.067 130.956 421.53 131.065 420.875 131.144C420.188 131.34 419.09 131.173 417.583 130.642C416.076 130.112 414.759 128.87 413.632 126.919C412.505 124.968 412.295 121.136 413 115.425C413.588 109.682 414.84 103.705 416.758 97.4936C418.633 91.2074 421.261 85.1866 424.643 79.4311C428.1 73.6323 431.705 69.6496 435.458 67.483C436.928 66.7347 438.638 67.0979 440.591 68.5727C440.908 67.3888 441.367 66.6235 441.967 66.2769C442.568 65.9302 443.541 65.9689 444.886 66.3929C445.38 66.2079 445.982 66.2106 446.692 66.401C447.359 66.5162 447.909 66.9492 448.343 67.6997C448.776 68.4503 448.727 69.5792 448.197 71.0865C447.747 73.948 447.187 77.2238 446.515 80.9139C445.843 84.6041 445.382 87.2721 445.132 88.9179C444.838 90.4887 444.593 92.2313 444.397 94.1456C444.089 97.4257 444.272 99.8221 444.945 101.335C450.477 93.2371 457.952 78.3637 467.369 56.7147C468.348 56.8501 469.054 57.2931 469.488 58.0436C469.921 58.7942 469.989 59.6055 469.692 60.4775C469.395 61.3496 469.013 62.4209 468.545 63.6915C468.153 64.9187 467.309 67.3573 466.014 71.0072C464.719 74.6571 463.455 78.1887 462.224 81.6019C461.023 84.8966 459.6 88.6708 457.953 92.9243C456.337 97.0594 454.827 100.683 453.422 103.796C450.026 111.261 447.615 115.405 446.189 116.228C444.762 117.052 443.489 117.186 442.369 116.632C441.248 116.078 440.016 114.638 438.673 112.311ZM424.46 114.213C425.36 113.693 427.038 110.272 429.493 103.951C432.023 97.5869 434.291 91.3742 436.295 85.3131L439.415 76.1565C439.542 75.683 439.584 75.4087 439.54 75.3336C439.454 75.1835 439.298 75.1735 439.073 75.3035C436.221 76.9501 433.459 80.7463 430.787 86.6921C428.072 92.5628 426.087 98.3121 424.833 103.94C423.611 109.449 423.368 112.842 424.104 114.118C424.191 114.268 424.309 114.3 424.46 114.213Z" fill="#6D2ADE"/>
<path d="M457.022 79.9516C459.503 74.7161 462.042 69.1472 464.639 63.2448C461.284 62.9802 458.814 62.2548 457.228 61.0687C456.7 60.6733 456.37 60.363 456.24 60.1378C455.374 58.6367 455.298 57.3793 456.014 56.3657C456.686 55.277 458.111 54.1043 460.287 52.8476C461.113 52.3709 464.137 51.9758 469.36 51.6623C474.583 51.3488 477.72 50.8888 478.771 50.2821C479.897 49.6321 481.262 48.4435 482.867 46.7164C484.428 44.9143 485.772 43.6882 486.898 43.0382C488.099 42.3448 489.113 42.1092 489.942 42.3313C493.249 43.7248 495.053 44.6842 495.357 45.2096C495.66 45.735 495.657 46.337 495.349 47.0156C495.072 47.5758 494.14 49.5149 492.553 52.8329C491.041 56.1076 489.588 59.3981 488.195 62.7045C486.801 66.0109 485.688 69.4558 484.855 73.0392C484.021 76.6226 484.016 79.1273 484.84 80.5533C484.97 80.7785 485.222 80.7828 485.598 80.5661C489.651 78.2261 498.566 62.1208 512.343 32.2503C512.868 31.947 513.413 32.2832 513.976 33.2589C514.496 34.1596 513.395 39.0986 510.672 48.0761C507.906 56.9785 504.308 66.2608 499.879 75.9231C495.482 85.467 491.595 91.2139 488.217 93.1639C482.964 96.1973 478.82 95.087 475.787 89.8331C474.14 86.981 473.496 83.6998 473.856 79.9895C474.248 76.1608 476.221 70.2182 479.775 62.1615C478.499 62.8982 476.6 63.5946 474.076 64.2508C471.51 64.832 469.666 64.8456 468.546 64.2916C467.591 67.1445 465.882 71.9842 463.418 78.8105C462.769 80.2861 461.544 81.5439 459.743 82.5839C457.941 83.6239 456.889 83.8812 456.586 83.3558C456.239 82.7554 456.384 81.6206 457.022 79.9516Z" fill="#6D2ADE"/>
<path d="M533.412 15.4327C537.156 13.7713 539.375 13.5411 540.068 14.742C540.372 15.2674 540.418 16.0411 540.208 17.0633C536.428 34.957 532.936 56.9881 529.731 83.1566C528.873 90.8573 527.766 98.3011 526.412 105.488C525.057 112.675 523.207 118.397 520.861 122.653C518.558 126.985 515.455 130.277 511.552 132.531C509.601 133.657 507.571 134.129 505.463 133.945C503.356 133.76 501.782 132.768 500.742 130.966C498.315 126.763 497.828 121.24 499.281 114.397C500.734 107.553 503.152 101.254 506.534 95.4985C509.959 89.8182 513.381 85.6911 516.798 83.1175L519.358 82.0902C520.065 81.5818 521.136 77.1105 522.571 68.6763C524.082 60.1987 524.75 55.8099 524.577 55.5096C524.435 55.091 524.289 54.925 524.139 55.0117L522.975 57.9355C520.379 66.4394 517.505 71.6013 514.353 73.4213C512.326 74.5913 510.49 73.7502 508.843 70.8981C506.633 67.0703 506.259 59.23 507.722 47.3772C509.185 35.5244 511.38 28.7531 514.307 27.0631C514.533 26.9331 514.839 26.8564 515.226 26.8332C517.63 26.1453 519.115 26.2892 519.678 27.2649C519.895 27.6402 519.955 28.0054 519.86 28.3606C519.797 28.5973 519.458 29.7437 518.844 31.7996C518.304 33.8122 517.808 35.8999 517.356 38.0626C516.86 40.1503 516.375 42.4314 515.903 44.906C514.842 50.5221 514.853 54.2683 515.937 56.1447C516.197 56.595 516.552 56.6902 517.002 56.4302C517.527 56.1269 518.227 55.1724 519.102 53.5668C525.556 40.1331 529.879 28.3804 532.07 18.3089C531.989 16.9548 532.436 15.9961 533.412 15.4327ZM507.116 128.487C509.266 126.145 511.299 121.519 513.214 114.609C515.172 107.774 516.622 101.533 517.565 95.8848L518.913 87.3005C519.017 86.44 519.025 85.9347 518.939 85.7846C518.852 85.6345 518.696 85.6245 518.471 85.7545C516.069 87.1411 513.716 90.9517 511.411 97.186C509.031 103.464 507.371 109.776 506.432 116.122C505.418 122.512 505.431 126.608 506.471 128.409C506.601 128.634 506.816 128.66 507.116 128.487Z" fill="#6D2ADE"/>
<path d="M553.959 39.2959C554.71 38.8626 555.285 38.7311 555.683 38.9013C557.47 39.5706 558.603 40.318 559.079 41.1436C559.513 41.8942 559.677 42.6997 559.574 43.5601C559.427 44.3455 559.232 45.3085 558.99 46.449C558.78 47.4712 558.045 49.1461 556.787 51.4736C555.647 53.8329 554.177 55.5325 552.376 56.5725C550.895 57.1274 549.742 56.6917 548.919 55.2657C547.619 53.014 547.713 50.0574 549.202 46.3959C550.647 42.6593 552.233 40.2926 553.959 39.2959Z" fill="#6D2ADE"/>
<path d="M130.209 339.039C132.686 337.609 135.231 336.991 137.844 337.183C140.413 337.301 142.283 338.373 143.453 340.399C144.58 342.351 145.219 344.584 145.37 347.099C145.808 353.751 145.399 366.996 144.144 386.835C142.888 406.674 141.063 422.839 138.668 435.33C138.541 435.804 138.072 438.026 137.262 441.996C136.484 445.848 135.72 449.291 134.97 452.326C134.296 455.318 133.168 459.171 131.587 463.887C130.081 468.559 128.482 472.635 126.788 476.114C125.213 479.626 123.126 483.032 120.529 486.333C117.9 489.752 115.084 492.329 112.082 494.062C107.353 496.792 104.036 496.506 102.129 493.203C100.006 489.526 99.793 484.044 101.491 476.759C103.158 469.592 105.912 462.748 109.752 456.228C113.518 449.75 117.24 445.45 120.918 443.327C121.368 443.067 121.702 443.124 121.918 443.5C122.135 443.875 122.158 444.262 121.988 444.66C121.818 445.059 121.161 446.088 120.018 447.749C116.89 452.557 113.877 460.251 110.978 470.831C108.005 481.455 107.233 488.005 108.663 490.481C108.837 490.782 109.073 490.845 109.374 490.672C112.526 488.852 116.112 479.376 120.131 462.244C123.992 445.705 126.968 430.927 129.06 417.91C132.328 398.611 134.977 382.571 137.005 369.791C139.066 356.893 139.973 349.364 139.727 347.204C139.882 345.914 139.851 345.081 139.635 344.705C139.375 344.255 139.057 344.138 138.682 344.355C133.878 347.128 129.242 352.357 124.772 360.042C120.377 367.683 116.876 375.659 114.268 383.969C111.692 392.161 109.905 399.898 108.905 407.18C107.862 414.387 108.013 419.154 109.356 421.481C109.529 421.781 109.728 421.866 109.954 421.736C112.355 420.35 117.252 409.417 124.642 388.938C125.202 386.613 125.669 385.343 126.044 385.126C126.42 384.909 126.694 384.951 126.867 385.251C126.997 385.477 126.986 386.584 126.834 388.573C124.898 412.608 120.59 426.553 113.911 430.41C111.509 431.796 109.032 431.926 106.479 430.798C103.958 429.551 101.744 427.277 99.8373 423.974C97.8873 420.597 96.9919 415.059 97.1511 407.362C97.3854 399.621 98.6229 391.451 100.864 382.852C103.104 374.253 106.791 365.819 111.925 357.551C117.134 349.24 123.229 343.069 130.209 339.039Z" fill="#6D2ADE"/>
<path d="M182.006 403.554C189.722 391.093 197.416 375.993 205.088 358.254C206.067 358.389 206.773 358.832 207.206 359.583C207.64 360.334 207.676 361.263 207.315 362.372C206.955 363.481 206.43 365.085 205.74 367.184C205.126 369.24 203.821 373.046 201.825 378.602C199.828 384.158 197.922 389.261 196.104 393.913C191.364 406.157 187.261 414.13 183.795 417.833C182.66 418.988 181.305 420.021 179.729 420.931C177.177 422.404 174.753 421.152 172.456 417.174C171.979 416.348 171.602 414.915 171.324 412.874C171.121 410.789 170.993 409.612 170.938 409.344C170.914 408.957 170.897 408.667 170.885 408.473C170.874 408.28 170.884 408.124 170.916 408.006C170.904 407.812 170.855 407.64 170.768 407.49C170.681 407.34 170.413 407.395 169.963 407.655C169.587 407.872 168.934 409.6 168.002 412.84C167.028 416.005 166.174 418.599 165.441 420.623C164.783 422.604 163.857 424.64 162.662 426.731C161.543 428.778 160.42 430.127 159.294 430.777C156.292 432.51 153.989 431.989 152.386 429.212C151.433 427.56 150.826 425.209 150.565 422.157C149.985 415.086 150.719 407.257 152.766 398.67C154.813 390.082 156.941 385.101 159.149 383.726C159.975 383.249 160.899 383.116 161.921 383.327C162.943 383.537 163.671 384.018 164.104 384.768C164.538 385.519 164.437 387.078 163.803 389.446C163.168 391.813 162.381 394.87 161.441 398.615C160.532 402.242 160.045 405.125 159.98 407.264C159.989 409.36 160.145 410.671 160.449 411.197C160.752 411.722 161.204 411.811 161.804 411.465C162.405 411.118 163.211 410.002 164.224 408.116C166.812 402.719 169.611 396.3 172.62 388.858C175.704 381.373 177.471 376.2 177.921 373.339C177.516 371.771 178.252 370.446 180.128 369.362C183.731 367.282 185.9 366.88 186.637 368.156C186.94 368.681 186.303 371.651 184.726 377.065C179.993 393.308 178.32 402.63 179.706 405.032C179.923 405.407 180.181 405.508 180.482 405.335C180.857 405.118 181.365 404.525 182.006 403.554Z" fill="#6D2ADE"/>
<path d="M212.126 388.566C214.752 387.05 216.244 384.087 216.601 379.678C216.989 375.15 216.702 371.013 215.739 367.266C214.733 363.443 213.667 360.556 212.54 358.605C212.237 358.079 211.673 358.055 210.847 358.532C210.096 358.965 209.434 359.898 208.86 361.33L200.677 381.216C199.972 382.423 198.945 383.417 197.594 384.197C196.243 384.977 195.286 384.879 194.722 383.903C194.332 383.228 194.147 382.734 194.168 382.422C194.263 382.067 194.609 381.367 195.206 380.321C198.55 373.287 202.534 362.681 207.158 348.502C207.417 346.351 207.997 345.016 208.898 344.496C209.799 343.976 211.473 343.409 213.921 342.796C216.326 342.109 217.745 342.14 218.179 342.89C220.779 347.394 222.727 351.723 224.025 355.877C225.323 360.031 226.085 363.344 226.311 365.816C226.568 368.169 226.741 369.42 226.827 369.57C226.914 369.721 227.032 369.752 227.182 369.666C227.333 369.579 227.568 369.293 227.888 368.808C231.871 362.706 236.352 353.914 241.332 342.433L242.864 338.846C243.842 338.981 244.548 339.424 244.982 340.175C245.415 340.926 245.467 341.796 245.139 342.786C244.988 342.873 243.947 345.576 242.014 350.895C240.156 356.171 238.022 362.007 235.61 368.403C233.23 374.68 230.339 380.853 226.937 386.92C223.535 392.987 220.407 396.844 217.555 398.491C210.5 402.564 204.524 400.36 199.628 391.879C199.238 391.204 199.154 390.452 199.376 389.623C199.629 388.676 200.207 387.942 201.107 387.422C201.324 387.797 201.858 388.29 202.71 388.898C203.594 389.389 204.413 389.767 205.166 390.032C207.254 390.528 209.574 390.04 212.126 388.566Z" fill="#6D2ADE"/>
<path d="M264.372 300.009L270.048 296.581C277.479 292.291 283.49 290.222 288.08 290.373C290.035 289.946 291.251 290.144 291.727 290.97C292.074 291.57 291.562 292.417 290.191 293.508C288.895 294.557 284.175 298.082 276.032 304.085C267.921 309.969 262.294 313.917 259.154 315.931C257.771 316.829 255.899 321.213 253.536 329.081C251.249 336.907 249.469 345.09 248.196 353.631C246.922 362.172 246.957 367.606 248.3 369.932C248.517 370.308 248.9 370.537 249.448 370.621C249.954 370.629 250.469 370.482 250.994 370.178C251.595 369.832 252.365 369.087 253.306 367.943C262.714 351.303 271.253 334.114 278.925 316.375C279.903 316.51 280.609 316.953 281.043 317.704C281.476 318.454 281.534 319.422 281.217 320.606C280.856 321.714 280.316 323.378 279.594 325.595C278.948 327.77 277.655 331.769 275.714 337.593C273.772 343.418 271.839 348.737 269.915 353.55C264.878 366.666 260.83 374.907 257.771 378.275C256.636 379.43 255.131 380.55 253.254 381.633C251.453 382.673 249.223 382.71 246.563 381.743C243.979 380.734 241.755 378.615 239.891 375.388C238.028 372.16 237.406 366.315 238.024 357.852C238.717 349.346 240.824 339.823 244.346 329.284C244.718 328.368 244.774 327.685 244.514 327.235C244.254 326.785 243.336 327.014 241.76 327.924L234.798 332.245C224.815 338.008 219.024 339.85 217.424 337.772C214.837 338.665 213.284 338.661 212.764 337.761C212.59 337.46 212.654 337.224 212.954 337.05C213.211 336.802 213.452 336.613 213.677 336.483C213.859 336.278 214.191 335.986 214.673 335.608C215.155 335.229 218.936 332.245 226.017 326.656C233.173 321.024 241.488 314.972 250.962 308.502L252.75 293.659C252.68 292.498 253.996 291.138 256.698 289.578C259.4 288.018 261.076 287.801 261.726 288.927C261.943 289.302 262.033 290.151 261.996 291.473L261.456 297.039C261.774 298.456 262.069 299.487 262.341 300.131C262.644 300.656 263.321 300.615 264.372 300.009Z" fill="#6D2ADE"/>
<path d="M318.825 240.8C319.961 237.742 321.918 235.411 324.695 233.808C327.472 232.205 329.186 231.966 329.836 233.092C330.096 233.542 330.148 234.412 329.992 235.703C330.172 237.401 330.304 244.13 330.389 255.889C330.514 286.44 332.787 305.543 337.207 313.198C337.553 313.799 337.877 314.012 338.177 313.839C338.627 313.579 338.944 312.395 339.129 310.287C339.129 303.182 339.538 294.79 340.355 285.111C341.172 275.433 342.203 266.732 343.447 259.008C344.692 251.284 346.695 243.573 349.456 235.874C352.216 228.176 355.486 222.486 359.264 218.803C365.926 213.356 370.345 210.003 372.522 208.747C372.791 208.692 373.012 208.814 373.185 209.115C373.315 209.34 373.097 209.916 372.531 210.843C366.78 220.468 361.435 235.563 356.496 256.128C351.588 276.574 348.098 296.703 346.025 316.513C345.967 322.651 345.512 326.717 344.661 328.709C343.81 330.702 342.333 332.305 340.232 333.518C336.329 335.771 331.994 332.77 327.227 324.514C325.147 320.911 323.737 316.822 322.996 312.246C320.147 295.177 319.256 282.281 320.325 273.559C320.71 268.332 320.794 265.532 320.578 265.156C320.448 264.931 320.257 265.642 320.007 267.287C314.881 301.57 310.555 324.583 307.027 336.327C304.905 344.957 302.156 354.15 298.781 363.904C295.406 373.659 292.321 380.794 289.524 385.311C288.855 387.098 287.808 388.404 286.381 389.227C284.955 390.05 282.882 390.446 280.163 390.415C277.443 390.385 275.628 389.581 274.718 388.005C274.241 387.179 274.258 386.169 274.769 384.973L284.263 358.777C284.825 357.151 285.256 356.251 285.557 356.078C285.782 355.948 285.981 356.033 286.154 356.333C286.284 356.559 286.367 356.961 286.402 357.542C286.436 358.122 286.38 358.805 286.233 359.59C286.011 360.419 285.768 361.21 285.502 361.964L284.758 365.095C283.775 368.765 283.348 370.713 283.478 370.938C283.652 371.238 283.813 371.345 283.963 371.259C284.113 371.172 284.359 370.73 284.699 369.933C289.045 360.819 294.066 345.511 299.765 324.007C305.42 302.429 310.01 283.166 313.536 266.22L318.825 240.8Z" fill="#6D2ADE"/>
<path d="M366.343 303.882C368.745 302.495 370.799 299.208 372.507 294.019C374.214 288.83 374.797 285.591 374.253 284.304C372.919 284.073 371.164 283.286 368.986 281.941C366.841 280.478 365.73 279.768 365.655 279.811C364.585 283.331 363.973 287.037 363.818 290.929C363.739 297.379 364.22 301.505 365.26 303.306C365.607 303.907 365.967 304.099 366.343 303.882ZM374.736 262.259C373.985 262.693 373.081 264.766 372.022 268.479C371.039 272.149 370.807 274.435 371.327 275.335C371.457 275.561 371.942 275.881 372.783 276.296C373.623 276.712 374.156 276.855 374.381 276.725C375.657 275.988 376.195 273.626 375.994 269.639C375.869 265.608 375.676 263.368 375.416 262.917C375.113 262.392 374.886 262.173 374.736 262.259ZM383.346 276.652C385.448 275.439 387.976 272.278 390.931 267.17C393.961 262.018 396.428 257.191 398.332 252.689L401.123 245.824C402.102 245.959 402.808 246.402 403.241 247.152C403.675 247.903 403.727 248.774 403.398 249.764C397.644 268.397 391.577 279.556 385.197 283.239C384.747 283.499 384.028 283.814 383.041 284.184C380.236 298.913 375.794 308.032 369.715 311.542C365.315 313.282 361.94 313.329 359.589 311.684C358.339 310.905 357.215 309.652 356.218 307.926C353.358 302.972 352.809 295.434 354.57 285.311C356.287 275.112 360.53 265.908 367.298 257.697C368.049 257.264 368.72 257.126 369.312 257.285C369.86 257.368 370.307 257.361 370.65 257.263C370.95 257.089 371.239 256.723 371.516 256.162C371.825 255.484 372.392 254.906 373.217 254.429C374 253.878 375.123 253.83 376.587 254.285C378.351 254.568 379.645 255.422 380.468 256.848C382.895 261.051 383.854 267.653 383.346 276.652Z" fill="#6D2ADE"/>
<path d="M390.748 268.326C393.229 263.09 395.768 257.522 398.365 251.619C395.01 251.355 392.54 250.629 390.954 249.443C390.426 249.048 390.096 248.737 389.966 248.512C389.1 247.011 389.024 245.754 389.74 244.74C390.412 243.651 391.837 242.479 394.014 241.222C394.839 240.745 397.863 240.35 403.086 240.037C408.309 239.723 411.446 239.263 412.497 238.656C413.623 238.006 414.988 236.818 416.593 235.091C418.154 233.289 419.498 232.062 420.624 231.412C421.825 230.719 422.84 230.484 423.668 230.706C426.975 232.099 428.78 233.059 429.083 233.584C429.386 234.109 429.384 234.711 429.075 235.39C428.798 235.95 427.866 237.889 426.279 241.207C424.767 244.482 423.314 247.772 421.921 251.079C420.527 254.385 419.414 257.83 418.581 261.413C417.747 264.997 417.742 267.502 418.566 268.928C418.696 269.153 418.948 269.157 419.324 268.94C423.377 266.6 432.292 250.495 446.069 220.625C446.594 220.321 447.139 220.658 447.702 221.633C448.222 222.534 447.121 227.473 444.398 236.45C441.632 245.353 438.034 254.635 433.606 264.297C429.208 273.841 425.321 279.588 421.944 281.538C416.69 284.572 412.546 283.461 409.513 278.207C407.866 275.355 407.223 272.074 407.582 268.364C407.974 264.535 409.947 258.592 413.501 250.536C412.225 251.272 410.326 251.969 407.802 252.625C405.236 253.206 403.392 253.22 402.272 252.666C401.317 255.519 399.608 260.358 397.144 267.185C396.495 268.66 395.27 269.918 393.469 270.958C391.667 271.998 390.615 272.256 390.312 271.73C389.965 271.13 390.11 269.995 390.748 268.326Z" fill="#6D2ADE"/>
<path d="M491.421 228.966C491.811 229.642 492.419 229.741 493.244 229.265C494.145 228.745 495.418 227.309 497.063 224.958C498.783 222.564 500.591 219.369 502.486 215.372C504.457 211.332 506.921 205.807 509.878 198.795C512.867 191.666 515.549 185.564 517.924 180.49C518.902 180.626 519.609 181.069 520.042 181.819C520.475 182.57 520.527 183.44 520.199 184.431C519.14 188.144 517.79 192.826 516.149 198.477C514.465 204.053 511.522 211.957 507.322 222.188C503.196 232.375 499.632 238.336 496.63 240.069C490.851 243.406 486.185 241.997 482.631 235.842C481.288 233.516 480.78 230.556 481.108 226.964L482.114 217.527C482.175 216.591 482.183 216.086 482.14 216.011C482.053 215.861 481.893 216.104 481.659 216.739C474.883 235.162 470.235 246.352 467.716 250.308C467.332 251.03 466.69 251.651 465.789 252.171C463.312 253.601 461.424 253.19 460.124 250.938C459.691 250.188 459.488 249.404 459.517 248.587C460.23 239.769 461.122 233.6 462.192 230.08L463.001 227.061C463.064 226.824 463.053 226.631 462.966 226.481C462.879 226.331 462.761 226.299 462.611 226.386C462.461 226.472 462.322 226.752 462.195 227.226L455.609 243.638C451.792 253.147 449.654 258.284 449.195 259.049C448.768 259.696 448.292 260.171 447.767 260.475C447.241 260.778 446.242 260.955 444.77 261.004C443.254 260.979 442.258 260.553 441.781 259.727C441.651 259.502 441.59 259.137 441.599 258.632C444.274 246.279 445.784 236.501 446.128 229.297C446.254 226.222 446.344 223.518 446.398 221.185C446.484 218.734 446.611 216.959 446.778 215.862C447.02 214.722 447.516 213.935 448.267 213.501C449.017 213.068 450.103 213.042 451.524 213.422C452.976 213.685 453.962 214.266 454.482 215.167C455.002 216.067 455.244 217.179 455.207 218.501C455.298 224.553 455.021 228.666 454.375 230.84C454.28 231.196 454.297 231.486 454.427 231.711C454.514 231.861 454.632 231.893 454.782 231.806L455.055 231.499L464.096 212.318C466.407 207.481 467.938 204.846 468.689 204.413C469.439 203.98 470.379 203.787 471.508 203.836C472.669 203.766 473.422 204.032 473.769 204.632C474.116 205.233 474.275 205.941 474.246 206.758L472.713 221.003C472.431 222.768 472.333 223.725 472.419 223.875C472.506 224.025 472.587 224.078 472.662 224.035L473.03 223.372C478.729 211.576 482.514 203.486 484.387 199.102C486.334 194.676 487.451 191.929 487.736 190.864C488.353 189.507 489 188.633 489.675 188.243C490.426 187.81 490.957 187.603 491.269 187.623L494.851 188.107C495.818 188.049 496.475 188.32 496.822 188.921C497.168 189.521 497.3 190.096 497.216 190.644C495.561 198.005 494.206 203.891 493.151 208.303C492.171 212.672 491.47 215.878 491.049 217.923C490.441 221.376 490.324 223.946 490.697 225.632C490.703 227.029 490.944 228.141 491.421 228.966Z" fill="#6D2ADE"/>
<path d="M528.604 206.898C531.08 205.468 534.681 200.438 539.404 191.806C544.203 183.131 548.326 174.846 551.774 166.951L557.058 155.044C558.037 155.179 558.743 155.622 559.177 156.373C559.61 157.123 559.646 158.053 559.286 159.162C558.925 160.271 558.4 161.875 557.711 163.974C557.097 166.03 555.791 169.836 553.795 175.391C551.799 180.947 549.892 186.051 548.075 190.703C543.335 202.947 539.232 210.92 535.765 214.622C534.631 215.778 533.351 216.767 531.924 217.59C530.498 218.414 529.308 218.951 528.352 219.203C527.396 219.454 526.214 219.486 524.805 219.299C521.9 218.774 518.801 215.66 515.508 209.956C514.598 208.38 513.887 205.588 513.374 201.581C512.862 197.573 512.823 192.392 513.257 186.037C513.766 179.638 514.763 172.958 516.247 165.997C517.807 158.992 520.455 151.358 524.192 143.097C528.003 134.791 532.726 127.111 538.359 120.056C539.268 119.031 540.173 118.258 541.074 117.738C541.975 117.218 543.039 117.154 544.266 117.546C545.45 117.864 546.43 118.348 547.207 119.001L548.42 119.801C549.417 121.528 548.941 126.856 546.992 135.787C545.023 145.03 542.039 154.509 538.04 164.223C534.073 173.818 530.139 182.344 526.238 189.801C523.116 196.006 522.595 200.911 524.675 204.513C526.018 206.84 527.328 207.635 528.604 206.898ZM525.281 177.744C527.158 176.66 530.159 168.773 534.286 154.081C538.488 139.346 540.286 131.453 539.679 130.402L539.437 130.242L538.043 132.247C535.613 137.053 532.91 144.418 529.934 154.342C527.032 164.223 525.34 171.605 524.856 176.488C524.773 177.036 524.796 177.423 524.926 177.648C525.013 177.799 525.131 177.83 525.281 177.744Z" fill="#6D2ADE"/>
<path d="M560.029 185.903C560.78 185.469 561.354 185.338 561.753 185.508C563.54 186.177 564.672 186.925 565.149 187.75C565.582 188.501 565.747 189.306 565.643 190.167C565.496 190.952 565.302 191.915 565.06 193.056C564.849 194.078 564.115 195.753 562.857 198.08C561.717 200.44 560.247 202.139 558.445 203.179C556.964 203.734 555.812 203.298 554.989 201.872C553.689 199.621 553.783 196.664 555.272 193.003C556.717 189.266 558.303 186.899 560.029 185.903Z" fill="#6D2ADE"/>
<path d="M536.44 0.0887485C539.348 -0.212951 547.614 -0.188859 552.193 7.74207C555.079 12.7408 554.365 17.7247 553.92 19.8866L553.913 19.9218L553.905 19.9569C553.557 21.608 553.212 23.2976 552.867 25.0253C554.877 24.7059 557.624 24.6684 560.591 25.7899C562.844 26.6334 568.12 28.8034 571.203 34.1434C573.151 37.5171 573.94 41.3665 573.474 45.2343L573.419 45.6874L573.335 46.1356C573.16 47.0694 572.941 48.1505 572.685 49.3563L572.683 49.3554C572.013 52.5257 570.394 55.7305 569.2 57.9481C567.152 62.0426 564.026 66.0123 559.376 68.6971L558.372 69.2762L557.287 69.6825C554.319 70.7945 550.094 71.4723 545.568 69.7997C544.911 74.6464 544.263 79.6656 543.627 84.8583C542.92 91.1803 542.047 97.3545 541.012 103.381C543.616 103.126 546.092 103.474 548.222 104.116C550.588 104.786 553.065 105.881 555.365 107.611L558.892 109.939L560.544 112.802C562.373 115.969 562.736 119.143 562.854 120.741C562.995 122.66 562.911 124.592 562.755 126.339C562.442 129.845 561.7 134.05 560.679 138.733C560.492 139.611 560.292 140.488 560.089 141.367C564.178 142.203 568.329 144.563 571.023 148.907L571.301 149.373L571.575 149.866C574.3 154.965 573.708 160.083 572.6 163.491C572.241 164.595 571.725 166.168 571.056 168.205C570.65 169.544 570.058 171.335 569.299 173.534C571.714 174.737 574.808 176.788 576.978 180.259L577.274 180.75L577.625 181.389C579.315 184.606 579.98 188.216 579.543 191.842L579.488 192.294L579.404 192.742C579.234 193.654 579.02 194.707 578.772 195.878L578.773 195.879C578.771 195.885 578.769 195.892 578.768 195.898C578.763 195.92 578.759 195.942 578.754 195.964L578.753 195.963C578.084 199.129 576.468 202.33 575.275 204.547C573.226 208.644 570.099 212.617 565.445 215.304L564.442 215.883L563.357 216.29C560.384 217.403 556.151 218.081 551.617 216.399C549.807 219.467 547.937 222.106 545.985 224.19L545.871 224.312L545.755 224.431C543.718 226.505 541.429 228.269 538.925 229.715C537.035 230.806 534.607 232.034 531.915 232.742C528.603 233.614 525.449 233.507 522.961 233.177L522.638 233.134L522.318 233.076C520.917 232.823 519.611 232.428 518.4 231.936C516.816 235.524 515.211 238.739 513.57 241.483C511.563 244.841 508.4 249.439 503.63 252.193C498.67 255.057 491.991 257.103 484.749 254.917C483.703 254.601 482.714 254.216 481.778 253.775C481.09 255.146 480.419 256.377 479.769 257.433C477.872 260.714 475.216 262.895 472.789 264.296C470.17 265.808 465.921 267.554 460.824 266.843C459.523 268.794 457.585 270.973 454.767 272.599C452.456 273.934 450.235 274.413 449.059 274.621C447.692 274.862 446.369 274.958 445.24 274.996L444.888 275.008L444.534 275.002C444.362 274.999 444.179 274.991 443.986 274.982C442.356 278.185 440.695 281.087 438.988 283.609C436.644 287.075 433.387 291.097 428.944 293.663C424.448 296.259 418.195 298.359 411.272 296.504C406.236 295.154 402.555 292.169 399.923 288.912C398.542 290.469 397.041 291.913 395.406 293.189C394.046 298.725 392.345 303.783 390.193 308.201C387.267 314.206 383.027 320.022 376.715 323.667L375.821 324.182L374.862 324.561C370.829 326.156 365.225 327.598 359.459 326.499C359.169 328.79 358.652 331.596 357.535 334.209C355.353 339.319 351.626 343.105 347.232 345.642C343.99 347.514 340.124 348.544 335.957 348.166C331.946 347.802 328.62 346.223 326.084 344.468C324.075 343.076 322.283 341.379 320.678 339.528C320.634 339.679 320.59 339.829 320.546 339.977C318.318 348.994 315.466 358.499 312.012 368.482C308.745 377.923 305.452 385.873 302.034 391.674C300.326 395.45 297.529 398.957 293.382 401.351C288.793 404.001 283.775 404.458 280.004 404.415C274.989 404.358 267.063 402.745 262.594 395.005C262.199 394.321 261.866 393.636 261.587 392.955C261.144 393.232 260.7 393.501 260.254 393.758C253.702 397.54 246.849 396.743 241.781 394.901L241.624 394.845L241.469 394.783C240.669 394.47 239.9 394.121 239.162 393.74C239.157 393.749 239.153 393.758 239.148 393.767C235.604 400.086 230.933 406.933 224.556 410.615C218.557 414.079 210.983 415.923 203.114 413.09C200.245 419 197.239 423.958 194.015 427.401L193.901 427.522L193.784 427.641C191.661 429.804 189.268 431.589 186.729 433.055C182.958 435.231 178.454 436.11 173.968 435.128C172.375 437.694 169.943 440.795 166.294 442.901C163.149 444.717 158.121 446.677 152.221 445.34C151.78 445.24 151.353 445.123 150.937 444.996C150.144 448.907 149.354 452.475 148.562 455.683C147.737 459.274 146.471 463.534 144.861 468.336C143.24 473.347 141.451 477.949 139.458 482.068C137.388 486.631 134.72 490.937 131.531 494.99L131.53 494.989C128.067 499.467 123.963 503.368 119.081 506.186C115.678 508.151 110.662 510.345 104.844 509.843C97.9139 509.245 92.8605 505.151 90.0041 500.203C85.3175 492.085 85.8716 482.536 87.6779 474.367L87.8566 473.581C89.7918 465.262 92.9452 457.341 97.2677 449.847L97.6896 449.122C98.7589 447.286 99.8975 445.475 101.113 443.728C101.016 443.687 100.917 443.646 100.819 443.603L100.544 443.481L100.274 443.348C94.5365 440.511 90.5224 435.84 87.713 430.974C83.7473 424.106 82.9848 415.273 83.1544 407.072L83.1554 407.005L83.1574 406.938C83.4277 398.008 84.8482 388.79 87.3156 379.321C89.9429 369.238 94.226 359.515 100.031 350.166L100.047 350.141L100.063 350.116C106.225 340.284 113.864 332.31 123.209 326.915C127.855 324.233 133.136 322.822 138.765 323.214C145.438 323.6 151.805 326.865 155.577 333.399C157.913 337.445 159.079 341.834 159.345 346.26C159.671 351.303 159.574 359.076 159.123 369.33C160.806 369.153 162.478 369.219 164.089 369.492C164.408 367.756 165.01 366.03 165.929 364.374C167.947 360.738 170.885 358.533 173.128 357.238L173.989 356.752C176.096 355.593 178.861 354.3 181.906 353.735C183.716 353.4 186.602 353.131 189.847 354.106C190.044 354.166 190.241 354.23 190.436 354.297C191.412 351.495 192.433 348.472 193.499 345.223C193.767 343.72 194.202 342.023 194.945 340.311C195.671 338.641 196.906 336.469 198.966 334.543C199.022 334.276 199.085 334.006 199.158 333.734C200.094 330.242 202.075 327.885 203.869 326.388C204.133 326.154 204.424 325.911 204.74 325.665C205.278 325.187 205.745 324.817 206.028 324.595L217.343 315.667L217.351 315.661L217.358 315.655C223.437 310.87 230.262 305.839 237.816 300.565L238.777 292.597C239.097 287.266 242.073 283.635 243.623 282.033C245.58 280.011 247.849 278.522 249.698 277.454C251.526 276.399 254.559 274.831 258.184 274.361C260.145 274.107 263.022 274.075 266.141 275.294C268.652 276.275 270.758 277.852 272.364 279.792C277.118 277.823 282.005 276.503 286.845 276.376C288.471 276.14 290.51 276.024 292.718 276.386C293.939 276.585 295.327 276.962 296.739 277.589C297.849 272.671 298.88 267.931 299.829 263.368L305.333 236.913L305.701 235.923C307.952 229.868 312.043 224.947 317.695 221.683C319.543 220.617 322.556 219.059 326.131 218.56C328.055 218.292 330.929 218.217 334.069 219.395C336.23 220.207 338.113 221.465 339.645 223.035C342.272 217.576 345.484 212.684 349.492 208.777L349.93 208.351L350.402 207.965C356.829 202.709 362.169 198.558 365.523 196.622L367.489 195.486L369.715 195.031C372.825 194.395 376.396 194.732 379.685 196.557C382.503 198.122 384.187 200.264 385.13 201.813L385.309 202.115L385.503 202.462C387.438 206.037 387.297 209.385 387.134 210.874C386.946 212.59 386.491 213.935 386.214 214.667C385.677 216.087 384.999 217.277 384.548 218.023L384.549 218.024C381.597 222.964 378.52 230.193 375.424 239.992C375.767 240.005 376.102 240.026 376.429 240.056C376.846 239.04 377.386 238.019 378.069 237.004C380.655 233.044 384.494 230.552 387.014 229.098L387.413 228.875C389.407 227.805 391.285 227.377 391.953 227.225C393.019 226.984 394.106 226.815 395.087 226.686C397.071 226.427 399.505 226.226 402.247 226.061C403.901 225.962 405.189 225.852 406.159 225.747C406.193 225.711 406.229 225.676 406.264 225.639C408.118 223.527 410.595 221.037 413.624 219.288L414.125 219.007C416.69 217.612 421.266 215.78 426.724 217.041L427.292 217.182L428.22 217.432L429.106 217.805C429.914 218.145 430.706 218.491 431.465 218.837C431.855 217.999 432.251 217.149 432.651 216.286C432.726 215.382 432.82 214.528 432.938 213.754L432.998 213.352L433.083 212.955C433.851 209.336 436.006 204.414 441.267 201.377C446.535 198.335 451.839 199.081 454.66 199.774C454.707 199.784 454.754 199.794 454.801 199.805C454.825 199.763 454.849 199.722 454.872 199.682C455.384 198.8 456.016 197.777 456.744 196.798C457.121 196.291 458.807 193.953 461.689 192.289L462.032 192.096C465.377 190.261 468.789 189.778 471.598 189.833C472.042 189.83 472.555 189.84 473.119 189.882C473.345 189.347 473.545 188.871 473.716 188.45C473.96 187.85 474.124 187.424 474.227 187.145C474.247 187.089 474.262 187.044 474.275 187.01L474.513 186.121L474.992 185.066C475.881 183.112 478.043 178.794 482.676 176.119L483.261 175.791C483.897 175.446 484.679 175.059 485.562 174.716C486.36 174.405 488.621 173.558 491.571 173.626L492.17 173.652L492.658 173.683L495.991 174.134C497.332 174.212 498.858 174.454 500.422 174.967C500.985 171.065 501.697 167.101 502.555 163.077L502.582 162.954C503.663 158.101 505.167 153.105 507.058 147.973C506.131 148 505.193 147.974 504.245 147.891C497.68 147.318 491.988 143.805 488.617 137.967C483.832 129.678 483.728 120.239 485.586 111.489C485.795 110.507 486.02 109.532 486.263 108.564C483.552 108.995 480.615 108.951 477.546 108.129C474.018 107.183 471.155 105.435 468.851 103.352C467.936 105.567 467.048 107.638 466.182 109.557L466.173 109.575L466.165 109.594C464.389 113.498 462.714 116.883 461.167 119.543C460.399 120.862 459.515 122.261 458.523 123.547C457.753 124.543 455.978 126.742 453.189 128.352C450.01 130.188 445.4 131.666 440.366 130.634C438.001 135.125 434.591 139.99 429.486 142.938L428.285 143.632L426.972 144.076C425.61 144.537 424.308 144.795 423.225 144.952C421.823 145.209 420.535 145.253 419.448 145.205C419.298 145.465 419.148 145.722 418.997 145.974C416.99 149.332 413.826 153.931 409.057 156.684C404.096 159.548 397.418 161.595 390.176 159.408C389.13 159.092 388.142 158.706 387.206 158.266C386.516 159.639 385.843 160.872 385.192 161.931C383.295 165.208 380.641 167.386 378.216 168.786C375.939 170.1 372.431 171.591 368.206 171.492C366.211 175.003 364.144 178.002 361.978 180.316L361.863 180.438L361.747 180.557C359.624 182.719 357.231 184.505 354.692 185.971C349.731 188.834 343.052 190.881 335.811 188.694C335.426 188.578 335.05 188.451 334.681 188.317C332.084 193.426 329.371 197.724 326.484 200.808L326.37 200.931L326.253 201.049C324.13 203.211 321.737 204.997 319.198 206.463L318.294 206.985L317.322 207.367C313.599 208.831 309.69 209.354 305.784 208.997L305.583 208.978L305.383 208.954C305.197 208.932 305.01 208.905 304.822 208.877C302.457 213.373 299.045 218.248 293.932 221.2L292.732 221.893L291.418 222.338C290.051 222.8 288.744 223.058 287.658 223.216C285.241 223.657 283.164 223.465 281.875 223.268C281.502 223.212 281.137 223.143 280.78 223.069C280.19 224.047 279.597 224.982 278.996 225.87C276.652 229.335 273.395 233.357 268.951 235.923C264.455 238.518 258.203 240.619 251.279 238.764C246.244 237.414 242.563 234.43 239.931 231.173C238.55 232.73 237.049 234.174 235.414 235.45C234.054 240.985 232.353 246.043 230.2 250.462C227.275 256.467 223.035 262.283 216.723 265.928L215.829 266.443L214.87 266.822C209.061 269.119 199.996 271.1 191.878 265.626C188.283 263.296 185.81 260.146 184.102 257.186C184.019 257.043 183.938 256.9 183.858 256.756C182.427 260.84 180.993 264.695 179.547 268.311C176.973 275.005 174.555 280.711 172.296 285.31C170.156 289.668 167.677 294.051 164.762 297.26L164.579 297.46L164.39 297.653C162.127 299.958 159.512 301.81 156.884 303.327C150.332 307.11 143.479 306.313 138.411 304.472L138.254 304.415L138.098 304.353C136.106 303.575 134.311 302.572 132.695 301.407C131.837 303.886 130.885 306.23 129.82 308.416C126.895 314.421 122.655 320.237 116.343 323.882L115.45 324.397L114.49 324.776C110.456 326.371 104.853 327.813 99.0871 326.714C98.7969 329.004 98.2804 331.811 97.1642 334.424C94.9816 339.533 91.2548 343.32 86.8605 345.857C83.6188 347.729 79.7524 348.758 75.5861 348.38C71.5749 348.016 68.2476 346.437 65.7121 344.682C63.7029 343.29 61.9108 341.594 60.3058 339.743C60.2619 339.893 60.2187 340.043 60.175 340.19C57.9464 349.207 55.0952 358.712 51.6408 368.696C48.3743 378.137 45.0809 386.087 41.6632 391.889C39.9551 395.665 37.1569 399.171 33.0099 401.565C28.4206 404.215 23.4027 404.672 19.632 404.629C14.6171 404.572 6.69089 402.96 2.22183 395.22C-1.04131 389.568 -0.136851 383.893 1.31265 380.203L10.7287 354.222C11.0686 353.251 11.4952 352.123 12.0128 351.044C12.2827 350.481 12.7277 349.611 13.3683 348.672C13.7851 348.061 15.3159 345.825 18.1847 344.169L18.4777 344.004C18.7367 343.863 19.0071 343.727 19.2873 343.597C21.3145 337.138 23.5103 329.504 25.8605 320.636C31.4667 299.241 35.9946 280.231 39.4582 263.583L44.9621 237.128L45.3302 236.137C47.5806 230.082 51.6712 225.162 57.3234 221.898C59.171 220.832 62.1838 219.274 65.7589 218.775C67.6826 218.507 70.5566 218.432 73.6964 219.61C75.8583 220.422 77.7422 221.68 79.2736 223.25C81.9005 217.791 85.1131 212.899 89.1212 208.992L89.5578 208.566L90.0304 208.18C96.4577 202.924 101.797 198.773 105.151 196.837L107.118 195.701L109.344 195.246C112.453 194.61 116.024 194.946 119.313 196.771C122.131 198.336 123.816 200.478 124.759 202.027L124.938 202.329L125.132 202.676C127.068 206.251 126.925 209.6 126.762 211.089C126.574 212.805 126.12 214.15 125.843 214.882C125.552 215.651 125.219 216.352 124.904 216.952C127.943 214.727 131.123 212.454 134.445 210.135L135.404 202.171C135.724 196.838 138.702 193.206 140.252 191.603C142.209 189.581 144.478 188.091 146.327 187.023C148.155 185.968 151.188 184.401 154.813 183.932C156.774 183.677 159.652 183.646 162.771 184.864C165.282 185.845 167.387 187.422 168.993 189.361C173.744 187.394 178.628 186.076 183.465 185.947C185.093 185.711 187.136 185.593 189.348 185.955C191.779 186.353 194.868 187.449 197.503 189.838L198.113 189.099L200.306 187.833C201.211 187.31 202.35 186.758 203.677 186.32C204.359 185.764 205.05 185.281 205.726 184.864C209.482 182.434 213.349 182.04 216.437 182.316C216.853 181.3 217.394 180.28 218.077 179.265C220.662 175.304 224.502 172.813 227.022 171.358L227.421 171.136C229.415 170.066 231.293 169.637 231.961 169.486C233.026 169.245 234.114 169.074 235.095 168.946C237.079 168.687 239.512 168.487 242.255 168.322C243.908 168.223 245.197 168.113 246.167 168.008C246.203 167.97 246.24 167.932 246.277 167.892C248.131 165.783 250.606 163.296 253.632 161.549L254.133 161.267C256.697 159.873 261.274 158.041 266.732 159.302L267.3 159.443L268.228 159.692L269.113 160.065C269.922 160.406 270.714 160.752 271.473 161.098C272.091 159.771 272.723 158.413 273.364 157.021L275.226 152.984L275.984 152.546C276.359 151.872 276.74 151.201 277.132 150.535C280.977 143.992 285.82 137.973 292.124 134.087C292.287 132.933 292.465 131.706 292.658 130.41C294.089 120.461 296.473 110.097 299.758 99.3358C301.486 93.6663 303.471 88.5176 305.841 84.2274C308.085 80.1649 311.416 75.4977 316.497 72.5643L316.957 72.3075C319.37 71.0085 323.467 69.5198 328.404 70.6835C333.542 71.8945 336.634 75.2629 338.268 77.8739L338.575 78.3846L338.763 78.7177C340.009 80.9804 340.678 83.2939 341.038 85.3798C343.096 84.9087 346.348 84.6091 349.906 85.9852C352.141 86.8286 357.052 88.9028 360.117 93.8075L360.412 94.2987L360.764 94.9364C361.266 95.8932 361.675 96.8858 361.994 97.9022C362.973 96.815 364.195 95.7632 365.72 94.8827C368.748 93.1341 372.128 92.5937 373.993 92.3729L374.694 92.2958C375.771 92.1718 377.154 92.0804 378.708 92.1932C379.87 90.0031 381.99 86.8401 385.669 84.7157C386.379 84.3058 387.379 83.7701 388.556 83.3124C389.059 83.1168 390.141 82.7105 391.61 82.452L395.798 81.4042L397.097 81.326C399.571 81.1776 403.38 81.5626 406.855 83.7137C408.499 79.8195 410.406 76.0267 412.573 72.3387L412.596 72.2997L412.618 72.2616C416.678 65.4514 421.79 59.2079 428.458 55.3583L428.777 55.1747L429.105 55.0077C431.941 53.5635 434.692 53.0334 437.241 53.078C439.211 52.3339 441.065 52.0888 442.558 52.0497C442.992 50.9124 443.578 49.7675 444.344 48.6298C446.929 44.6699 450.768 42.1783 453.287 40.7235L453.688 40.5009C455.681 39.4313 457.558 39.0028 458.227 38.8514C459.292 38.6102 460.38 38.4396 461.361 38.3114C463.346 38.0522 465.779 37.852 468.522 37.6874C470.175 37.5882 471.462 37.4778 472.433 37.3729C472.472 37.332 472.512 37.2905 472.553 37.247C474.406 35.1396 476.877 32.6579 479.898 30.9139L480.4 30.6327C482.964 29.2382 487.541 27.4061 492.998 28.6669L493.566 28.8085L494.494 29.0575L495.379 29.4305C495.875 29.6395 496.365 29.8502 496.845 30.0614C496.944 29.7333 497.045 29.4099 497.149 29.0917C497.898 26.7798 498.889 24.3188 500.273 22.0331C501.608 19.8275 503.803 16.9616 507.308 14.9384L507.831 14.6493C509.538 13.7512 511.181 13.301 512.528 13.0712C514.245 12.6542 516.482 12.2867 518.944 12.4481C519.141 11.8565 519.377 11.2577 519.657 10.6561C521.176 7.40045 523.608 4.92771 526.412 3.30848L527.055 2.93738L527.734 2.63562C530.024 1.61933 533.121 0.433144 536.44 0.0887485ZM137.844 337.183C135.231 336.991 132.686 337.609 130.209 339.039C123.229 343.069 117.134 349.24 111.925 357.551C106.791 365.819 103.104 374.253 100.864 382.852C98.6229 391.451 97.3854 399.621 97.1511 407.362C96.9919 415.059 97.8873 420.597 99.8373 423.974C101.744 427.277 103.958 429.551 106.479 430.798C109.032 431.926 111.509 431.796 113.911 430.41C120.59 426.553 124.898 412.608 126.834 388.573C126.986 386.585 126.997 385.477 126.867 385.251C126.694 384.951 126.42 384.909 126.044 385.126C125.669 385.343 125.202 386.613 124.642 388.938C117.252 409.417 112.355 420.35 109.954 421.736C109.728 421.866 109.529 421.781 109.356 421.481C108.013 419.154 107.862 414.387 108.905 407.18C109.905 399.898 111.692 392.161 114.268 383.969C116.876 375.659 120.377 367.683 124.772 360.042C129.242 352.357 133.878 347.128 138.682 344.355C139.057 344.138 139.375 344.255 139.635 344.705C139.851 345.081 139.882 345.914 139.727 347.204C139.973 349.364 139.066 356.893 137.005 369.791C134.977 382.571 132.328 398.611 129.06 417.91C126.968 430.927 123.992 445.705 120.131 462.244C116.112 479.376 112.526 488.852 109.374 490.672C109.073 490.845 108.837 490.782 108.663 490.481C107.233 488.005 108.005 481.455 110.978 470.831C113.877 460.251 116.89 452.557 120.018 447.749C121.161 446.088 121.818 445.059 121.988 444.66C122.158 444.262 122.135 443.875 121.918 443.5C121.702 443.124 121.368 443.067 120.918 443.327C117.24 445.45 113.518 449.75 109.752 456.228C105.912 462.748 103.158 469.592 101.491 476.759C99.793 484.044 100.006 489.526 102.129 493.203C104.036 496.506 107.353 496.792 112.082 494.062C115.084 492.329 117.9 489.752 120.529 486.333C123.126 483.032 125.213 479.626 126.788 476.114C128.482 472.635 130.081 468.559 131.587 463.887C133.168 459.171 134.296 455.318 134.97 452.326C135.72 449.291 136.484 445.848 137.262 441.996C138.072 438.027 138.541 435.805 138.668 435.33C141.063 422.839 142.888 406.674 144.144 386.835C145.399 366.996 145.808 353.751 145.37 347.099C145.219 344.584 144.58 342.351 143.453 340.399C142.283 338.373 140.413 337.301 137.844 337.183ZM261.726 288.927C261.076 287.801 259.4 288.018 256.698 289.578L256.208 289.868C253.837 291.307 252.685 292.571 252.75 293.659L250.962 308.502C241.488 314.972 233.173 321.024 226.017 326.656C218.938 332.244 215.156 335.228 214.673 335.608C214.191 335.986 213.859 336.278 213.677 336.483C213.452 336.613 213.211 336.802 212.954 337.05C212.654 337.224 212.59 337.46 212.764 337.761C213.284 338.661 214.837 338.665 217.424 337.772C219.024 339.85 224.815 338.008 234.798 332.245L241.76 327.924C243.336 327.014 244.254 326.785 244.514 327.235C244.774 327.685 244.718 328.368 244.346 329.284C242.382 335.161 240.859 340.722 239.775 345.967C235.413 355.734 231.452 363.348 227.888 368.808C227.568 369.293 227.333 369.579 227.182 369.666C227.032 369.752 226.914 369.721 226.827 369.57C226.741 369.419 226.568 368.168 226.311 365.816C226.085 363.344 225.323 360.031 224.025 355.877C222.727 351.723 220.779 347.394 218.179 342.89C217.745 342.14 216.326 342.109 213.921 342.796C211.473 343.409 209.799 343.976 208.898 344.496C207.997 345.016 207.417 346.351 207.158 348.502C203.881 358.552 200.922 366.807 198.287 373.267C192.87 384.674 187.445 394.77 182.006 403.554C181.365 404.525 180.857 405.118 180.482 405.335C180.181 405.508 179.923 405.407 179.706 405.032C178.32 402.63 179.993 393.308 184.726 377.065C186.303 371.651 186.94 368.681 186.637 368.156C185.9 366.88 183.731 367.282 180.128 369.362C178.252 370.446 177.516 371.771 177.921 373.339C177.471 376.2 175.704 381.373 172.62 388.858C169.611 396.3 166.812 402.719 164.224 408.116C163.211 410.002 162.405 411.118 161.804 411.465C161.204 411.811 160.752 411.722 160.449 411.197C160.145 410.671 159.989 409.36 159.98 407.264C160.045 405.125 160.532 402.242 161.441 398.615C162.381 394.87 163.168 391.813 163.803 389.446C164.437 387.078 164.538 385.519 164.104 384.768C163.671 384.018 162.943 383.537 161.921 383.327C160.899 383.116 159.975 383.249 159.149 383.726C156.941 385.101 154.813 390.082 152.766 398.67C150.719 407.257 149.985 415.086 150.565 422.157C150.826 425.209 151.433 427.56 152.386 429.212C153.939 431.902 156.149 432.476 159.015 430.933L159.294 430.777C160.42 430.127 161.543 428.778 162.662 426.731C163.857 424.64 164.783 422.604 165.441 420.623C166.174 418.599 167.028 416.005 168.002 412.84C168.934 409.6 169.587 407.872 169.963 407.655C170.413 407.395 170.681 407.34 170.768 407.49C170.855 407.64 170.904 407.812 170.916 408.006C170.884 408.124 170.874 408.28 170.885 408.473C170.897 408.667 170.914 408.957 170.938 409.344C170.993 409.612 171.121 410.789 171.324 412.874C171.602 414.915 171.979 416.348 172.456 417.174C174.753 421.152 177.177 422.404 179.729 420.931C181.305 420.021 182.66 418.988 183.795 417.833C187.261 414.13 191.364 406.157 196.104 393.913C197.922 389.261 199.828 384.158 201.825 378.602C201.985 378.157 202.137 377.721 202.288 377.299L208.86 361.33C209.434 359.898 210.096 358.965 210.847 358.532C211.673 358.055 212.237 358.079 212.54 358.605C213.667 360.556 214.733 363.443 215.739 367.266C216.702 371.013 216.989 375.15 216.601 379.678C216.244 384.087 214.752 387.05 212.126 388.566C209.574 390.04 207.254 390.528 205.166 390.032C204.413 389.767 203.594 389.389 202.71 388.898C201.858 388.29 201.324 387.797 201.107 387.422C200.207 387.942 199.629 388.676 199.376 389.623C199.154 390.452 199.238 391.204 199.628 391.879C204.524 400.36 210.5 402.564 217.555 398.491C220.407 396.844 223.535 392.987 226.937 386.92C230.339 380.853 233.23 374.68 235.61 368.403C236.37 366.388 237.1 364.427 237.805 362.523C237.699 368.504 238.393 372.792 239.891 375.388C241.755 378.615 243.979 380.734 246.563 381.743C249.223 382.71 251.453 382.673 253.254 381.633C255.131 380.55 256.636 379.43 257.771 378.275C260.83 374.907 264.878 366.666 269.915 353.55C271.839 348.737 273.772 343.418 275.714 337.593C277.655 331.769 278.948 327.77 279.594 325.595C280.316 323.378 280.856 321.714 281.217 320.606C281.534 319.422 281.476 318.454 281.043 317.704C280.609 316.953 279.903 316.51 278.925 316.375C271.253 334.114 262.714 351.303 253.306 367.943C252.365 369.087 251.595 369.832 250.994 370.178C250.469 370.482 249.954 370.629 249.448 370.621C248.9 370.537 248.517 370.308 248.3 369.932C246.957 367.606 246.922 362.172 248.196 353.631C249.469 345.09 251.249 336.907 253.536 329.081C255.899 321.213 257.771 316.829 259.154 315.931C262.294 313.917 267.921 309.969 276.032 304.085C284.175 298.082 288.895 294.557 290.191 293.508C291.562 292.417 292.074 291.57 291.727 290.97C291.251 290.144 290.035 289.946 288.08 290.373L287.689 290.366C283.15 290.341 277.269 292.412 270.048 296.581L264.372 300.009C263.321 300.615 262.644 300.656 262.341 300.131C262.069 299.487 261.774 298.456 261.456 297.039L261.996 291.473C262.033 290.151 261.943 289.302 261.726 288.927ZM112.151 208.961L111.716 209.222C109.413 210.645 105.138 213.911 98.8924 219.018C95.1142 222.7 91.8447 228.391 89.084 236.089C86.3234 243.787 84.3206 251.499 83.0758 259.222C81.8309 266.946 80.8001 275.647 79.9832 285.326C79.1663 295.004 78.7576 303.396 78.757 310.502C78.5728 312.61 78.2556 313.794 77.8053 314.054C77.5051 314.227 77.1816 314.013 76.835 313.413C72.415 305.757 70.1423 286.654 70.017 256.104C69.9324 244.344 69.8003 237.615 69.6208 235.918C69.7763 234.627 69.724 233.756 69.464 233.306C68.814 232.18 67.1005 232.419 64.3235 234.022C61.5464 235.626 59.5896 237.956 58.453 241.014L53.1644 266.434C49.6387 283.381 45.0483 302.643 39.3932 324.222C33.6948 345.725 28.673 361.034 24.3276 370.148C23.9872 370.945 23.7419 371.386 23.5918 371.473C23.4417 371.56 23.28 371.453 23.1066 371.153C22.9766 370.928 23.4033 368.98 24.3867 365.31L25.1306 362.178C25.396 361.425 25.6398 360.634 25.8618 359.805C26.0088 359.019 26.0649 358.337 26.0301 357.756C25.9952 357.176 25.9128 356.773 25.7828 356.548C25.6095 356.248 25.4102 356.163 25.1851 356.293C24.8848 356.466 24.4535 357.366 23.891 358.991L14.3973 385.188C13.8867 386.383 13.8697 387.394 14.3463 388.219C15.2563 389.796 17.0712 390.599 19.7911 390.63C22.3407 390.659 24.3218 390.312 25.7345 389.591L26.0099 389.441C27.436 388.618 28.4836 387.313 29.1529 385.525C31.9492 381.009 35.0349 373.873 38.4099 364.119C41.7849 354.364 44.5335 345.172 46.6558 336.541C50.1832 324.797 54.5096 301.784 59.6351 267.502C59.8858 265.856 60.0761 265.146 60.2061 265.371C60.4228 265.746 60.3385 268.547 59.9533 273.773C58.8849 282.496 59.7754 295.392 62.6249 312.46C63.3655 317.036 64.7758 321.126 66.8558 324.729C71.4736 332.727 75.6862 335.794 79.4933 333.929L79.8601 333.733C81.8301 332.595 83.2511 331.115 84.1222 329.293L84.2891 328.924C85.1402 326.931 85.5951 322.866 85.6538 316.728C87.7263 296.917 91.2163 276.789 96.1239 256.342C101.063 235.778 106.409 220.683 112.16 211.057C112.725 210.13 112.943 209.554 112.813 209.329C112.64 209.029 112.419 208.906 112.151 208.961ZM372.522 208.747L372.088 209.007C369.785 210.43 365.51 213.696 359.264 218.803C355.486 222.486 352.216 228.176 349.456 235.874C346.695 243.573 344.692 251.284 343.447 259.008C342.203 266.732 341.172 275.433 340.355 285.111C339.538 294.79 339.129 303.182 339.129 310.287C338.944 312.395 338.627 313.579 338.177 313.839C337.877 314.012 337.553 313.799 337.207 313.198C332.787 305.543 330.514 286.44 330.389 255.889C330.304 244.13 330.172 237.401 329.992 235.703C330.148 234.412 330.096 233.542 329.836 233.092C329.186 231.966 327.472 232.205 324.695 233.808L324.184 234.117C321.677 235.705 319.89 237.933 318.825 240.8L313.536 266.22C310.01 283.166 305.42 302.429 299.765 324.007C294.066 345.511 289.045 360.819 284.699 369.933C284.359 370.73 284.113 371.172 283.963 371.259C283.813 371.345 283.652 371.238 283.478 370.938C283.348 370.713 283.775 368.765 284.758 365.095L285.502 361.964C285.768 361.21 286.011 360.419 286.233 359.59C286.38 358.805 286.436 358.122 286.402 357.542C286.367 356.961 286.284 356.559 286.154 356.333C285.981 356.033 285.782 355.948 285.557 356.078C285.256 356.251 284.825 357.151 284.263 358.777L274.769 384.973C274.258 386.169 274.241 387.179 274.718 388.005C275.571 389.483 277.219 390.281 279.663 390.4L280.163 390.415C282.713 390.444 284.694 390.098 286.107 389.376L286.381 389.227C287.808 388.404 288.855 387.098 289.524 385.311C292.321 380.794 295.406 373.659 298.781 363.904C302.156 354.15 304.905 344.957 307.027 336.327C310.555 324.583 314.881 301.57 320.007 267.287C320.257 265.643 320.448 264.933 320.578 265.156C320.794 265.532 320.71 268.332 320.325 273.559C319.256 282.281 320.147 295.177 322.996 312.246C323.737 316.822 325.147 320.911 327.227 324.514C331.845 332.512 336.057 335.578 339.864 333.714L340.232 333.518C342.202 332.381 343.623 330.901 344.494 329.078L344.661 328.709C345.512 326.717 345.967 322.651 346.025 316.513C348.098 296.703 351.588 276.574 356.496 256.128C361.435 235.563 366.78 220.468 372.531 210.843C373.097 209.916 373.315 209.34 373.185 209.115C373.012 208.814 372.791 208.692 372.522 208.747ZM158.356 198.497C157.706 197.371 156.03 197.588 153.328 199.148L152.837 199.438C150.467 200.877 149.314 202.141 149.379 203.229L147.591 218.072C138.117 224.542 129.802 230.594 122.646 236.226C115.566 241.815 111.784 244.799 111.302 245.178C110.82 245.556 110.488 245.848 110.306 246.053C110.081 246.183 109.84 246.372 109.583 246.62C109.283 246.794 109.22 247.03 109.393 247.331C109.913 248.231 111.466 248.235 114.053 247.342C115.653 249.421 121.444 247.578 131.427 241.815L138.39 237.495C139.966 236.585 140.884 236.355 141.144 236.805C141.404 237.255 141.348 237.938 140.976 238.854C138.828 245.281 137.208 251.331 136.112 257.003C134.539 260.303 132.689 263.763 130.559 267.384C127.604 272.493 125.076 275.654 122.974 276.867C123.483 267.867 122.523 261.266 120.097 257.063C119.273 255.637 117.979 254.782 116.215 254.5C114.751 254.044 113.628 254.092 112.846 254.644C112.02 255.121 111.453 255.698 111.144 256.377C110.867 256.937 110.579 257.304 110.279 257.477C109.935 257.575 109.489 257.583 108.94 257.499C108.348 257.341 107.677 257.478 106.927 257.911C100.158 266.122 95.9157 275.327 94.1981 285.525C92.4372 295.649 92.9868 303.187 95.8468 308.141C96.8435 309.867 97.967 311.12 99.2175 311.899C101.568 313.544 104.943 313.497 109.343 311.757C115.423 308.247 119.865 299.128 122.669 284.399C123.657 284.029 124.375 283.714 124.826 283.454C128.114 281.555 131.316 277.669 134.439 271.799C134.304 277.934 134.998 282.32 136.521 284.958C138.384 288.185 140.608 290.304 143.193 291.313C145.852 292.28 148.082 292.243 149.884 291.203C151.76 290.12 153.266 289 154.4 287.845C157.459 284.478 161.507 276.236 166.544 263.12C168.469 258.307 170.402 252.988 172.343 247.163C174.284 241.339 175.578 237.34 176.224 235.165C176.945 232.948 177.486 231.284 177.846 230.176C178.164 228.992 178.105 228.024 177.672 227.274C177.239 226.523 176.533 226.08 175.554 225.945C167.882 243.684 159.343 260.873 149.936 277.513C148.995 278.657 148.224 279.402 147.624 279.748C147.098 280.052 146.583 280.199 146.078 280.191C145.529 280.107 145.146 279.878 144.93 279.502C143.586 277.176 143.551 271.742 144.825 263.201C146.098 254.66 147.879 246.477 150.166 238.651C152.528 230.783 154.4 226.399 155.783 225.501C158.924 223.487 164.55 219.539 172.661 213.655C180.804 207.652 185.524 204.127 186.82 203.078C188.191 201.987 188.703 201.14 188.357 200.54C187.88 199.714 186.664 199.516 184.71 199.943L184.318 199.935C179.778 199.91 173.898 201.982 166.678 206.151L161.001 209.579C159.95 210.185 159.273 210.226 158.97 209.701C158.698 209.057 158.403 208.026 158.085 206.609L158.625 201.043C158.662 199.721 158.572 198.872 158.356 198.497ZM544.266 117.546C543.039 117.154 541.975 117.218 541.074 117.738C540.173 118.258 539.268 119.031 538.359 120.056C532.726 127.111 528.003 134.791 524.192 143.097C520.455 151.358 517.807 158.992 516.247 165.997C514.763 172.958 513.766 179.638 513.257 186.037C513.126 187.959 513.038 189.774 512.993 191.481C511.995 193.786 510.956 196.224 509.878 198.795C506.921 205.807 504.457 211.332 502.486 215.372C500.591 219.369 498.783 222.564 497.063 224.958C495.418 227.309 494.145 228.745 493.244 229.265C492.419 229.741 491.811 229.642 491.421 228.966C490.944 228.141 490.703 227.029 490.697 225.632C490.324 223.946 490.441 221.376 491.049 217.923C491.47 215.878 492.171 212.672 493.151 208.303C493.942 204.994 494.903 200.856 496.031 195.889L497.216 190.644C497.3 190.096 497.168 189.521 496.822 188.921C496.475 188.32 495.818 188.049 494.851 188.107L491.269 187.623C490.957 187.603 490.426 187.81 489.675 188.243C489 188.633 488.353 189.507 487.736 190.864L487.59 191.343C487.158 192.643 486.09 195.229 484.387 199.102C482.514 203.486 478.729 211.576 473.03 223.372L472.662 224.035C472.587 224.078 472.506 224.025 472.419 223.875C472.333 223.725 472.431 222.768 472.713 221.003L474.246 206.758C474.275 205.941 474.116 205.233 473.769 204.632C473.422 204.032 472.669 203.766 471.508 203.836C470.379 203.787 469.439 203.98 468.689 204.413C467.938 204.846 466.407 207.481 464.096 212.318L455.055 231.499L454.782 231.806C454.632 231.893 454.514 231.861 454.427 231.711C454.297 231.486 454.28 231.196 454.375 230.84C455.021 228.666 455.298 224.553 455.207 218.501C455.244 217.179 455.002 216.067 454.482 215.167C453.962 214.266 452.976 213.685 451.524 213.422C450.103 213.042 449.017 213.068 448.267 213.501C447.516 213.935 447.02 214.722 446.778 215.862C446.626 216.857 446.511 218.409 446.426 220.518C446.306 220.522 446.187 220.557 446.069 220.625C432.292 250.495 423.377 266.6 419.324 268.94C418.948 269.157 418.696 269.153 418.566 268.928C417.742 267.502 417.747 264.997 418.581 261.413C419.414 257.83 420.527 254.385 421.921 251.079C423.314 247.772 424.767 244.482 426.279 241.207C427.866 237.889 428.798 235.95 429.075 235.39C429.384 234.711 429.386 234.109 429.083 233.584C428.78 233.059 426.975 232.099 423.668 230.706C422.84 230.484 421.825 230.719 420.624 231.412C419.498 232.062 418.154 233.289 416.593 235.091C414.988 236.818 413.623 238.006 412.497 238.656C411.446 239.263 408.309 239.723 403.086 240.037C397.863 240.35 394.839 240.745 394.014 241.222C391.837 242.479 390.412 243.651 389.74 244.74C389.024 245.754 389.1 247.011 389.966 248.512C390.096 248.737 390.426 249.048 390.954 249.443C392.54 250.629 395.01 251.355 398.365 251.619C396.524 255.804 394.712 259.82 392.929 263.67C392.292 264.819 391.627 265.986 390.931 267.17C387.976 272.278 385.448 275.439 383.346 276.652C383.854 267.653 382.895 261.051 380.468 256.848C379.645 255.422 378.351 254.568 376.587 254.285C375.123 253.83 374 253.878 373.217 254.429C372.392 254.906 371.825 255.484 371.516 256.162C371.239 256.723 370.95 257.089 370.65 257.263C370.307 257.361 369.86 257.368 369.312 257.285C368.72 257.126 368.049 257.264 367.298 257.697C360.53 265.908 356.287 275.112 354.57 285.311C352.809 295.434 353.358 302.972 356.218 307.926C357.215 309.652 358.339 310.905 359.589 311.684C361.94 313.329 365.315 313.282 369.715 311.542C375.794 308.032 380.236 298.913 383.041 284.184C384.028 283.814 384.747 283.499 385.197 283.239C389.025 281.03 392.737 276.129 396.339 268.539C396.667 268.11 396.936 267.659 397.144 267.185C397.415 266.435 397.675 265.708 397.927 265.007C399.456 261.414 400.963 257.327 402.451 252.746C403.585 253.216 405.368 253.176 407.802 252.625C410.326 251.969 412.225 251.272 413.501 250.536C409.947 258.592 407.974 264.535 407.582 268.364C407.223 272.074 407.866 275.355 409.513 278.207C412.546 283.461 416.69 284.572 421.944 281.538C425.321 279.588 429.208 273.841 433.606 264.297C438.034 254.635 441.632 245.353 444.398 236.45C445.034 234.353 445.58 232.476 446.039 230.819C445.569 237.857 444.09 247.128 441.599 258.632C441.59 259.137 441.651 259.502 441.781 259.727C442.258 260.553 443.254 260.979 444.77 261.004C446.242 260.955 447.241 260.778 447.767 260.475C448.292 260.171 448.768 259.696 449.195 259.049C449.654 258.284 451.792 253.147 455.609 243.638L462.195 227.226C462.322 226.752 462.461 226.472 462.611 226.386C462.761 226.299 462.879 226.331 462.966 226.481C463.053 226.631 463.064 226.824 463.001 227.061L462.192 230.08C461.122 233.6 460.23 239.769 459.517 248.587C459.488 249.404 459.691 250.188 460.124 250.938C461.424 253.19 463.312 253.601 465.789 252.171C466.69 251.651 467.332 251.03 467.716 250.308C470.235 246.352 474.883 235.162 481.659 216.739C481.893 216.104 482.053 215.861 482.14 216.011C482.183 216.087 482.175 216.593 482.114 217.527L481.108 226.964C480.78 230.556 481.288 233.516 482.631 235.842C486.185 241.997 490.851 243.406 496.63 240.069C499.632 238.336 503.196 232.375 507.322 222.188C510.065 215.505 512.27 209.815 513.941 205.119C514.373 207.282 514.895 208.895 515.508 209.956C518.801 215.66 521.9 218.774 524.805 219.299C526.214 219.486 527.396 219.454 528.352 219.203C529.308 218.951 530.498 218.414 531.924 217.59C533.351 216.767 534.631 215.778 535.765 214.622C539.232 210.92 543.335 202.947 548.075 190.703C549.892 186.051 551.799 180.947 553.795 175.391C555.791 169.836 557.097 166.03 557.711 163.974C558.4 161.875 558.925 160.271 559.286 159.162C559.646 158.053 559.61 157.123 559.177 156.373C558.743 155.622 558.037 155.179 557.058 155.044L551.774 166.951C548.326 174.846 544.203 183.131 539.404 191.806C534.681 200.438 531.08 205.468 528.604 206.898C527.328 207.635 526.018 206.84 524.675 204.513C522.595 200.911 523.116 196.006 526.238 189.801C530.139 182.344 534.073 173.818 538.04 164.223C542.039 154.509 545.023 145.03 546.992 135.787C548.941 126.856 549.417 121.528 548.42 119.801L547.207 119.001C546.43 118.348 545.45 117.864 544.266 117.546ZM105.284 280.026C105.359 279.982 106.469 280.692 108.615 282.155C110.792 283.5 112.548 284.288 113.882 284.518C114.425 285.806 113.843 289.044 112.135 294.233C110.428 299.422 108.373 302.71 105.971 304.097C105.596 304.313 105.235 304.121 104.888 303.521C103.848 301.72 103.368 297.594 103.446 291.144C103.601 287.252 104.213 283.546 105.284 280.026ZM365.655 279.811C365.73 279.768 366.841 280.478 368.986 281.941C371.164 283.286 372.919 284.073 374.253 284.304C374.797 285.591 374.214 288.83 372.507 294.019C370.799 299.208 368.745 302.495 366.343 303.882C365.967 304.099 365.607 303.907 365.26 303.306C364.22 301.505 363.739 297.379 363.818 290.929C363.973 287.037 364.585 283.331 365.655 279.811ZM114.364 262.474C114.514 262.387 114.741 262.607 115.044 263.132C115.304 263.582 115.497 265.823 115.623 269.853C115.823 273.841 115.285 276.203 114.009 276.939C113.784 277.069 113.251 276.926 112.411 276.511C111.571 276.095 111.086 275.775 110.956 275.55C110.436 274.649 110.667 272.364 111.651 268.694C112.709 264.98 113.614 262.907 114.364 262.474ZM374.736 262.259C374.886 262.173 375.113 262.392 375.416 262.917C375.676 263.368 375.869 265.608 375.994 269.639C376.195 273.626 375.657 275.988 374.381 276.725C374.156 276.855 373.623 276.712 372.783 276.296C371.942 275.881 371.457 275.561 371.327 275.335C370.807 274.435 371.039 272.149 372.022 268.479C373.081 264.766 373.985 262.693 374.736 262.259ZM540.068 14.742C539.375 13.5411 537.156 13.7713 533.412 15.4327L533.235 15.5429C532.383 16.1172 531.994 17.0395 532.07 18.3089C529.879 28.3804 525.556 40.1331 519.102 53.5668C518.227 55.1724 517.527 56.1269 517.002 56.4302C516.552 56.6902 516.197 56.595 515.937 56.1447C514.853 54.2683 514.842 50.5221 515.903 44.906C516.375 42.4314 516.86 40.1503 517.356 38.0626C517.808 35.8999 518.304 33.8122 518.844 31.7996C519.458 29.7437 519.797 28.5973 519.86 28.3606C519.955 28.0054 519.895 27.6402 519.678 27.2649C519.115 26.2892 517.63 26.1453 515.226 26.8332C514.839 26.8564 514.533 26.9331 514.307 27.0631C512.098 28.3386 510.306 32.5086 508.931 39.5731C497.082 64.76 489.306 78.425 485.598 80.5661C485.222 80.7828 484.97 80.7785 484.84 80.5533C484.016 79.1273 484.021 76.6226 484.855 73.0392C485.688 69.4558 486.801 66.0109 488.195 62.7045C489.588 59.3981 491.041 56.1076 492.553 52.8329C494.14 49.5149 495.072 47.5758 495.349 47.0156C495.657 46.337 495.66 45.735 495.357 45.2096C495.053 44.6842 493.249 43.7248 489.942 42.3313C489.113 42.1092 488.099 42.3448 486.898 43.0382C485.772 43.6882 484.428 44.9143 482.867 46.7164C481.262 48.4435 479.897 49.6321 478.771 50.2821C477.72 50.8888 474.583 51.3488 469.36 51.6623C464.137 51.9758 461.113 52.3709 460.287 52.8476C458.111 54.1043 456.686 55.277 456.014 56.3657C455.298 57.3793 455.374 58.6367 456.24 60.1378C456.37 60.363 456.7 60.6733 457.228 61.0687C458.791 62.2382 461.215 62.9587 464.498 63.2323C456.419 81.3753 449.903 94.0771 444.945 101.335C444.272 99.8221 444.089 97.4257 444.397 94.1456C444.593 92.2313 444.838 90.4887 445.132 88.9179C445.382 87.2721 445.843 84.6041 446.515 80.9139C447.187 77.2238 447.747 73.948 448.197 71.0865C448.727 69.5792 448.776 68.4503 448.343 67.6997C447.909 66.9492 447.359 66.5162 446.692 66.401C445.982 66.2106 445.38 66.2079 444.886 66.3929C443.541 65.9689 442.568 65.9302 441.967 66.2769C441.367 66.6235 440.908 67.3888 440.591 68.5727C438.638 67.0979 436.928 66.7347 435.458 67.483C431.705 69.6496 428.1 73.6323 424.643 79.4311C421.261 85.1866 418.633 91.2074 416.758 97.4936C416.063 99.7447 415.456 101.966 414.936 104.155C412.141 110.755 409.802 115.992 407.913 119.863C406.017 123.86 404.209 127.055 402.489 129.449C400.844 131.8 399.572 133.235 398.671 133.755C397.845 134.232 397.238 134.133 396.848 133.457C396.111 132.181 395.469 130.55 394.923 128.564C394.802 127.833 394.803 126.882 394.926 125.71C395.007 124.462 395.077 123.371 395.138 122.435C395.273 121.457 395.535 120.004 395.924 118.078C396.314 116.152 396.677 114.442 397.014 112.946C397.308 111.375 397.792 109.094 398.467 106.102C399.174 102.993 399.785 100.238 400.301 97.8385C400.384 97.2899 400.253 96.7154 399.906 96.1149C399.559 95.5145 398.903 95.2433 397.935 95.3013L394.263 96.2207C393.951 96.2006 393.42 96.4072 392.669 96.8405C391.994 97.2305 391.347 98.1041 390.73 99.4613C387.744 107.29 383.653 116.757 378.457 127.863L378.089 128.526C378.014 128.569 377.933 128.516 377.846 128.366C377.759 128.216 377.857 127.258 378.14 125.494L379.823 108.911C379.895 108.169 379.78 107.535 379.476 107.009C379.043 106.259 377.94 105.995 376.167 106.218C374.47 106.397 373.321 106.661 372.72 107.007C371.895 107.484 371.375 109.185 371.163 112.11C371.109 113.236 371.053 114.477 370.995 115.835C363.83 131.826 355.786 146.871 346.86 160.966C345.844 162.153 345.074 162.898 344.548 163.202C343.648 163.722 342.959 163.569 342.482 162.743C342.006 161.918 341.764 160.806 341.758 159.409C341.217 156.218 341.268 151.886 341.91 146.412C342.584 140.819 343.179 136.822 343.695 134.423C344.286 131.98 344.702 130.188 344.945 129.048C345.262 127.864 345.312 127.084 345.095 126.709C344.879 126.334 344.48 126.164 343.9 126.198C342.127 126.421 340.453 126.988 338.877 127.898C337.3 128.808 336.075 130.066 335.201 131.671C334.517 132.566 333.783 135.542 332.999 140.598C332.943 140.938 332.888 141.281 332.835 141.626C326.426 154.909 320.455 166.252 314.921 175.654C312.318 180.158 310.754 182.562 310.228 182.866C309.778 183.126 309.488 183.144 309.358 182.919C307.841 180.292 307.797 174.062 309.226 164.231C310.73 154.356 314 141.56 319.036 125.843C321.188 118.996 322.888 113.361 324.137 108.937C325.461 104.47 326.43 99.908 327.043 95.2507C327.732 90.5499 327.534 87.2614 326.451 85.385C325.758 84.1841 324.773 83.952 323.497 84.6887C319.744 86.8553 316.295 93.1002 313.148 103.423C310.033 113.628 307.818 123.313 306.505 132.477C305.148 141.567 304.659 146.353 305.037 146.835C302.966 145.328 301.255 144.965 299.904 145.745C296.152 147.912 292.584 151.873 289.202 157.628C288.208 159.321 287.276 161.038 286.405 162.78C286.295 162.788 286.185 162.823 286.077 162.885C272.3 192.756 263.385 208.861 259.332 211.201C258.956 211.418 258.704 211.413 258.574 211.188C257.75 209.762 257.755 207.257 258.589 203.674C259.422 200.091 260.535 196.646 261.929 193.339C263.322 190.033 264.775 186.742 266.287 183.468C267.874 180.15 268.806 178.211 269.083 177.65C269.391 176.972 269.394 176.37 269.091 175.844C268.787 175.319 266.983 174.36 263.676 172.966C262.847 172.744 261.833 172.98 260.632 173.673C259.506 174.323 258.162 175.549 256.601 177.351C254.996 179.078 253.631 180.267 252.505 180.917C251.454 181.524 248.317 181.984 243.094 182.297C237.871 182.611 234.847 183.006 234.021 183.482C231.845 184.739 230.42 185.912 229.748 187C229.032 188.014 229.108 189.272 229.974 190.773C230.104 190.998 230.434 191.308 230.962 191.703C232.548 192.89 235.018 193.615 238.373 193.88C236.531 198.066 234.718 202.084 232.934 205.935C232.298 207.083 231.634 208.248 230.939 209.43C227.984 214.539 225.455 217.7 223.354 218.913C223.862 209.913 222.903 203.312 220.476 199.109C219.653 197.682 218.359 196.828 216.595 196.546C215.131 196.09 214.008 196.138 213.225 196.69C212.4 197.167 211.833 197.744 211.524 198.423C211.247 198.983 210.958 199.35 210.658 199.523C210.314 199.621 209.868 199.629 209.32 199.545C208.728 199.387 208.057 199.524 207.306 199.957C200.538 208.168 196.295 217.373 194.578 227.571C192.817 237.694 193.366 245.233 196.226 250.187C197.223 251.913 198.346 253.166 199.597 253.945C201.948 255.59 205.323 255.542 209.723 253.803C215.802 250.293 220.244 241.173 223.049 226.445C224.036 226.075 224.755 225.76 225.205 225.5C229.033 223.29 232.745 218.389 236.348 210.798C236.675 210.369 236.944 209.919 237.152 209.445C237.423 208.696 237.682 207.969 237.935 207.267C239.464 203.674 240.972 199.587 242.46 195.006C243.594 195.475 245.376 195.437 247.81 194.886C250.334 194.229 252.233 193.533 253.509 192.796C249.955 200.853 247.982 206.796 247.59 210.624C247.23 214.335 247.874 217.616 249.521 220.468C252.554 225.722 256.698 226.832 261.951 223.799C265.329 221.849 269.216 216.102 273.613 206.558C274.802 203.965 275.928 201.398 276.997 198.86C276.973 201.782 277.332 203.889 278.078 205.181C279.205 207.132 280.522 208.374 282.029 208.904C283.537 209.435 284.634 209.602 285.321 209.406C285.976 209.327 286.513 209.218 286.932 209.076C289.184 207.776 291.374 204.81 293.503 200.178C295.664 195.428 297.062 191.869 297.697 189.501C298.288 187.058 298.768 185.03 299.137 183.416C299.264 182.942 299.365 182.684 299.44 182.64C299.59 182.554 299.73 182.623 299.86 182.848C299.947 183.001 300.384 184.451 301.169 187.196C301.987 189.826 302.743 191.741 303.436 192.942C304.13 194.143 305.337 194.847 307.058 195.055C308.854 195.219 310.567 194.98 312.198 194.338C313.774 193.428 315.13 192.396 316.264 191.24C319.73 187.538 323.834 179.565 328.573 167.321C329.596 164.704 330.644 161.942 331.723 159.038C331.806 163.96 332.462 167.488 333.693 169.619C337.246 175.774 341.913 177.183 347.692 173.846C349.268 172.936 350.623 171.903 351.758 170.748C355.224 167.046 359.327 159.072 364.067 146.829C365.885 142.177 367.791 137.073 369.788 131.517C369.894 131.222 369.996 130.931 370.098 130.645C369.916 131.792 369.697 132.851 369.437 133.821C369.049 138.348 367.551 144.767 364.944 153.078C364.915 153.895 365.117 154.679 365.551 155.429C366.851 157.681 368.739 158.092 371.216 156.662C372.117 156.142 372.759 155.521 373.143 154.799C375.662 150.843 380.31 139.653 387.086 121.23C387.32 120.594 387.48 120.352 387.567 120.502C387.61 120.577 387.601 121.082 387.541 122.018L386.535 131.455C386.207 135.047 386.715 138.006 388.058 140.333C391.611 146.488 396.278 147.897 402.057 144.56C405.059 142.827 408.623 136.866 412.749 126.678C412.878 126.363 413.003 126.048 413.13 125.737C413.27 126.187 413.437 126.581 413.632 126.919C414.759 128.87 416.076 130.112 417.583 130.642C419.09 131.173 420.188 131.34 420.875 131.144C421.53 131.065 422.067 130.956 422.486 130.814C424.737 129.514 426.928 126.548 429.057 121.916C431.218 117.166 432.616 113.607 433.25 111.239C433.842 108.796 434.322 106.768 434.691 105.154C434.818 104.68 434.919 104.422 434.994 104.378C435.144 104.292 435.284 104.361 435.414 104.586L438.673 112.311C440.016 114.638 441.248 116.078 442.369 116.632C443.489 117.186 444.762 117.052 446.189 116.228C447.615 115.405 450.026 111.261 453.422 103.796C454.827 100.683 456.337 97.0594 457.953 92.9243C459.6 88.6708 461.023 84.8966 462.224 81.6019C462.438 81.0081 462.651 80.4094 462.867 79.8085C463.082 79.4874 463.267 79.1554 463.418 78.8105C465.882 71.9842 467.591 67.1445 468.546 64.2916C469.666 64.8456 471.51 64.832 474.076 64.2508C476.6 63.5946 478.499 62.8982 479.775 62.1615C476.221 70.2182 474.248 76.1608 473.856 79.9895C473.496 83.6998 474.14 86.981 475.787 89.8331C478.82 95.087 482.964 96.1973 488.217 93.1639C491.595 91.2139 495.482 85.467 499.879 75.9231C502.494 70.2197 504.816 64.6475 506.851 59.2089C506.814 64.6368 507.478 68.5332 508.843 70.8981C510.49 73.7502 512.326 74.5913 514.353 73.4213C517.505 71.6013 520.379 66.4394 522.975 57.9355L524.139 55.0117C524.289 54.925 524.435 55.091 524.577 55.5096C524.75 55.8099 524.082 60.1987 522.571 68.6763C521.136 77.1105 520.065 81.5818 519.358 82.0902L516.798 83.1175C513.381 85.6911 509.959 89.8182 506.534 95.4985C503.152 101.254 500.734 107.553 499.281 114.397C497.828 121.24 498.315 126.763 500.742 130.966C501.782 132.768 503.356 133.76 505.463 133.945C507.571 134.129 509.601 133.657 511.552 132.531C515.455 130.277 518.558 126.985 520.861 122.653C523.207 118.397 525.057 112.675 526.412 105.488C527.766 98.3011 528.873 90.8573 529.731 83.1566C532.936 56.9881 536.428 34.957 540.208 17.0633C540.418 16.0411 540.372 15.2674 540.068 14.742ZM205.663 222.072C205.741 222.031 206.852 222.74 208.994 224.201C211.172 225.546 212.927 226.334 214.261 226.564C214.805 227.852 214.222 231.09 212.515 236.279C210.807 241.468 208.752 244.756 206.351 246.143C205.975 246.359 205.614 246.167 205.268 245.567C204.228 243.766 203.747 239.64 203.826 233.19C203.981 229.297 204.593 225.591 205.663 222.072ZM214.744 204.52C214.894 204.433 215.12 204.652 215.424 205.178C215.684 205.628 215.877 207.869 216.002 211.899C216.202 215.886 215.665 218.248 214.389 218.985C214.164 219.115 213.631 218.972 212.791 218.557C211.95 218.141 211.465 217.821 211.335 217.596C210.815 216.695 211.047 214.41 212.03 210.74C213.089 207.026 213.993 204.953 214.744 204.52ZM561.753 185.508C561.354 185.338 560.78 185.469 560.029 185.903C558.303 186.899 556.717 189.266 555.272 193.003C553.783 196.664 553.689 199.621 554.989 201.872C555.761 203.209 556.821 203.675 558.171 203.271L558.445 203.179C559.888 202.346 561.118 201.089 562.136 199.41C562.937 199.362 563.62 199.247 564.148 199.126C564.299 199.091 564.444 199.052 564.585 199.014L562.857 198.08L564.718 198.979C565.946 198.633 566.75 198.189 567.029 198.027C567.413 197.806 567.736 197.58 568.005 197.372C567.905 196.729 567.688 195.953 567.261 195.14L567.113 194.872L566.978 194.645C566.734 194.252 566.387 193.762 565.92 193.238L565.06 193.056L565.914 193.231C565.696 192.987 565.45 192.736 565.178 192.484C565.252 192.13 565.323 191.795 565.387 191.478L565.643 190.167C565.747 189.306 565.582 188.501 565.149 187.75C564.672 186.925 563.54 186.177 561.753 185.508ZM303.519 153.565C303.744 153.435 303.9 153.446 303.987 153.596C304.03 153.671 303.988 153.945 303.861 154.419L300.854 163.51C298.774 169.615 296.47 175.849 293.939 182.213C291.484 188.534 289.806 191.955 288.906 192.475C288.756 192.562 288.637 192.53 288.551 192.38C287.814 191.104 288.057 187.711 289.279 182.202C290.533 176.574 292.518 170.825 295.233 164.954C297.905 159.008 300.667 155.212 303.519 153.565ZM539.679 130.402C540.286 131.453 538.488 139.346 534.286 154.081C530.159 168.773 527.158 176.66 525.281 177.744C525.131 177.83 525.013 177.799 524.926 177.648C524.796 177.423 524.773 177.036 524.856 176.488C525.34 171.605 527.032 164.223 529.934 154.342C532.91 144.418 535.613 137.053 538.043 132.247L539.437 130.242L539.679 130.402ZM518.471 85.7545C518.696 85.6245 518.852 85.6345 518.939 85.7846C519.025 85.9347 519.017 86.44 518.913 87.3005L517.565 95.8848C516.622 101.533 515.172 107.774 513.214 114.609C511.299 121.519 509.266 126.145 507.116 128.487C506.816 128.66 506.601 128.634 506.471 128.409C505.431 126.608 505.418 122.512 506.432 116.122C507.371 109.776 509.031 103.464 511.411 97.186C513.716 90.9517 516.069 87.1411 518.471 85.7545ZM344.892 99.0562C344.493 98.886 343.919 99.0176 343.168 99.4509C342.08 100.079 341.048 101.251 340.071 102.968C340.039 102.969 340.006 102.969 339.974 102.971C339.957 103.06 339.939 103.149 339.922 103.238C339.403 104.187 338.898 105.291 338.411 106.551C336.922 110.212 336.828 113.169 338.128 115.421C338.951 116.847 340.103 117.282 341.584 116.727C343.234 115.775 344.623 114.299 345.754 112.303C346.331 112.368 346.933 112.467 347.549 112.606C348.95 112.252 349.866 111.75 350.168 111.575C350.551 111.354 350.875 111.129 351.144 110.921C351.044 110.278 350.827 109.502 350.4 108.688L350.252 108.421L350.116 108.194C349.872 107.801 349.525 107.31 349.059 106.787L348.199 106.604L349.054 106.78C348.835 106.535 348.589 106.285 348.317 106.033C348.504 105.138 348.661 104.366 348.782 103.715C348.886 102.855 348.721 102.049 348.288 101.299C347.871 100.576 346.952 99.9131 345.531 99.3104L344.892 99.0562ZM439.073 75.3035C439.298 75.1735 439.454 75.1835 439.54 75.3336C439.584 75.4087 439.542 75.683 439.415 76.1565L436.295 85.3131C434.291 91.3742 432.023 97.5869 429.493 103.951C427.038 110.272 425.36 113.693 424.46 114.213C424.309 114.3 424.191 114.268 424.104 114.118C423.368 112.842 423.611 109.449 424.833 103.94C426.087 98.3121 428.072 92.5628 430.787 86.6921C433.459 80.7463 436.221 76.9501 439.073 75.3035ZM555.683 38.9013C555.285 38.7311 554.71 38.8626 553.959 39.2959C552.872 39.9241 551.84 41.0963 550.863 42.8124C550.418 42.8269 549.997 42.8656 549.605 42.9227C549.417 44.046 549.23 45.1817 549.043 46.33L549.202 46.3959L549.042 46.3329C548.998 46.6075 548.954 46.883 548.909 47.1591C547.708 50.4705 547.711 53.1726 548.919 55.2657C549.691 56.6026 550.752 57.069 552.102 56.6649L552.376 56.5725C553.818 55.7394 555.048 54.4821 556.067 52.8026C556.868 52.7541 557.551 52.6401 558.078 52.5194C558.23 52.4848 558.375 52.4451 558.516 52.4071L556.787 51.4736L558.649 52.3729C559.875 52.0266 560.679 51.5825 560.959 51.4208C561.342 51.1994 561.666 50.9737 561.936 50.7655C561.825 50.0526 561.569 49.1763 561.043 48.2655C560.799 47.8425 560.41 47.2605 559.849 46.6307L558.99 46.449L559.843 46.6239C559.625 46.3798 559.38 46.1294 559.109 45.8778C559.183 45.5229 559.254 45.1875 559.318 44.871L559.574 43.5601C559.677 42.6997 559.513 41.8942 559.079 41.1436C558.603 40.318 557.47 39.5706 555.683 38.9013Z" fill="white"/>
</svg>
